G04 #@! TF.FileFunction,Copper,L2,Bot,Signal*
%FSLAX46Y46*%
G04 Gerber Fmt 4.6, Leading zero omitted, Abs format (unit mm)*
G04 Created by KiCad (PCBNEW 4.0.6) date Thursday, 29 June 2017 'AMt' 11:53:14*
%MOMM*%
%LPD*%
G01*
G04 APERTURE LIST*
%ADD10C,0.100000*%
%ADD11C,0.300000*%
%ADD12C,0.010000*%
%ADD13R,1.300000X0.700000*%
%ADD14C,1.524000*%
%ADD15R,1.200000X1.200000*%
%ADD16R,1.700000X1.700000*%
%ADD17O,1.700000X1.700000*%
%ADD18C,1.400000*%
%ADD19C,0.250000*%
%ADD20C,0.254000*%
G04 APERTURE END LIST*
D10*
D11*
X179821427Y-79403571D02*
X179821427Y-77903571D01*
X179321427Y-78975000D01*
X178821427Y-77903571D01*
X178821427Y-79403571D01*
X178107141Y-79403571D02*
X178107141Y-77903571D01*
X177607141Y-78975000D01*
X177107141Y-77903571D01*
X177107141Y-79403571D01*
X176392855Y-79403571D02*
X176392855Y-77903571D01*
X176035712Y-77903571D01*
X175821427Y-77975000D01*
X175678569Y-78117857D01*
X175607141Y-78260714D01*
X175535712Y-78546429D01*
X175535712Y-78760714D01*
X175607141Y-79046429D01*
X175678569Y-79189286D01*
X175821427Y-79332143D01*
X176035712Y-79403571D01*
X176392855Y-79403571D01*
X175107141Y-77903571D02*
X174607141Y-79403571D01*
X174107141Y-77903571D01*
X173607141Y-79403571D02*
X173607141Y-77903571D01*
X173107141Y-78975000D01*
X172607141Y-77903571D01*
X172607141Y-79403571D01*
X169892855Y-79403571D02*
X170392855Y-78689286D01*
X170749998Y-79403571D02*
X170749998Y-77903571D01*
X170178570Y-77903571D01*
X170035712Y-77975000D01*
X169964284Y-78046429D01*
X169892855Y-78189286D01*
X169892855Y-78403571D01*
X169964284Y-78546429D01*
X170035712Y-78617857D01*
X170178570Y-78689286D01*
X170749998Y-78689286D01*
X168749998Y-78617857D02*
X169249998Y-78617857D01*
X169249998Y-79403571D02*
X169249998Y-77903571D01*
X168535712Y-77903571D01*
X168107141Y-77903571D02*
X167107141Y-77903571D01*
X167749998Y-79403571D01*
X166249999Y-77903571D02*
X166107142Y-77903571D01*
X165964285Y-77975000D01*
X165892856Y-78046429D01*
X165821427Y-78189286D01*
X165749999Y-78475000D01*
X165749999Y-78832143D01*
X165821427Y-79117857D01*
X165892856Y-79260714D01*
X165964285Y-79332143D01*
X166107142Y-79403571D01*
X166249999Y-79403571D01*
X166392856Y-79332143D01*
X166464285Y-79260714D01*
X166535713Y-79117857D01*
X166607142Y-78832143D01*
X166607142Y-78475000D01*
X166535713Y-78189286D01*
X166464285Y-78046429D01*
X166392856Y-77975000D01*
X166249999Y-77903571D01*
X165178571Y-78046429D02*
X165107142Y-77975000D01*
X164964285Y-77903571D01*
X164607142Y-77903571D01*
X164464285Y-77975000D01*
X164392856Y-78046429D01*
X164321428Y-78189286D01*
X164321428Y-78332143D01*
X164392856Y-78546429D01*
X165249999Y-79403571D01*
X164321428Y-79403571D01*
X162892857Y-79403571D02*
X163750000Y-79403571D01*
X163321428Y-79403571D02*
X163321428Y-77903571D01*
X163464285Y-78117857D01*
X163607143Y-78260714D01*
X163750000Y-78332143D01*
X162321429Y-79332143D02*
X162107143Y-79403571D01*
X161750000Y-79403571D01*
X161607143Y-79332143D01*
X161535714Y-79260714D01*
X161464286Y-79117857D01*
X161464286Y-78975000D01*
X161535714Y-78832143D01*
X161607143Y-78760714D01*
X161750000Y-78689286D01*
X162035714Y-78617857D01*
X162178572Y-78546429D01*
X162250000Y-78475000D01*
X162321429Y-78332143D01*
X162321429Y-78189286D01*
X162250000Y-78046429D01*
X162178572Y-77975000D01*
X162035714Y-77903571D01*
X161678572Y-77903571D01*
X161464286Y-77975000D01*
X160821429Y-78617857D02*
X160321429Y-78617857D01*
X160107143Y-79403571D02*
X160821429Y-79403571D01*
X160821429Y-77903571D01*
X160107143Y-77903571D01*
X176750000Y-81882143D02*
X176535714Y-81953571D01*
X176178571Y-81953571D01*
X176035714Y-81882143D01*
X175964285Y-81810714D01*
X175892857Y-81667857D01*
X175892857Y-81525000D01*
X175964285Y-81382143D01*
X176035714Y-81310714D01*
X176178571Y-81239286D01*
X176464285Y-81167857D01*
X176607143Y-81096429D01*
X176678571Y-81025000D01*
X176750000Y-80882143D01*
X176750000Y-80739286D01*
X176678571Y-80596429D01*
X176607143Y-80525000D01*
X176464285Y-80453571D01*
X176107143Y-80453571D01*
X175892857Y-80525000D01*
X175464286Y-80453571D02*
X174607143Y-80453571D01*
X175035714Y-81953571D02*
X175035714Y-80453571D01*
X174107143Y-81953571D02*
X174107143Y-80453571D01*
X173607143Y-81525000D01*
X173107143Y-80453571D01*
X173107143Y-81953571D01*
X172535714Y-80453571D02*
X171607143Y-80453571D01*
X172107143Y-81025000D01*
X171892857Y-81025000D01*
X171750000Y-81096429D01*
X171678571Y-81167857D01*
X171607143Y-81310714D01*
X171607143Y-81667857D01*
X171678571Y-81810714D01*
X171750000Y-81882143D01*
X171892857Y-81953571D01*
X172321429Y-81953571D01*
X172464286Y-81882143D01*
X172535714Y-81810714D01*
X171035715Y-80596429D02*
X170964286Y-80525000D01*
X170821429Y-80453571D01*
X170464286Y-80453571D01*
X170321429Y-80525000D01*
X170250000Y-80596429D01*
X170178572Y-80739286D01*
X170178572Y-80882143D01*
X170250000Y-81096429D01*
X171107143Y-81953571D01*
X170178572Y-81953571D01*
X169535715Y-81953571D02*
X169535715Y-80453571D01*
X169178572Y-80453571D01*
X168964287Y-80525000D01*
X168821429Y-80667857D01*
X168750001Y-80810714D01*
X168678572Y-81096429D01*
X168678572Y-81310714D01*
X168750001Y-81596429D01*
X168821429Y-81739286D01*
X168964287Y-81882143D01*
X169178572Y-81953571D01*
X169535715Y-81953571D01*
X168035715Y-80453571D02*
X168035715Y-81667857D01*
X167964287Y-81810714D01*
X167892858Y-81882143D01*
X167750001Y-81953571D01*
X167464287Y-81953571D01*
X167321429Y-81882143D01*
X167250001Y-81810714D01*
X167178572Y-81667857D01*
X167178572Y-80453571D01*
X166464286Y-81953571D02*
X166464286Y-80453571D01*
X165750000Y-81953571D02*
X165750000Y-80453571D01*
X164892857Y-81953571D01*
X164892857Y-80453571D01*
X163892857Y-80453571D02*
X163607143Y-80453571D01*
X163464285Y-80525000D01*
X163321428Y-80667857D01*
X163250000Y-80953571D01*
X163250000Y-81453571D01*
X163321428Y-81739286D01*
X163464285Y-81882143D01*
X163607143Y-81953571D01*
X163892857Y-81953571D01*
X164035714Y-81882143D01*
X164178571Y-81739286D01*
X164250000Y-81453571D01*
X164250000Y-80953571D01*
X164178571Y-80667857D01*
X164035714Y-80525000D01*
X163892857Y-80453571D01*
D12*
G36*
X169253464Y-69600427D02*
X169140882Y-70197618D01*
X168725469Y-70368865D01*
X168310055Y-70540112D01*
X167811698Y-70201233D01*
X167672131Y-70106877D01*
X167545971Y-70022630D01*
X167439104Y-69952338D01*
X167357417Y-69899847D01*
X167306798Y-69869004D01*
X167293013Y-69862353D01*
X167268179Y-69879458D01*
X167215111Y-69926744D01*
X167139759Y-69998172D01*
X167048070Y-70087700D01*
X166945992Y-70189289D01*
X166839473Y-70296898D01*
X166734463Y-70404487D01*
X166636908Y-70506015D01*
X166552757Y-70595441D01*
X166487959Y-70666726D01*
X166448462Y-70713828D01*
X166439019Y-70729592D01*
X166452608Y-70758653D01*
X166490706Y-70822321D01*
X166549306Y-70914367D01*
X166624402Y-71028564D01*
X166711991Y-71158684D01*
X166762745Y-71232901D01*
X166855254Y-71368422D01*
X166937459Y-71490716D01*
X167005369Y-71593695D01*
X167054999Y-71671273D01*
X167082359Y-71717361D01*
X167086470Y-71727047D01*
X167077150Y-71754574D01*
X167051745Y-71818728D01*
X167014088Y-71910490D01*
X166968013Y-72020839D01*
X166917353Y-72140755D01*
X166865940Y-72261219D01*
X166817610Y-72373209D01*
X166776193Y-72467707D01*
X166745525Y-72535692D01*
X166729438Y-72568143D01*
X166728488Y-72569420D01*
X166703227Y-72575617D01*
X166635954Y-72589440D01*
X166533639Y-72609532D01*
X166403258Y-72634534D01*
X166251783Y-72663086D01*
X166163406Y-72679551D01*
X166001547Y-72710369D01*
X165855350Y-72739694D01*
X165732212Y-72765921D01*
X165639530Y-72787446D01*
X165584698Y-72802665D01*
X165573676Y-72807493D01*
X165562881Y-72840174D01*
X165554170Y-72913985D01*
X165547539Y-73020292D01*
X165542981Y-73150467D01*
X165540490Y-73295876D01*
X165540061Y-73447890D01*
X165541688Y-73597877D01*
X165545364Y-73737206D01*
X165551084Y-73857245D01*
X165558842Y-73949365D01*
X165568631Y-74004932D01*
X165574503Y-74016500D01*
X165609600Y-74030365D01*
X165683971Y-74050188D01*
X165787776Y-74073639D01*
X165911180Y-74098391D01*
X165954258Y-74106398D01*
X166161952Y-74144441D01*
X166326015Y-74175079D01*
X166451869Y-74199529D01*
X166544934Y-74219009D01*
X166610632Y-74234736D01*
X166654382Y-74247928D01*
X166681607Y-74259804D01*
X166697727Y-74271580D01*
X166699982Y-74273908D01*
X166722496Y-74311400D01*
X166756841Y-74384365D01*
X166799588Y-74483867D01*
X166847307Y-74600973D01*
X166896569Y-74726748D01*
X166943944Y-74852257D01*
X166986004Y-74968565D01*
X167019319Y-75066739D01*
X167040458Y-75137843D01*
X167045994Y-75172942D01*
X167045533Y-75174172D01*
X167026776Y-75202861D01*
X166984223Y-75265985D01*
X166922346Y-75356973D01*
X166845617Y-75469255D01*
X166758508Y-75596260D01*
X166733701Y-75632353D01*
X166645247Y-75763203D01*
X166567411Y-75882591D01*
X166504433Y-75983662D01*
X166460554Y-76059559D01*
X166440014Y-76103427D01*
X166439019Y-76108817D01*
X166456277Y-76137144D01*
X166503964Y-76193261D01*
X166575949Y-76271137D01*
X166666102Y-76364740D01*
X166768294Y-76468041D01*
X166876394Y-76575006D01*
X166984271Y-76679606D01*
X167085795Y-76775809D01*
X167174837Y-76857584D01*
X167245266Y-76918900D01*
X167290952Y-76953726D01*
X167303590Y-76959412D01*
X167333008Y-76946020D01*
X167393238Y-76909899D01*
X167474470Y-76857136D01*
X167536969Y-76814667D01*
X167650214Y-76736740D01*
X167784325Y-76644984D01*
X167918844Y-76553375D01*
X167991166Y-76504346D01*
X168235961Y-76338770D01*
X168441449Y-76449875D01*
X168535063Y-76498548D01*
X168614669Y-76536381D01*
X168668532Y-76557958D01*
X168682242Y-76560961D01*
X168698729Y-76538793D01*
X168731254Y-76476149D01*
X168777391Y-76378809D01*
X168834709Y-76252549D01*
X168900783Y-76103150D01*
X168973184Y-75936388D01*
X169049483Y-75758042D01*
X169127253Y-75573891D01*
X169204065Y-75389712D01*
X169277493Y-75211285D01*
X169345107Y-75044387D01*
X169404479Y-74894797D01*
X169453183Y-74768293D01*
X169488789Y-74670654D01*
X169508869Y-74607657D01*
X169512099Y-74586021D01*
X169486503Y-74558424D01*
X169430461Y-74513625D01*
X169355688Y-74460934D01*
X169349412Y-74456765D01*
X169156154Y-74302069D01*
X169000325Y-74121591D01*
X168883275Y-73921102D01*
X168806354Y-73706374D01*
X168770913Y-73483177D01*
X168778302Y-73257281D01*
X168829872Y-73034459D01*
X168926973Y-72820479D01*
X168955541Y-72773664D01*
X169104131Y-72584618D01*
X169279672Y-72432812D01*
X169476089Y-72319034D01*
X169687306Y-72244075D01*
X169907246Y-72208722D01*
X170129836Y-72213767D01*
X170348998Y-72259999D01*
X170558657Y-72348206D01*
X170752738Y-72479179D01*
X170812773Y-72532337D01*
X170965564Y-72698739D01*
X171076902Y-72873912D01*
X171153276Y-73070266D01*
X171195812Y-73264717D01*
X171206313Y-73483342D01*
X171171299Y-73703052D01*
X171094326Y-73916420D01*
X170978952Y-74116022D01*
X170828734Y-74294429D01*
X170647226Y-74444217D01*
X170623372Y-74460006D01*
X170547798Y-74511712D01*
X170490348Y-74556512D01*
X170462882Y-74585117D01*
X170462482Y-74586021D01*
X170468379Y-74616964D01*
X170491754Y-74687191D01*
X170530178Y-74790925D01*
X170581222Y-74922390D01*
X170642457Y-75075807D01*
X170711455Y-75245401D01*
X170785786Y-75425393D01*
X170863021Y-75610008D01*
X170940731Y-75793468D01*
X171016488Y-75969996D01*
X171087862Y-76133814D01*
X171152425Y-76279147D01*
X171207747Y-76400217D01*
X171251399Y-76491247D01*
X171280953Y-76546460D01*
X171292855Y-76560961D01*
X171329222Y-76549669D01*
X171397269Y-76519385D01*
X171485263Y-76475520D01*
X171533649Y-76449875D01*
X171739136Y-76338770D01*
X171983931Y-76504346D01*
X172108893Y-76589170D01*
X172245704Y-76682516D01*
X172373911Y-76770408D01*
X172438128Y-76814667D01*
X172528448Y-76875318D01*
X172604928Y-76923381D01*
X172657592Y-76952770D01*
X172674697Y-76958982D01*
X172699594Y-76942223D01*
X172754694Y-76895436D01*
X172834656Y-76823480D01*
X172934139Y-76731212D01*
X173047799Y-76623490D01*
X173119684Y-76554326D01*
X173245448Y-76430757D01*
X173354136Y-76320234D01*
X173441354Y-76227485D01*
X173502710Y-76157237D01*
X173533808Y-76114220D01*
X173536791Y-76105490D01*
X173522946Y-76072284D01*
X173484687Y-76005142D01*
X173426258Y-75910863D01*
X173351902Y-75796245D01*
X173265864Y-75668083D01*
X173241397Y-75632353D01*
X173152245Y-75502489D01*
X173072261Y-75385569D01*
X173005919Y-75288162D01*
X172957688Y-75216839D01*
X172932042Y-75178170D01*
X172929564Y-75174172D01*
X172933270Y-75143355D01*
X172952938Y-75075599D01*
X172985139Y-74979839D01*
X173026444Y-74865009D01*
X173073424Y-74740044D01*
X173122650Y-74613879D01*
X173170691Y-74495448D01*
X173214118Y-74393685D01*
X173249503Y-74317526D01*
X173273415Y-74275904D01*
X173275115Y-74273908D01*
X173289737Y-74262013D01*
X173314434Y-74250250D01*
X173354627Y-74237401D01*
X173415736Y-74222249D01*
X173503182Y-74203576D01*
X173622387Y-74180165D01*
X173778772Y-74150797D01*
X173977756Y-74114255D01*
X174020839Y-74106398D01*
X174148529Y-74081727D01*
X174259846Y-74057593D01*
X174344954Y-74036324D01*
X174394016Y-74020248D01*
X174400594Y-74016500D01*
X174411435Y-73983273D01*
X174420246Y-73909021D01*
X174427023Y-73802376D01*
X174431759Y-73671967D01*
X174434449Y-73526427D01*
X174435086Y-73374386D01*
X174433665Y-73224476D01*
X174430179Y-73085328D01*
X174424623Y-72965572D01*
X174416991Y-72873841D01*
X174407277Y-72818766D01*
X174401421Y-72807493D01*
X174368819Y-72796123D01*
X174294581Y-72777624D01*
X174186103Y-72753602D01*
X174050782Y-72725662D01*
X173896014Y-72695408D01*
X173811692Y-72679551D01*
X173651703Y-72649644D01*
X173509032Y-72622550D01*
X173390651Y-72599631D01*
X173303534Y-72582243D01*
X173254654Y-72571747D01*
X173246609Y-72569420D01*
X173233012Y-72543186D01*
X173204270Y-72479995D01*
X173164214Y-72388877D01*
X173116675Y-72278857D01*
X173065484Y-72158965D01*
X173014473Y-72038227D01*
X172967473Y-71925671D01*
X172928315Y-71830326D01*
X172900830Y-71761217D01*
X172888850Y-71727374D01*
X172888627Y-71725895D01*
X172902208Y-71699197D01*
X172940284Y-71637760D01*
X172998852Y-71547689D01*
X173073911Y-71435090D01*
X173161459Y-71306070D01*
X173212352Y-71231961D01*
X173305090Y-71096077D01*
X173387458Y-70972709D01*
X173455438Y-70868097D01*
X173505011Y-70788483D01*
X173532157Y-70740107D01*
X173536078Y-70729262D01*
X173519224Y-70704020D01*
X173472631Y-70650124D01*
X173402251Y-70573613D01*
X173314034Y-70480523D01*
X173213934Y-70376895D01*
X173107901Y-70268764D01*
X173001888Y-70162170D01*
X172901847Y-70063150D01*
X172813729Y-69977742D01*
X172743486Y-69911985D01*
X172697071Y-69871916D01*
X172681543Y-69862353D01*
X172656260Y-69875800D01*
X172595788Y-69913575D01*
X172506007Y-69971835D01*
X172392796Y-70046734D01*
X172262036Y-70134425D01*
X172163400Y-70201233D01*
X171665042Y-70540112D01*
X171249629Y-70368865D01*
X170834215Y-70197618D01*
X170721633Y-69600427D01*
X170609050Y-69003235D01*
X169366047Y-69003235D01*
X169253464Y-69600427D01*
X169253464Y-69600427D01*
G37*
X169253464Y-69600427D02*
X169140882Y-70197618D01*
X168725469Y-70368865D01*
X168310055Y-70540112D01*
X167811698Y-70201233D01*
X167672131Y-70106877D01*
X167545971Y-70022630D01*
X167439104Y-69952338D01*
X167357417Y-69899847D01*
X167306798Y-69869004D01*
X167293013Y-69862353D01*
X167268179Y-69879458D01*
X167215111Y-69926744D01*
X167139759Y-69998172D01*
X167048070Y-70087700D01*
X166945992Y-70189289D01*
X166839473Y-70296898D01*
X166734463Y-70404487D01*
X166636908Y-70506015D01*
X166552757Y-70595441D01*
X166487959Y-70666726D01*
X166448462Y-70713828D01*
X166439019Y-70729592D01*
X166452608Y-70758653D01*
X166490706Y-70822321D01*
X166549306Y-70914367D01*
X166624402Y-71028564D01*
X166711991Y-71158684D01*
X166762745Y-71232901D01*
X166855254Y-71368422D01*
X166937459Y-71490716D01*
X167005369Y-71593695D01*
X167054999Y-71671273D01*
X167082359Y-71717361D01*
X167086470Y-71727047D01*
X167077150Y-71754574D01*
X167051745Y-71818728D01*
X167014088Y-71910490D01*
X166968013Y-72020839D01*
X166917353Y-72140755D01*
X166865940Y-72261219D01*
X166817610Y-72373209D01*
X166776193Y-72467707D01*
X166745525Y-72535692D01*
X166729438Y-72568143D01*
X166728488Y-72569420D01*
X166703227Y-72575617D01*
X166635954Y-72589440D01*
X166533639Y-72609532D01*
X166403258Y-72634534D01*
X166251783Y-72663086D01*
X166163406Y-72679551D01*
X166001547Y-72710369D01*
X165855350Y-72739694D01*
X165732212Y-72765921D01*
X165639530Y-72787446D01*
X165584698Y-72802665D01*
X165573676Y-72807493D01*
X165562881Y-72840174D01*
X165554170Y-72913985D01*
X165547539Y-73020292D01*
X165542981Y-73150467D01*
X165540490Y-73295876D01*
X165540061Y-73447890D01*
X165541688Y-73597877D01*
X165545364Y-73737206D01*
X165551084Y-73857245D01*
X165558842Y-73949365D01*
X165568631Y-74004932D01*
X165574503Y-74016500D01*
X165609600Y-74030365D01*
X165683971Y-74050188D01*
X165787776Y-74073639D01*
X165911180Y-74098391D01*
X165954258Y-74106398D01*
X166161952Y-74144441D01*
X166326015Y-74175079D01*
X166451869Y-74199529D01*
X166544934Y-74219009D01*
X166610632Y-74234736D01*
X166654382Y-74247928D01*
X166681607Y-74259804D01*
X166697727Y-74271580D01*
X166699982Y-74273908D01*
X166722496Y-74311400D01*
X166756841Y-74384365D01*
X166799588Y-74483867D01*
X166847307Y-74600973D01*
X166896569Y-74726748D01*
X166943944Y-74852257D01*
X166986004Y-74968565D01*
X167019319Y-75066739D01*
X167040458Y-75137843D01*
X167045994Y-75172942D01*
X167045533Y-75174172D01*
X167026776Y-75202861D01*
X166984223Y-75265985D01*
X166922346Y-75356973D01*
X166845617Y-75469255D01*
X166758508Y-75596260D01*
X166733701Y-75632353D01*
X166645247Y-75763203D01*
X166567411Y-75882591D01*
X166504433Y-75983662D01*
X166460554Y-76059559D01*
X166440014Y-76103427D01*
X166439019Y-76108817D01*
X166456277Y-76137144D01*
X166503964Y-76193261D01*
X166575949Y-76271137D01*
X166666102Y-76364740D01*
X166768294Y-76468041D01*
X166876394Y-76575006D01*
X166984271Y-76679606D01*
X167085795Y-76775809D01*
X167174837Y-76857584D01*
X167245266Y-76918900D01*
X167290952Y-76953726D01*
X167303590Y-76959412D01*
X167333008Y-76946020D01*
X167393238Y-76909899D01*
X167474470Y-76857136D01*
X167536969Y-76814667D01*
X167650214Y-76736740D01*
X167784325Y-76644984D01*
X167918844Y-76553375D01*
X167991166Y-76504346D01*
X168235961Y-76338770D01*
X168441449Y-76449875D01*
X168535063Y-76498548D01*
X168614669Y-76536381D01*
X168668532Y-76557958D01*
X168682242Y-76560961D01*
X168698729Y-76538793D01*
X168731254Y-76476149D01*
X168777391Y-76378809D01*
X168834709Y-76252549D01*
X168900783Y-76103150D01*
X168973184Y-75936388D01*
X169049483Y-75758042D01*
X169127253Y-75573891D01*
X169204065Y-75389712D01*
X169277493Y-75211285D01*
X169345107Y-75044387D01*
X169404479Y-74894797D01*
X169453183Y-74768293D01*
X169488789Y-74670654D01*
X169508869Y-74607657D01*
X169512099Y-74586021D01*
X169486503Y-74558424D01*
X169430461Y-74513625D01*
X169355688Y-74460934D01*
X169349412Y-74456765D01*
X169156154Y-74302069D01*
X169000325Y-74121591D01*
X168883275Y-73921102D01*
X168806354Y-73706374D01*
X168770913Y-73483177D01*
X168778302Y-73257281D01*
X168829872Y-73034459D01*
X168926973Y-72820479D01*
X168955541Y-72773664D01*
X169104131Y-72584618D01*
X169279672Y-72432812D01*
X169476089Y-72319034D01*
X169687306Y-72244075D01*
X169907246Y-72208722D01*
X170129836Y-72213767D01*
X170348998Y-72259999D01*
X170558657Y-72348206D01*
X170752738Y-72479179D01*
X170812773Y-72532337D01*
X170965564Y-72698739D01*
X171076902Y-72873912D01*
X171153276Y-73070266D01*
X171195812Y-73264717D01*
X171206313Y-73483342D01*
X171171299Y-73703052D01*
X171094326Y-73916420D01*
X170978952Y-74116022D01*
X170828734Y-74294429D01*
X170647226Y-74444217D01*
X170623372Y-74460006D01*
X170547798Y-74511712D01*
X170490348Y-74556512D01*
X170462882Y-74585117D01*
X170462482Y-74586021D01*
X170468379Y-74616964D01*
X170491754Y-74687191D01*
X170530178Y-74790925D01*
X170581222Y-74922390D01*
X170642457Y-75075807D01*
X170711455Y-75245401D01*
X170785786Y-75425393D01*
X170863021Y-75610008D01*
X170940731Y-75793468D01*
X171016488Y-75969996D01*
X171087862Y-76133814D01*
X171152425Y-76279147D01*
X171207747Y-76400217D01*
X171251399Y-76491247D01*
X171280953Y-76546460D01*
X171292855Y-76560961D01*
X171329222Y-76549669D01*
X171397269Y-76519385D01*
X171485263Y-76475520D01*
X171533649Y-76449875D01*
X171739136Y-76338770D01*
X171983931Y-76504346D01*
X172108893Y-76589170D01*
X172245704Y-76682516D01*
X172373911Y-76770408D01*
X172438128Y-76814667D01*
X172528448Y-76875318D01*
X172604928Y-76923381D01*
X172657592Y-76952770D01*
X172674697Y-76958982D01*
X172699594Y-76942223D01*
X172754694Y-76895436D01*
X172834656Y-76823480D01*
X172934139Y-76731212D01*
X173047799Y-76623490D01*
X173119684Y-76554326D01*
X173245448Y-76430757D01*
X173354136Y-76320234D01*
X173441354Y-76227485D01*
X173502710Y-76157237D01*
X173533808Y-76114220D01*
X173536791Y-76105490D01*
X173522946Y-76072284D01*
X173484687Y-76005142D01*
X173426258Y-75910863D01*
X173351902Y-75796245D01*
X173265864Y-75668083D01*
X173241397Y-75632353D01*
X173152245Y-75502489D01*
X173072261Y-75385569D01*
X173005919Y-75288162D01*
X172957688Y-75216839D01*
X172932042Y-75178170D01*
X172929564Y-75174172D01*
X172933270Y-75143355D01*
X172952938Y-75075599D01*
X172985139Y-74979839D01*
X173026444Y-74865009D01*
X173073424Y-74740044D01*
X173122650Y-74613879D01*
X173170691Y-74495448D01*
X173214118Y-74393685D01*
X173249503Y-74317526D01*
X173273415Y-74275904D01*
X173275115Y-74273908D01*
X173289737Y-74262013D01*
X173314434Y-74250250D01*
X173354627Y-74237401D01*
X173415736Y-74222249D01*
X173503182Y-74203576D01*
X173622387Y-74180165D01*
X173778772Y-74150797D01*
X173977756Y-74114255D01*
X174020839Y-74106398D01*
X174148529Y-74081727D01*
X174259846Y-74057593D01*
X174344954Y-74036324D01*
X174394016Y-74020248D01*
X174400594Y-74016500D01*
X174411435Y-73983273D01*
X174420246Y-73909021D01*
X174427023Y-73802376D01*
X174431759Y-73671967D01*
X174434449Y-73526427D01*
X174435086Y-73374386D01*
X174433665Y-73224476D01*
X174430179Y-73085328D01*
X174424623Y-72965572D01*
X174416991Y-72873841D01*
X174407277Y-72818766D01*
X174401421Y-72807493D01*
X174368819Y-72796123D01*
X174294581Y-72777624D01*
X174186103Y-72753602D01*
X174050782Y-72725662D01*
X173896014Y-72695408D01*
X173811692Y-72679551D01*
X173651703Y-72649644D01*
X173509032Y-72622550D01*
X173390651Y-72599631D01*
X173303534Y-72582243D01*
X173254654Y-72571747D01*
X173246609Y-72569420D01*
X173233012Y-72543186D01*
X173204270Y-72479995D01*
X173164214Y-72388877D01*
X173116675Y-72278857D01*
X173065484Y-72158965D01*
X173014473Y-72038227D01*
X172967473Y-71925671D01*
X172928315Y-71830326D01*
X172900830Y-71761217D01*
X172888850Y-71727374D01*
X172888627Y-71725895D01*
X172902208Y-71699197D01*
X172940284Y-71637760D01*
X172998852Y-71547689D01*
X173073911Y-71435090D01*
X173161459Y-71306070D01*
X173212352Y-71231961D01*
X173305090Y-71096077D01*
X173387458Y-70972709D01*
X173455438Y-70868097D01*
X173505011Y-70788483D01*
X173532157Y-70740107D01*
X173536078Y-70729262D01*
X173519224Y-70704020D01*
X173472631Y-70650124D01*
X173402251Y-70573613D01*
X173314034Y-70480523D01*
X173213934Y-70376895D01*
X173107901Y-70268764D01*
X173001888Y-70162170D01*
X172901847Y-70063150D01*
X172813729Y-69977742D01*
X172743486Y-69911985D01*
X172697071Y-69871916D01*
X172681543Y-69862353D01*
X172656260Y-69875800D01*
X172595788Y-69913575D01*
X172506007Y-69971835D01*
X172392796Y-70046734D01*
X172262036Y-70134425D01*
X172163400Y-70201233D01*
X171665042Y-70540112D01*
X171249629Y-70368865D01*
X170834215Y-70197618D01*
X170721633Y-69600427D01*
X170609050Y-69003235D01*
X169366047Y-69003235D01*
X169253464Y-69600427D01*
D13*
X120900000Y-74500000D03*
X120900000Y-76400000D03*
X116900000Y-74500000D03*
X116900000Y-76400000D03*
D14*
X108270000Y-67310000D03*
X110810000Y-67310000D03*
X113350000Y-67310000D03*
X115890000Y-67310000D03*
X118430000Y-67310000D03*
X120970000Y-67310000D03*
X123510000Y-67310000D03*
X126050000Y-67310000D03*
X128590000Y-67310000D03*
X131130000Y-67310000D03*
X133670000Y-67310000D03*
X136210000Y-67310000D03*
X138750000Y-67310000D03*
X141290000Y-67310000D03*
X143830000Y-67310000D03*
X146370000Y-67310000D03*
X148910000Y-67310000D03*
X151450000Y-67310000D03*
X153990000Y-67310000D03*
X156530000Y-67310000D03*
X156530000Y-52070000D03*
X153990000Y-52070000D03*
X151450000Y-52070000D03*
X148910000Y-52070000D03*
X146370000Y-52070000D03*
X143830000Y-52070000D03*
X141290000Y-52070000D03*
X138750000Y-52070000D03*
X136210000Y-52070000D03*
X133670000Y-52070000D03*
X131130000Y-52070000D03*
X128590000Y-52070000D03*
X126050000Y-52070000D03*
X123510000Y-52070000D03*
X120970000Y-52070000D03*
X118430000Y-52070000D03*
X115890000Y-52070000D03*
X113350000Y-52070000D03*
X110810000Y-52070000D03*
X108270000Y-52070000D03*
D15*
X130400000Y-78800000D03*
X130400000Y-81000000D03*
D13*
X109410000Y-74500000D03*
X109410000Y-76400000D03*
D15*
X109410000Y-78800000D03*
X109410000Y-81000000D03*
X116900000Y-78800000D03*
X116900000Y-81000000D03*
X132900000Y-78800000D03*
X132900000Y-81000000D03*
D13*
X130400000Y-74500000D03*
X130400000Y-76400000D03*
X132900000Y-74500000D03*
X132900000Y-76400000D03*
X150300000Y-74500000D03*
X150300000Y-76400000D03*
D15*
X150300000Y-78750000D03*
X150300000Y-80950000D03*
D13*
X113154999Y-74500000D03*
X113154999Y-76400000D03*
D16*
X113920000Y-46000000D03*
D17*
X116460000Y-46000000D03*
X119000000Y-46000000D03*
X121540000Y-46000000D03*
D16*
X182880000Y-46990000D03*
D17*
X182880000Y-49530000D03*
X180340000Y-46990000D03*
X180340000Y-49530000D03*
X177800000Y-46990000D03*
X177800000Y-49530000D03*
X175260000Y-46990000D03*
X175260000Y-49530000D03*
X172720000Y-46990000D03*
X172720000Y-49530000D03*
X170180000Y-46990000D03*
X170180000Y-49530000D03*
X167640000Y-46990000D03*
X167640000Y-49530000D03*
D15*
X113150000Y-78800000D03*
X113150000Y-81000000D03*
X120900000Y-78800000D03*
X120900000Y-81000000D03*
D16*
X139400000Y-46000000D03*
D17*
X141940000Y-46000000D03*
X144480000Y-46000000D03*
D16*
X145580000Y-73500000D03*
D17*
X143040000Y-73500000D03*
X140500000Y-73500000D03*
X137960000Y-73500000D03*
D18*
X140500000Y-75500000D03*
X106250000Y-64250000D03*
D19*
X132900000Y-81000000D02*
X143000000Y-81000000D01*
X143000000Y-81000000D02*
X150250000Y-81000000D01*
X143040000Y-73500000D02*
X143040000Y-80960000D01*
X143040000Y-80960000D02*
X143000000Y-81000000D01*
X150250000Y-81000000D02*
X150300000Y-80950000D01*
X130400000Y-81000000D02*
X132900000Y-81000000D01*
X120900000Y-81000000D02*
X130400000Y-81000000D01*
X116900000Y-81000000D02*
X120900000Y-81000000D01*
X113150000Y-81000000D02*
X116900000Y-81000000D01*
X109410000Y-81000000D02*
X113150000Y-81000000D01*
X146370000Y-67310000D02*
X147880000Y-65800000D01*
X147880000Y-65800000D02*
X169900000Y-65800000D01*
X169900000Y-65800000D02*
X180300000Y-55400000D01*
X180300000Y-55400000D02*
X180300000Y-49570000D01*
X180300000Y-49570000D02*
X180340000Y-49530000D01*
X151450000Y-52070000D02*
X159020000Y-44500000D01*
X159020000Y-44500000D02*
X177850000Y-44500000D01*
X177850000Y-44500000D02*
X179490001Y-46140001D01*
X179490001Y-46140001D02*
X180340000Y-46990000D01*
X177800000Y-49530000D02*
X177800000Y-57200000D01*
X177800000Y-57200000D02*
X169650010Y-65349990D01*
X169650010Y-65349990D02*
X145790010Y-65349990D01*
X145790010Y-65349990D02*
X144591999Y-66548001D01*
X144591999Y-66548001D02*
X143830000Y-67310000D01*
X175260000Y-49530000D02*
X175260000Y-59040000D01*
X175260000Y-59040000D02*
X169500000Y-64800000D01*
X169500000Y-64800000D02*
X141260000Y-64800000D01*
X141260000Y-64800000D02*
X139511999Y-66548001D01*
X139511999Y-66548001D02*
X138750000Y-67310000D01*
X175260000Y-46990000D02*
X174000000Y-48250000D01*
X174000000Y-48250000D02*
X174000000Y-59500000D01*
X174000000Y-59500000D02*
X169150010Y-64349990D01*
X169150010Y-64349990D02*
X134090010Y-64349990D01*
X134090010Y-64349990D02*
X131891999Y-66548001D01*
X131891999Y-66548001D02*
X131130000Y-67310000D01*
X130400000Y-74500000D02*
X131300000Y-74500000D01*
X131300000Y-74500000D02*
X132300000Y-75500000D01*
X132300000Y-75500000D02*
X140500000Y-75500000D01*
X130400000Y-74500000D02*
X127400000Y-71500000D01*
X127400000Y-71500000D02*
X117540000Y-71500000D01*
X117540000Y-71500000D02*
X114111999Y-68071999D01*
X114111999Y-68071999D02*
X113350000Y-67310000D01*
X116900000Y-74500000D02*
X115460000Y-74500000D01*
X115460000Y-74500000D02*
X108270000Y-67310000D01*
X109410000Y-74500000D02*
X109110000Y-74500000D01*
X109110000Y-74500000D02*
X106250000Y-71640000D01*
X106250000Y-71640000D02*
X106250000Y-64250000D01*
X132900000Y-74500000D02*
X132900000Y-73900000D01*
X132900000Y-73900000D02*
X130000000Y-71000000D01*
X130000000Y-71000000D02*
X119580000Y-71000000D01*
X119580000Y-71000000D02*
X116651999Y-68071999D01*
X116651999Y-68071999D02*
X115890000Y-67310000D01*
X120900000Y-74500000D02*
X120900000Y-73650000D01*
X120900000Y-73650000D02*
X119250000Y-72000000D01*
X119250000Y-72000000D02*
X116000000Y-72000000D01*
X112000000Y-68000000D02*
X112000000Y-66120000D01*
X116000000Y-72000000D02*
X112000000Y-68000000D01*
X112000000Y-66120000D02*
X125288001Y-52831999D01*
X125288001Y-52831999D02*
X126050000Y-52070000D01*
X113154999Y-74500000D02*
X113154999Y-74404999D01*
X113154999Y-74404999D02*
X106750000Y-68000000D01*
X106750000Y-68000000D02*
X106750000Y-66250000D01*
X106750000Y-66250000D02*
X119842999Y-53157001D01*
X119842999Y-53157001D02*
X122422999Y-53157001D01*
X122422999Y-53157001D02*
X122748001Y-52831999D01*
X122748001Y-52831999D02*
X123510000Y-52070000D01*
X109410000Y-78800000D02*
X109410000Y-76400000D01*
X113150000Y-78800000D02*
X113150000Y-76404999D01*
X113150000Y-76404999D02*
X113154999Y-76400000D01*
X116900000Y-78800000D02*
X116900000Y-76400000D01*
X130400000Y-78800000D02*
X130400000Y-76400000D01*
X132900000Y-78800000D02*
X132900000Y-76400000D01*
X120900000Y-78800000D02*
X120900000Y-76400000D01*
X150300000Y-78750000D02*
X150300000Y-76400000D01*
X156530000Y-67310000D02*
X169190000Y-67310000D01*
X169190000Y-67310000D02*
X184900000Y-51600000D01*
X184900000Y-51600000D02*
X184900000Y-47910000D01*
X184900000Y-47910000D02*
X183980000Y-46990000D01*
X183980000Y-46990000D02*
X182880000Y-46990000D01*
X145580000Y-73500000D02*
X149900000Y-73500000D01*
X149900000Y-73500000D02*
X150300000Y-73900000D01*
X150300000Y-73900000D02*
X150300000Y-74500000D01*
X121540000Y-46000000D02*
X118430000Y-49110000D01*
X118430000Y-49110000D02*
X118430000Y-52070000D01*
X140500000Y-73500000D02*
X137100000Y-70100000D01*
X137100000Y-70100000D02*
X126300000Y-70100000D01*
X126300000Y-70100000D02*
X124271999Y-68071999D01*
X124271999Y-68071999D02*
X123510000Y-67310000D01*
X137960000Y-73500000D02*
X135010000Y-70550000D01*
X135010000Y-70550000D02*
X124210000Y-70550000D01*
X124210000Y-70550000D02*
X121731999Y-68071999D01*
X121731999Y-68071999D02*
X120970000Y-67310000D01*
D20*
G36*
X187250000Y-83110000D02*
X180813571Y-83110000D01*
X180813571Y-80442619D01*
X181764613Y-80442619D01*
X182104155Y-81264372D01*
X182732321Y-81893636D01*
X183553481Y-82234611D01*
X184442619Y-82235387D01*
X185264372Y-81895845D01*
X185893636Y-81267679D01*
X186234611Y-80446519D01*
X186235387Y-79557381D01*
X185895845Y-78735628D01*
X185267679Y-78106364D01*
X184446519Y-77765389D01*
X183557381Y-77764613D01*
X182735628Y-78104155D01*
X182106364Y-78732321D01*
X181765389Y-79553481D01*
X181764613Y-80442619D01*
X180813571Y-80442619D01*
X180813571Y-76890000D01*
X173691219Y-76890000D01*
X173693995Y-76887272D01*
X173697144Y-76882648D01*
X173701769Y-76879501D01*
X173810457Y-76768978D01*
X173814449Y-76762894D01*
X173820373Y-76758667D01*
X173907591Y-76665918D01*
X173913920Y-76655785D01*
X173923380Y-76648496D01*
X173984736Y-76578249D01*
X173999565Y-76552444D01*
X174021372Y-76532190D01*
X174052470Y-76489173D01*
X174090145Y-76406936D01*
X174128642Y-76349031D01*
X174131398Y-76335003D01*
X174139429Y-76321158D01*
X174142412Y-76312427D01*
X174146108Y-76284783D01*
X174156478Y-76262148D01*
X174158968Y-76194697D01*
X174176789Y-76104000D01*
X174172877Y-76084567D01*
X174175504Y-76064915D01*
X174165190Y-76026112D01*
X174165689Y-76012602D01*
X174155966Y-75986439D01*
X174149431Y-75966821D01*
X174148357Y-75962781D01*
X174127502Y-75859197D01*
X174113657Y-75825991D01*
X174091544Y-75793062D01*
X174079006Y-75755428D01*
X174040747Y-75688287D01*
X174032893Y-75679229D01*
X174028687Y-75668001D01*
X173970258Y-75573722D01*
X173965666Y-75568804D01*
X173963174Y-75562550D01*
X173888818Y-75447932D01*
X173885240Y-75444256D01*
X173883269Y-75439526D01*
X173797232Y-75311364D01*
X173795103Y-75309244D01*
X173793922Y-75306482D01*
X173769455Y-75270752D01*
X173769181Y-75270484D01*
X173769030Y-75270132D01*
X173680206Y-75140747D01*
X173632649Y-75071229D01*
X173671094Y-74968967D01*
X173717300Y-74850544D01*
X173733516Y-74810566D01*
X173743135Y-74808677D01*
X173895617Y-74780042D01*
X174093118Y-74743773D01*
X174135662Y-74736014D01*
X174138836Y-74734758D01*
X174142248Y-74734777D01*
X174269939Y-74710106D01*
X174276765Y-74707322D01*
X174284133Y-74707196D01*
X174395450Y-74683062D01*
X174404815Y-74678993D01*
X174415014Y-74678498D01*
X174500122Y-74657229D01*
X174521150Y-74647298D01*
X174544236Y-74644507D01*
X174593298Y-74628431D01*
X174643057Y-74600402D01*
X174690451Y-74587098D01*
X174699239Y-74580188D01*
X174710853Y-74576319D01*
X174717431Y-74572570D01*
X174763742Y-74532421D01*
X174810870Y-74505874D01*
X174838432Y-74470733D01*
X174886746Y-74432741D01*
X174894362Y-74419181D01*
X174906112Y-74408994D01*
X174940024Y-74341204D01*
X174964980Y-74309385D01*
X174968158Y-74298007D01*
X174969738Y-74296159D01*
X174978384Y-74269577D01*
X175009028Y-74215014D01*
X175019869Y-74181787D01*
X175027389Y-74118910D01*
X175046976Y-74058689D01*
X175055787Y-73984436D01*
X175054401Y-73966753D01*
X175058958Y-73949609D01*
X175065735Y-73842965D01*
X175064564Y-73834202D01*
X175066601Y-73825603D01*
X175071337Y-73695194D01*
X175070412Y-73689466D01*
X175071650Y-73683794D01*
X175074340Y-73538254D01*
X175073516Y-73533669D01*
X175074443Y-73529108D01*
X175075080Y-73377068D01*
X175074230Y-73372697D01*
X175075057Y-73368320D01*
X175073636Y-73218410D01*
X175072599Y-73213445D01*
X175073464Y-73208448D01*
X175069978Y-73069299D01*
X175068454Y-73062529D01*
X175069491Y-73055668D01*
X175063935Y-72935912D01*
X175061071Y-72924346D01*
X175062419Y-72912508D01*
X175054787Y-72820776D01*
X175046617Y-72792296D01*
X175047262Y-72762675D01*
X175037548Y-72707600D01*
X175002327Y-72617041D01*
X174985527Y-72559218D01*
X174977753Y-72529210D01*
X174976217Y-72527173D01*
X174975218Y-72523736D01*
X174969363Y-72512464D01*
X174954379Y-72493762D01*
X174947031Y-72474868D01*
X174899298Y-72425011D01*
X174897041Y-72422193D01*
X174827388Y-72329840D01*
X174819181Y-72325010D01*
X174813228Y-72317580D01*
X174777798Y-72298103D01*
X174774340Y-72294491D01*
X174758758Y-72287636D01*
X174751084Y-72283417D01*
X174749436Y-72281603D01*
X174737836Y-72276134D01*
X174711875Y-72261862D01*
X174612173Y-72203189D01*
X174579571Y-72191819D01*
X174550300Y-72187717D01*
X174523565Y-72175113D01*
X174449327Y-72156614D01*
X174440783Y-72156205D01*
X174432954Y-72152762D01*
X174324476Y-72128740D01*
X174319811Y-72128639D01*
X174315515Y-72126823D01*
X174180194Y-72098883D01*
X174176753Y-72098858D01*
X174173565Y-72097550D01*
X174018797Y-72067296D01*
X174016461Y-72067304D01*
X174014295Y-72066433D01*
X173929973Y-72050576D01*
X173929620Y-72050580D01*
X173929291Y-72050448D01*
X173770364Y-72020740D01*
X173696362Y-72006686D01*
X173654596Y-71908867D01*
X173605196Y-71791945D01*
X173690097Y-71666827D01*
X173739928Y-71594264D01*
X173740300Y-71593397D01*
X173740975Y-71592735D01*
X173833713Y-71456851D01*
X173835013Y-71453798D01*
X173837358Y-71451451D01*
X173919726Y-71328083D01*
X173921275Y-71324339D01*
X173924104Y-71321437D01*
X173992084Y-71216825D01*
X173994419Y-71210977D01*
X173998726Y-71206384D01*
X174048299Y-71126771D01*
X174053521Y-71112921D01*
X174063142Y-71101676D01*
X174090288Y-71053300D01*
X174106679Y-71003000D01*
X174134027Y-70957713D01*
X174137948Y-70946868D01*
X174145207Y-70899028D01*
X174163739Y-70854329D01*
X174163748Y-70827866D01*
X174167656Y-70815872D01*
X174164322Y-70773043D01*
X174175408Y-70699978D01*
X174163806Y-70653001D01*
X174163822Y-70604613D01*
X174148289Y-70567078D01*
X174148276Y-70566910D01*
X174147973Y-70566314D01*
X174134143Y-70532894D01*
X174126746Y-70502945D01*
X174126704Y-70502605D01*
X174126630Y-70502475D01*
X174115534Y-70457546D01*
X174086840Y-70418587D01*
X174068337Y-70373875D01*
X174051483Y-70348632D01*
X174023166Y-70320296D01*
X174003384Y-70285464D01*
X173956791Y-70231568D01*
X173948877Y-70225406D01*
X173943658Y-70216842D01*
X173873278Y-70140331D01*
X173869373Y-70137479D01*
X173866795Y-70133387D01*
X173778578Y-70040297D01*
X173776035Y-70038497D01*
X173774350Y-70035878D01*
X173674250Y-69932250D01*
X173672237Y-69930854D01*
X173670894Y-69928801D01*
X173564861Y-69820670D01*
X173562957Y-69819371D01*
X173561684Y-69817454D01*
X173455671Y-69710860D01*
X173453544Y-69709431D01*
X173452109Y-69707306D01*
X173352068Y-69608286D01*
X173349216Y-69606401D01*
X173347273Y-69603590D01*
X173259155Y-69518182D01*
X173254407Y-69515116D01*
X173251112Y-69510520D01*
X173180869Y-69444763D01*
X173169752Y-69437854D01*
X173161703Y-69427532D01*
X173115288Y-69387463D01*
X173094441Y-69375643D01*
X173088576Y-69368466D01*
X173061990Y-69354185D01*
X173032679Y-69326969D01*
X173017151Y-69317406D01*
X172943449Y-69290030D01*
X172898061Y-69264295D01*
X172893630Y-69263747D01*
X172868590Y-69250296D01*
X172824552Y-69245867D01*
X172783063Y-69230456D01*
X172701422Y-69233483D01*
X172620127Y-69225306D01*
X172577743Y-69238068D01*
X172533518Y-69239707D01*
X172459251Y-69273745D01*
X172381016Y-69297301D01*
X172355732Y-69310749D01*
X172338276Y-69325015D01*
X172317190Y-69333000D01*
X172256718Y-69370775D01*
X172252624Y-69374625D01*
X172247406Y-69376705D01*
X172157625Y-69434964D01*
X172155553Y-69436981D01*
X172152878Y-69438075D01*
X172039667Y-69512974D01*
X172038217Y-69514411D01*
X172036333Y-69515195D01*
X171905572Y-69602886D01*
X171904512Y-69603949D01*
X171903130Y-69604532D01*
X171804494Y-69671340D01*
X171804075Y-69671765D01*
X171803524Y-69671998D01*
X171590240Y-69817029D01*
X171493546Y-69777169D01*
X171398868Y-69738140D01*
X171350555Y-69481863D01*
X171350555Y-69481862D01*
X171237972Y-68884670D01*
X171213249Y-68823251D01*
X171200333Y-68758318D01*
X171167077Y-68708547D01*
X171144725Y-68653018D01*
X171098380Y-68605736D01*
X171061598Y-68550687D01*
X171011827Y-68517431D01*
X170969927Y-68474683D01*
X170909017Y-68448735D01*
X170853967Y-68411952D01*
X170795259Y-68400274D01*
X170740188Y-68376814D01*
X170673983Y-68376151D01*
X170609050Y-68363235D01*
X169366047Y-68363235D01*
X169301109Y-68376152D01*
X169234909Y-68376815D01*
X169179841Y-68400274D01*
X169121130Y-68411952D01*
X169066079Y-68448736D01*
X169005170Y-68474683D01*
X168963270Y-68517431D01*
X168913499Y-68550687D01*
X168876717Y-68605736D01*
X168830372Y-68653018D01*
X168808020Y-68708547D01*
X168774764Y-68758318D01*
X168761848Y-68823252D01*
X168737125Y-68884671D01*
X168624542Y-69481862D01*
X168624542Y-69481863D01*
X168576229Y-69738140D01*
X168481556Y-69777167D01*
X168481553Y-69777168D01*
X168384857Y-69817029D01*
X168171574Y-69671998D01*
X168170766Y-69671655D01*
X168170148Y-69671031D01*
X168030581Y-69576675D01*
X168028865Y-69575953D01*
X168027549Y-69574638D01*
X167901389Y-69490391D01*
X167899289Y-69489522D01*
X167897672Y-69487928D01*
X167790805Y-69417636D01*
X167787587Y-69416330D01*
X167785086Y-69413917D01*
X167703399Y-69361427D01*
X167696157Y-69358578D01*
X167690430Y-69353311D01*
X167639812Y-69322468D01*
X167610142Y-69311608D01*
X167584908Y-69292588D01*
X167571123Y-69285937D01*
X167488399Y-69264533D01*
X167409006Y-69232952D01*
X167368546Y-69233523D01*
X167329368Y-69223386D01*
X167244751Y-69235269D01*
X167159315Y-69236474D01*
X167122151Y-69252486D01*
X167082079Y-69258113D01*
X167008454Y-69301470D01*
X166929979Y-69335280D01*
X166905145Y-69352385D01*
X166882578Y-69375597D01*
X166866902Y-69384829D01*
X166863653Y-69389139D01*
X166842411Y-69401628D01*
X166789343Y-69448914D01*
X166783303Y-69456916D01*
X166774818Y-69462263D01*
X166699466Y-69533691D01*
X166696679Y-69537629D01*
X166692639Y-69540260D01*
X166600950Y-69629788D01*
X166599195Y-69632348D01*
X166596610Y-69634066D01*
X166494532Y-69735655D01*
X166493170Y-69737683D01*
X166491146Y-69739050D01*
X166384627Y-69846659D01*
X166383361Y-69848575D01*
X166381468Y-69849873D01*
X166276459Y-69957461D01*
X166275068Y-69959598D01*
X166272975Y-69961058D01*
X166175420Y-70062586D01*
X166173588Y-70065450D01*
X166170822Y-70067422D01*
X166086671Y-70156848D01*
X166083692Y-70161614D01*
X166079173Y-70164955D01*
X166014376Y-70236239D01*
X166007682Y-70247371D01*
X165997556Y-70255503D01*
X165958059Y-70302604D01*
X165933596Y-70347229D01*
X165899430Y-70384945D01*
X165889987Y-70400709D01*
X165869262Y-70458679D01*
X165837384Y-70511339D01*
X165827639Y-70575105D01*
X165805922Y-70635849D01*
X165808959Y-70697333D01*
X165799658Y-70758189D01*
X165815058Y-70820835D01*
X165818240Y-70885261D01*
X165844574Y-70940902D01*
X165859270Y-71000684D01*
X165872859Y-71029745D01*
X165892354Y-71056273D01*
X165903422Y-71087278D01*
X165941520Y-71150946D01*
X165947566Y-71157627D01*
X165950830Y-71166027D01*
X166009430Y-71258073D01*
X166012758Y-71261551D01*
X166014567Y-71266012D01*
X166089663Y-71380209D01*
X166092126Y-71382709D01*
X166093481Y-71385948D01*
X166181071Y-71516068D01*
X166182768Y-71517754D01*
X166183708Y-71519955D01*
X166234156Y-71593725D01*
X166325387Y-71727374D01*
X166369499Y-71792998D01*
X166328224Y-71890698D01*
X166278697Y-72006742D01*
X166133706Y-72034072D01*
X166046188Y-72050377D01*
X166044989Y-72050857D01*
X166043701Y-72050846D01*
X165881841Y-72081664D01*
X165878878Y-72082863D01*
X165875679Y-72082868D01*
X165729482Y-72112193D01*
X165725902Y-72113683D01*
X165722028Y-72113735D01*
X165598890Y-72139962D01*
X165593402Y-72142323D01*
X165587428Y-72142513D01*
X165494746Y-72164038D01*
X165482151Y-72169732D01*
X165468364Y-72170759D01*
X165413532Y-72185978D01*
X165372639Y-72206601D01*
X165327912Y-72216439D01*
X165316890Y-72221267D01*
X165302645Y-72231207D01*
X165285904Y-72235840D01*
X165233387Y-72276828D01*
X165190566Y-72298423D01*
X165166856Y-72325952D01*
X165112098Y-72364159D01*
X165102742Y-72378792D01*
X165089047Y-72389480D01*
X165044679Y-72467808D01*
X165027603Y-72487634D01*
X165021707Y-72505526D01*
X165017080Y-72512763D01*
X165004379Y-72527644D01*
X165001095Y-72537763D01*
X164977577Y-72574544D01*
X164974532Y-72591645D01*
X164965971Y-72606759D01*
X164955176Y-72639440D01*
X164947260Y-72703638D01*
X164927292Y-72765164D01*
X164918581Y-72838974D01*
X164919992Y-72856826D01*
X164915411Y-72874141D01*
X164908780Y-72980449D01*
X164909967Y-72989252D01*
X164907931Y-72997896D01*
X164903373Y-73128072D01*
X164904308Y-73133817D01*
X164903075Y-73139505D01*
X164900584Y-73284914D01*
X164901415Y-73289501D01*
X164900493Y-73294069D01*
X164900064Y-73446084D01*
X164900920Y-73450454D01*
X164900099Y-73454832D01*
X164901726Y-73604819D01*
X164902767Y-73609770D01*
X164901911Y-73614757D01*
X164905587Y-73754085D01*
X164907114Y-73760827D01*
X164906089Y-73767668D01*
X164911809Y-73887707D01*
X164914668Y-73899194D01*
X164913342Y-73910953D01*
X164921100Y-74003073D01*
X164929190Y-74031169D01*
X164928548Y-74060401D01*
X164938337Y-74115969D01*
X164972493Y-74203840D01*
X164973812Y-74208547D01*
X164987334Y-74271121D01*
X164994096Y-74280889D01*
X164997945Y-74294616D01*
X165003817Y-74306184D01*
X165020550Y-74327476D01*
X165028807Y-74348719D01*
X165073074Y-74394976D01*
X165129469Y-74476440D01*
X165145980Y-74487083D01*
X165158115Y-74502525D01*
X165196810Y-74524273D01*
X165201460Y-74529132D01*
X165219169Y-74536928D01*
X165220660Y-74538623D01*
X165234069Y-74545214D01*
X165250381Y-74554382D01*
X165339356Y-74611736D01*
X165374453Y-74625601D01*
X165411224Y-74632288D01*
X165444768Y-74648775D01*
X165519139Y-74668598D01*
X165531565Y-74669396D01*
X165542940Y-74674456D01*
X165646745Y-74697907D01*
X165654631Y-74698111D01*
X165661914Y-74701141D01*
X165785318Y-74725893D01*
X165789936Y-74725900D01*
X165794225Y-74727614D01*
X165837303Y-74735621D01*
X165838155Y-74735610D01*
X165838949Y-74735925D01*
X166045703Y-74773796D01*
X166206238Y-74803775D01*
X166241655Y-74810656D01*
X166252982Y-74838453D01*
X166299219Y-74956504D01*
X166342497Y-75071161D01*
X166317575Y-75107631D01*
X166231074Y-75233750D01*
X166206267Y-75269843D01*
X166205273Y-75272156D01*
X166203482Y-75273928D01*
X166115029Y-75404778D01*
X166112923Y-75409786D01*
X166109123Y-75413673D01*
X166031287Y-75533061D01*
X166028801Y-75539261D01*
X166024230Y-75544132D01*
X165961252Y-75645203D01*
X165957457Y-75655259D01*
X165950366Y-75663335D01*
X165906487Y-75739231D01*
X165897494Y-75765673D01*
X165880943Y-75788171D01*
X165860403Y-75832040D01*
X165843366Y-75901194D01*
X165817092Y-75957800D01*
X165816471Y-75972619D01*
X165810648Y-75987245D01*
X165809653Y-75992635D01*
X165810246Y-76035626D01*
X165800668Y-76074505D01*
X165809715Y-76133906D01*
X165806641Y-76207297D01*
X165812851Y-76224264D01*
X165813100Y-76242327D01*
X165833417Y-76289523D01*
X165838268Y-76321374D01*
X165863913Y-76363786D01*
X165892465Y-76441801D01*
X165909723Y-76470128D01*
X165943969Y-76507369D01*
X165968582Y-76551576D01*
X166016269Y-76607693D01*
X166026902Y-76616118D01*
X166033989Y-76627684D01*
X166105974Y-76705561D01*
X166111378Y-76709488D01*
X166114985Y-76715111D01*
X166205138Y-76808714D01*
X166208718Y-76811204D01*
X166211118Y-76814839D01*
X166285471Y-76890000D01*
X159186430Y-76890000D01*
X159186430Y-83110000D01*
X101040000Y-83110000D01*
X101040000Y-80442619D01*
X101764613Y-80442619D01*
X102104155Y-81264372D01*
X102732321Y-81893636D01*
X103553481Y-82234611D01*
X104442619Y-82235387D01*
X105264372Y-81895845D01*
X105875533Y-81285750D01*
X108175000Y-81285750D01*
X108175000Y-81726309D01*
X108271673Y-81959698D01*
X108450301Y-82138327D01*
X108683690Y-82235000D01*
X109124250Y-82235000D01*
X109283000Y-82076250D01*
X109283000Y-81127000D01*
X109537000Y-81127000D01*
X109537000Y-82076250D01*
X109695750Y-82235000D01*
X110136310Y-82235000D01*
X110369699Y-82138327D01*
X110548327Y-81959698D01*
X110645000Y-81726309D01*
X110645000Y-81285750D01*
X111915000Y-81285750D01*
X111915000Y-81726309D01*
X112011673Y-81959698D01*
X112190301Y-82138327D01*
X112423690Y-82235000D01*
X112864250Y-82235000D01*
X113023000Y-82076250D01*
X113023000Y-81127000D01*
X113277000Y-81127000D01*
X113277000Y-82076250D01*
X113435750Y-82235000D01*
X113876310Y-82235000D01*
X114109699Y-82138327D01*
X114288327Y-81959698D01*
X114385000Y-81726309D01*
X114385000Y-81285750D01*
X115665000Y-81285750D01*
X115665000Y-81726309D01*
X115761673Y-81959698D01*
X115940301Y-82138327D01*
X116173690Y-82235000D01*
X116614250Y-82235000D01*
X116773000Y-82076250D01*
X116773000Y-81127000D01*
X117027000Y-81127000D01*
X117027000Y-82076250D01*
X117185750Y-82235000D01*
X117626310Y-82235000D01*
X117859699Y-82138327D01*
X118038327Y-81959698D01*
X118135000Y-81726309D01*
X118135000Y-81285750D01*
X119665000Y-81285750D01*
X119665000Y-81726309D01*
X119761673Y-81959698D01*
X119940301Y-82138327D01*
X120173690Y-82235000D01*
X120614250Y-82235000D01*
X120773000Y-82076250D01*
X120773000Y-81127000D01*
X121027000Y-81127000D01*
X121027000Y-82076250D01*
X121185750Y-82235000D01*
X121626310Y-82235000D01*
X121859699Y-82138327D01*
X122038327Y-81959698D01*
X122135000Y-81726309D01*
X122135000Y-81285750D01*
X129165000Y-81285750D01*
X129165000Y-81726309D01*
X129261673Y-81959698D01*
X129440301Y-82138327D01*
X129673690Y-82235000D01*
X130114250Y-82235000D01*
X130273000Y-82076250D01*
X130273000Y-81127000D01*
X130527000Y-81127000D01*
X130527000Y-82076250D01*
X130685750Y-82235000D01*
X131126310Y-82235000D01*
X131359699Y-82138327D01*
X131538327Y-81959698D01*
X131635000Y-81726309D01*
X131635000Y-81285750D01*
X131665000Y-81285750D01*
X131665000Y-81726309D01*
X131761673Y-81959698D01*
X131940301Y-82138327D01*
X132173690Y-82235000D01*
X132614250Y-82235000D01*
X132773000Y-82076250D01*
X132773000Y-81127000D01*
X133027000Y-81127000D01*
X133027000Y-82076250D01*
X133185750Y-82235000D01*
X133626310Y-82235000D01*
X133859699Y-82138327D01*
X134038327Y-81959698D01*
X134135000Y-81726309D01*
X134135000Y-81285750D01*
X134085000Y-81235750D01*
X149065000Y-81235750D01*
X149065000Y-81676309D01*
X149161673Y-81909698D01*
X149340301Y-82088327D01*
X149573690Y-82185000D01*
X150014250Y-82185000D01*
X150173000Y-82026250D01*
X150173000Y-81077000D01*
X150427000Y-81077000D01*
X150427000Y-82026250D01*
X150585750Y-82185000D01*
X151026310Y-82185000D01*
X151259699Y-82088327D01*
X151438327Y-81909698D01*
X151535000Y-81676309D01*
X151535000Y-81235750D01*
X151376250Y-81077000D01*
X150427000Y-81077000D01*
X150173000Y-81077000D01*
X149223750Y-81077000D01*
X149065000Y-81235750D01*
X134085000Y-81235750D01*
X133976250Y-81127000D01*
X133027000Y-81127000D01*
X132773000Y-81127000D01*
X131823750Y-81127000D01*
X131665000Y-81285750D01*
X131635000Y-81285750D01*
X131476250Y-81127000D01*
X130527000Y-81127000D01*
X130273000Y-81127000D01*
X129323750Y-81127000D01*
X129165000Y-81285750D01*
X122135000Y-81285750D01*
X121976250Y-81127000D01*
X121027000Y-81127000D01*
X120773000Y-81127000D01*
X119823750Y-81127000D01*
X119665000Y-81285750D01*
X118135000Y-81285750D01*
X117976250Y-81127000D01*
X117027000Y-81127000D01*
X116773000Y-81127000D01*
X115823750Y-81127000D01*
X115665000Y-81285750D01*
X114385000Y-81285750D01*
X114226250Y-81127000D01*
X113277000Y-81127000D01*
X113023000Y-81127000D01*
X112073750Y-81127000D01*
X111915000Y-81285750D01*
X110645000Y-81285750D01*
X110486250Y-81127000D01*
X109537000Y-81127000D01*
X109283000Y-81127000D01*
X108333750Y-81127000D01*
X108175000Y-81285750D01*
X105875533Y-81285750D01*
X105893636Y-81267679D01*
X106234611Y-80446519D01*
X106235387Y-79557381D01*
X105895845Y-78735628D01*
X105267679Y-78106364D01*
X104446519Y-77765389D01*
X103557381Y-77764613D01*
X102735628Y-78104155D01*
X102106364Y-78732321D01*
X101765389Y-79553481D01*
X101764613Y-80442619D01*
X101040000Y-80442619D01*
X101040000Y-64514383D01*
X104914769Y-64514383D01*
X105117582Y-65005229D01*
X105490000Y-65378297D01*
X105490000Y-71640000D01*
X105547852Y-71930839D01*
X105712599Y-72177401D01*
X108112560Y-74577362D01*
X108112560Y-74850000D01*
X108156838Y-75085317D01*
X108295910Y-75301441D01*
X108508110Y-75446431D01*
X108521197Y-75449081D01*
X108308559Y-75585910D01*
X108163569Y-75798110D01*
X108112560Y-76050000D01*
X108112560Y-76750000D01*
X108156838Y-76985317D01*
X108295910Y-77201441D01*
X108508110Y-77346431D01*
X108650000Y-77375164D01*
X108650000Y-77582666D01*
X108574683Y-77596838D01*
X108358559Y-77735910D01*
X108213569Y-77948110D01*
X108162560Y-78200000D01*
X108162560Y-79400000D01*
X108206838Y-79635317D01*
X108345910Y-79851441D01*
X108414006Y-79897969D01*
X108271673Y-80040302D01*
X108175000Y-80273691D01*
X108175000Y-80714250D01*
X108333750Y-80873000D01*
X109283000Y-80873000D01*
X109283000Y-80853000D01*
X109537000Y-80853000D01*
X109537000Y-80873000D01*
X110486250Y-80873000D01*
X110645000Y-80714250D01*
X110645000Y-80273691D01*
X110548327Y-80040302D01*
X110407090Y-79899064D01*
X110461441Y-79864090D01*
X110606431Y-79651890D01*
X110657440Y-79400000D01*
X110657440Y-78200000D01*
X110613162Y-77964683D01*
X110474090Y-77748559D01*
X110261890Y-77603569D01*
X110170000Y-77584961D01*
X110170000Y-77376742D01*
X110295317Y-77353162D01*
X110511441Y-77214090D01*
X110656431Y-77001890D01*
X110707440Y-76750000D01*
X110707440Y-76050000D01*
X110663162Y-75814683D01*
X110524090Y-75598559D01*
X110311890Y-75453569D01*
X110298803Y-75450919D01*
X110511441Y-75314090D01*
X110656431Y-75101890D01*
X110707440Y-74850000D01*
X110707440Y-74150000D01*
X110663162Y-73914683D01*
X110524090Y-73698559D01*
X110311890Y-73553569D01*
X110060000Y-73502560D01*
X109187362Y-73502560D01*
X107010000Y-71325198D01*
X107010000Y-69334802D01*
X111857559Y-74182361D01*
X111857559Y-74850000D01*
X111901837Y-75085317D01*
X112040909Y-75301441D01*
X112253109Y-75446431D01*
X112266196Y-75449081D01*
X112053558Y-75585910D01*
X111908568Y-75798110D01*
X111857559Y-76050000D01*
X111857559Y-76750000D01*
X111901837Y-76985317D01*
X112040909Y-77201441D01*
X112253109Y-77346431D01*
X112390000Y-77374152D01*
X112390000Y-77582666D01*
X112314683Y-77596838D01*
X112098559Y-77735910D01*
X111953569Y-77948110D01*
X111902560Y-78200000D01*
X111902560Y-79400000D01*
X111946838Y-79635317D01*
X112085910Y-79851441D01*
X112154006Y-79897969D01*
X112011673Y-80040302D01*
X111915000Y-80273691D01*
X111915000Y-80714250D01*
X112073750Y-80873000D01*
X113023000Y-80873000D01*
X113023000Y-80853000D01*
X113277000Y-80853000D01*
X113277000Y-80873000D01*
X114226250Y-80873000D01*
X114385000Y-80714250D01*
X114385000Y-80273691D01*
X114288327Y-80040302D01*
X114147090Y-79899064D01*
X114201441Y-79864090D01*
X114346431Y-79651890D01*
X114397440Y-79400000D01*
X114397440Y-78200000D01*
X114353162Y-77964683D01*
X114214090Y-77748559D01*
X114001890Y-77603569D01*
X113910000Y-77584961D01*
X113910000Y-77377683D01*
X114040316Y-77353162D01*
X114256440Y-77214090D01*
X114401430Y-77001890D01*
X114452439Y-76750000D01*
X114452439Y-76050000D01*
X114408161Y-75814683D01*
X114269089Y-75598559D01*
X114056889Y-75453569D01*
X114043802Y-75450919D01*
X114256440Y-75314090D01*
X114401430Y-75101890D01*
X114452439Y-74850000D01*
X114452439Y-74567241D01*
X114922599Y-75037401D01*
X115169161Y-75202148D01*
X115460000Y-75260000D01*
X115759243Y-75260000D01*
X115785910Y-75301441D01*
X115998110Y-75446431D01*
X116011197Y-75449081D01*
X115798559Y-75585910D01*
X115653569Y-75798110D01*
X115602560Y-76050000D01*
X115602560Y-76750000D01*
X115646838Y-76985317D01*
X115785910Y-77201441D01*
X115998110Y-77346431D01*
X116140000Y-77375164D01*
X116140000Y-77582666D01*
X116064683Y-77596838D01*
X115848559Y-77735910D01*
X115703569Y-77948110D01*
X115652560Y-78200000D01*
X115652560Y-79400000D01*
X115696838Y-79635317D01*
X115835910Y-79851441D01*
X115904006Y-79897969D01*
X115761673Y-80040302D01*
X115665000Y-80273691D01*
X115665000Y-80714250D01*
X115823750Y-80873000D01*
X116773000Y-80873000D01*
X116773000Y-80853000D01*
X117027000Y-80853000D01*
X117027000Y-80873000D01*
X117976250Y-80873000D01*
X118135000Y-80714250D01*
X118135000Y-80273691D01*
X118038327Y-80040302D01*
X117897090Y-79899064D01*
X117951441Y-79864090D01*
X118096431Y-79651890D01*
X118147440Y-79400000D01*
X118147440Y-78200000D01*
X118103162Y-77964683D01*
X117964090Y-77748559D01*
X117751890Y-77603569D01*
X117660000Y-77584961D01*
X117660000Y-77376742D01*
X117785317Y-77353162D01*
X118001441Y-77214090D01*
X118146431Y-77001890D01*
X118197440Y-76750000D01*
X118197440Y-76050000D01*
X118153162Y-75814683D01*
X118014090Y-75598559D01*
X117801890Y-75453569D01*
X117788803Y-75450919D01*
X118001441Y-75314090D01*
X118146431Y-75101890D01*
X118197440Y-74850000D01*
X118197440Y-74150000D01*
X118153162Y-73914683D01*
X118014090Y-73698559D01*
X117801890Y-73553569D01*
X117550000Y-73502560D01*
X116250000Y-73502560D01*
X116014683Y-73546838D01*
X115798559Y-73685910D01*
X115766959Y-73732157D01*
X110741743Y-68706941D01*
X111086661Y-68707242D01*
X111472864Y-68547666D01*
X115462599Y-72537401D01*
X115709160Y-72702148D01*
X116000000Y-72760000D01*
X118935198Y-72760000D01*
X119836618Y-73661420D01*
X119798559Y-73685910D01*
X119653569Y-73898110D01*
X119602560Y-74150000D01*
X119602560Y-74850000D01*
X119646838Y-75085317D01*
X119785910Y-75301441D01*
X119998110Y-75446431D01*
X120011197Y-75449081D01*
X119798559Y-75585910D01*
X119653569Y-75798110D01*
X119602560Y-76050000D01*
X119602560Y-76750000D01*
X119646838Y-76985317D01*
X119785910Y-77201441D01*
X119998110Y-77346431D01*
X120140000Y-77375164D01*
X120140000Y-77582666D01*
X120064683Y-77596838D01*
X119848559Y-77735910D01*
X119703569Y-77948110D01*
X119652560Y-78200000D01*
X119652560Y-79400000D01*
X119696838Y-79635317D01*
X119835910Y-79851441D01*
X119904006Y-79897969D01*
X119761673Y-80040302D01*
X119665000Y-80273691D01*
X119665000Y-80714250D01*
X119823750Y-80873000D01*
X120773000Y-80873000D01*
X120773000Y-80853000D01*
X121027000Y-80853000D01*
X121027000Y-80873000D01*
X121976250Y-80873000D01*
X122135000Y-80714250D01*
X122135000Y-80273691D01*
X122038327Y-80040302D01*
X121897090Y-79899064D01*
X121951441Y-79864090D01*
X122096431Y-79651890D01*
X122147440Y-79400000D01*
X122147440Y-78200000D01*
X122103162Y-77964683D01*
X121964090Y-77748559D01*
X121751890Y-77603569D01*
X121660000Y-77584961D01*
X121660000Y-77376742D01*
X121785317Y-77353162D01*
X122001441Y-77214090D01*
X122146431Y-77001890D01*
X122197440Y-76750000D01*
X122197440Y-76050000D01*
X122153162Y-75814683D01*
X122014090Y-75598559D01*
X121801890Y-75453569D01*
X121788803Y-75450919D01*
X122001441Y-75314090D01*
X122146431Y-75101890D01*
X122197440Y-74850000D01*
X122197440Y-74150000D01*
X122153162Y-73914683D01*
X122014090Y-73698559D01*
X121801890Y-73553569D01*
X121634058Y-73519582D01*
X121602148Y-73359160D01*
X121437401Y-73112599D01*
X120584802Y-72260000D01*
X127085198Y-72260000D01*
X129102560Y-74277362D01*
X129102560Y-74850000D01*
X129146838Y-75085317D01*
X129285910Y-75301441D01*
X129498110Y-75446431D01*
X129511197Y-75449081D01*
X129298559Y-75585910D01*
X129153569Y-75798110D01*
X129102560Y-76050000D01*
X129102560Y-76750000D01*
X129146838Y-76985317D01*
X129285910Y-77201441D01*
X129498110Y-77346431D01*
X129640000Y-77375164D01*
X129640000Y-77582666D01*
X129564683Y-77596838D01*
X129348559Y-77735910D01*
X129203569Y-77948110D01*
X129152560Y-78200000D01*
X129152560Y-79400000D01*
X129196838Y-79635317D01*
X129335910Y-79851441D01*
X129404006Y-79897969D01*
X129261673Y-80040302D01*
X129165000Y-80273691D01*
X129165000Y-80714250D01*
X129323750Y-80873000D01*
X130273000Y-80873000D01*
X130273000Y-80853000D01*
X130527000Y-80853000D01*
X130527000Y-80873000D01*
X131476250Y-80873000D01*
X131635000Y-80714250D01*
X131635000Y-80273691D01*
X131538327Y-80040302D01*
X131397090Y-79899064D01*
X131451441Y-79864090D01*
X131596431Y-79651890D01*
X131647440Y-79400000D01*
X131647440Y-78200000D01*
X131603162Y-77964683D01*
X131464090Y-77748559D01*
X131251890Y-77603569D01*
X131160000Y-77584961D01*
X131160000Y-77376742D01*
X131285317Y-77353162D01*
X131501441Y-77214090D01*
X131646431Y-77001890D01*
X131649081Y-76988803D01*
X131785910Y-77201441D01*
X131998110Y-77346431D01*
X132140000Y-77375164D01*
X132140000Y-77582666D01*
X132064683Y-77596838D01*
X131848559Y-77735910D01*
X131703569Y-77948110D01*
X131652560Y-78200000D01*
X131652560Y-79400000D01*
X131696838Y-79635317D01*
X131835910Y-79851441D01*
X131904006Y-79897969D01*
X131761673Y-80040302D01*
X131665000Y-80273691D01*
X131665000Y-80714250D01*
X131823750Y-80873000D01*
X132773000Y-80873000D01*
X132773000Y-80853000D01*
X133027000Y-80853000D01*
X133027000Y-80873000D01*
X133976250Y-80873000D01*
X134135000Y-80714250D01*
X134135000Y-80273691D01*
X134038327Y-80040302D01*
X133897090Y-79899064D01*
X133951441Y-79864090D01*
X134096431Y-79651890D01*
X134147440Y-79400000D01*
X134147440Y-78200000D01*
X134103162Y-77964683D01*
X133964090Y-77748559D01*
X133751890Y-77603569D01*
X133660000Y-77584961D01*
X133660000Y-77376742D01*
X133785317Y-77353162D01*
X134001441Y-77214090D01*
X134146431Y-77001890D01*
X134197440Y-76750000D01*
X134197440Y-76260000D01*
X139372345Y-76260000D01*
X139742796Y-76631098D01*
X140233287Y-76834768D01*
X140764383Y-76835231D01*
X141255229Y-76632418D01*
X141631098Y-76257204D01*
X141834768Y-75766713D01*
X141835231Y-75235617D01*
X141632418Y-74744771D01*
X141500282Y-74612404D01*
X141550054Y-74579147D01*
X141777702Y-74238447D01*
X141844817Y-74381358D01*
X142273076Y-74771645D01*
X142683110Y-74941476D01*
X142913000Y-74820155D01*
X142913000Y-73627000D01*
X142893000Y-73627000D01*
X142893000Y-73373000D01*
X142913000Y-73373000D01*
X142913000Y-72179845D01*
X143167000Y-72179845D01*
X143167000Y-73373000D01*
X143187000Y-73373000D01*
X143187000Y-73627000D01*
X143167000Y-73627000D01*
X143167000Y-74820155D01*
X143396890Y-74941476D01*
X143806924Y-74771645D01*
X144109937Y-74495499D01*
X144126838Y-74585317D01*
X144265910Y-74801441D01*
X144478110Y-74946431D01*
X144730000Y-74997440D01*
X146430000Y-74997440D01*
X146665317Y-74953162D01*
X146881441Y-74814090D01*
X147026431Y-74601890D01*
X147077440Y-74350000D01*
X147077440Y-74260000D01*
X149002560Y-74260000D01*
X149002560Y-74850000D01*
X149046838Y-75085317D01*
X149185910Y-75301441D01*
X149398110Y-75446431D01*
X149411197Y-75449081D01*
X149198559Y-75585910D01*
X149053569Y-75798110D01*
X149002560Y-76050000D01*
X149002560Y-76750000D01*
X149046838Y-76985317D01*
X149185910Y-77201441D01*
X149398110Y-77346431D01*
X149540000Y-77375164D01*
X149540000Y-77532666D01*
X149464683Y-77546838D01*
X149248559Y-77685910D01*
X149103569Y-77898110D01*
X149052560Y-78150000D01*
X149052560Y-79350000D01*
X149096838Y-79585317D01*
X149235910Y-79801441D01*
X149304006Y-79847969D01*
X149161673Y-79990302D01*
X149065000Y-80223691D01*
X149065000Y-80664250D01*
X149223750Y-80823000D01*
X150173000Y-80823000D01*
X150173000Y-80803000D01*
X150427000Y-80803000D01*
X150427000Y-80823000D01*
X151376250Y-80823000D01*
X151535000Y-80664250D01*
X151535000Y-80223691D01*
X151438327Y-79990302D01*
X151297090Y-79849064D01*
X151351441Y-79814090D01*
X151496431Y-79601890D01*
X151547440Y-79350000D01*
X151547440Y-78150000D01*
X151503162Y-77914683D01*
X151364090Y-77698559D01*
X151151890Y-77553569D01*
X151060000Y-77534961D01*
X151060000Y-77376742D01*
X151185317Y-77353162D01*
X151401441Y-77214090D01*
X151546431Y-77001890D01*
X151597440Y-76750000D01*
X151597440Y-76050000D01*
X151553162Y-75814683D01*
X151414090Y-75598559D01*
X151201890Y-75453569D01*
X151188803Y-75450919D01*
X151401441Y-75314090D01*
X151546431Y-75101890D01*
X151597440Y-74850000D01*
X151597440Y-74150000D01*
X151553162Y-73914683D01*
X151414090Y-73698559D01*
X151201890Y-73553569D01*
X150950000Y-73502560D01*
X150930920Y-73502560D01*
X150837401Y-73362599D01*
X150437401Y-72962599D01*
X150190839Y-72797852D01*
X149900000Y-72740000D01*
X147077440Y-72740000D01*
X147077440Y-72650000D01*
X147033162Y-72414683D01*
X146894090Y-72198559D01*
X146681890Y-72053569D01*
X146430000Y-72002560D01*
X144730000Y-72002560D01*
X144494683Y-72046838D01*
X144278559Y-72185910D01*
X144133569Y-72398110D01*
X144111699Y-72506107D01*
X143806924Y-72228355D01*
X143396890Y-72058524D01*
X143167000Y-72179845D01*
X142913000Y-72179845D01*
X142683110Y-72058524D01*
X142273076Y-72228355D01*
X141844817Y-72618642D01*
X141777702Y-72761553D01*
X141550054Y-72420853D01*
X141068285Y-72098946D01*
X140500000Y-71985907D01*
X140133592Y-72058790D01*
X137637401Y-69562599D01*
X137390839Y-69397852D01*
X137100000Y-69340000D01*
X126614802Y-69340000D01*
X125981743Y-68706941D01*
X126326661Y-68707242D01*
X126840303Y-68495010D01*
X127233629Y-68102370D01*
X127319949Y-67894488D01*
X127404990Y-68100303D01*
X127797630Y-68493629D01*
X128310900Y-68706757D01*
X128866661Y-68707242D01*
X129380303Y-68495010D01*
X129773629Y-68102370D01*
X129859949Y-67894488D01*
X129944990Y-68100303D01*
X130337630Y-68493629D01*
X130850900Y-68706757D01*
X131406661Y-68707242D01*
X131920303Y-68495010D01*
X132313629Y-68102370D01*
X132399949Y-67894488D01*
X132484990Y-68100303D01*
X132877630Y-68493629D01*
X133390900Y-68706757D01*
X133946661Y-68707242D01*
X134460303Y-68495010D01*
X134853629Y-68102370D01*
X134939949Y-67894488D01*
X135024990Y-68100303D01*
X135417630Y-68493629D01*
X135930900Y-68706757D01*
X136486661Y-68707242D01*
X137000303Y-68495010D01*
X137393629Y-68102370D01*
X137479949Y-67894488D01*
X137564990Y-68100303D01*
X137957630Y-68493629D01*
X138470900Y-68706757D01*
X139026661Y-68707242D01*
X139540303Y-68495010D01*
X139933629Y-68102370D01*
X140019949Y-67894488D01*
X140104990Y-68100303D01*
X140497630Y-68493629D01*
X141010900Y-68706757D01*
X141566661Y-68707242D01*
X142080303Y-68495010D01*
X142473629Y-68102370D01*
X142559949Y-67894488D01*
X142644990Y-68100303D01*
X143037630Y-68493629D01*
X143550900Y-68706757D01*
X144106661Y-68707242D01*
X144620303Y-68495010D01*
X145013629Y-68102370D01*
X145099949Y-67894488D01*
X145184990Y-68100303D01*
X145577630Y-68493629D01*
X146090900Y-68706757D01*
X146646661Y-68707242D01*
X147160303Y-68495010D01*
X147553629Y-68102370D01*
X147639949Y-67894488D01*
X147724990Y-68100303D01*
X148117630Y-68493629D01*
X148630900Y-68706757D01*
X149186661Y-68707242D01*
X149700303Y-68495010D01*
X150093629Y-68102370D01*
X150179949Y-67894488D01*
X150264990Y-68100303D01*
X150657630Y-68493629D01*
X151170900Y-68706757D01*
X151726661Y-68707242D01*
X152240303Y-68495010D01*
X152445457Y-68290213D01*
X153189392Y-68290213D01*
X153258857Y-68532397D01*
X153782302Y-68719144D01*
X154337368Y-68691362D01*
X154721143Y-68532397D01*
X154790608Y-68290213D01*
X153990000Y-67489605D01*
X153189392Y-68290213D01*
X152445457Y-68290213D01*
X152633629Y-68102370D01*
X152713395Y-67910273D01*
X152767603Y-68041143D01*
X153009787Y-68110608D01*
X153810395Y-67310000D01*
X153796253Y-67295858D01*
X153975858Y-67116253D01*
X153990000Y-67130395D01*
X154004143Y-67116253D01*
X154183748Y-67295858D01*
X154169605Y-67310000D01*
X154970213Y-68110608D01*
X155212397Y-68041143D01*
X155262509Y-67900682D01*
X155344990Y-68100303D01*
X155737630Y-68493629D01*
X156250900Y-68706757D01*
X156806661Y-68707242D01*
X157320303Y-68495010D01*
X157713629Y-68102370D01*
X157727070Y-68070000D01*
X169190000Y-68070000D01*
X169480839Y-68012148D01*
X169727401Y-67847401D01*
X185437401Y-52137401D01*
X185602148Y-51890839D01*
X185660000Y-51600000D01*
X185660000Y-47910000D01*
X185602148Y-47619161D01*
X185602148Y-47619160D01*
X185437401Y-47372599D01*
X184517401Y-46452599D01*
X184377440Y-46359080D01*
X184377440Y-46140000D01*
X184333162Y-45904683D01*
X184194090Y-45688559D01*
X183981890Y-45543569D01*
X183730000Y-45492560D01*
X182030000Y-45492560D01*
X181794683Y-45536838D01*
X181578559Y-45675910D01*
X181433569Y-45888110D01*
X181419914Y-45955541D01*
X181390054Y-45910853D01*
X180908285Y-45588946D01*
X180340000Y-45475907D01*
X179973592Y-45548790D01*
X178387401Y-43962599D01*
X178140839Y-43797852D01*
X177850000Y-43740000D01*
X159020000Y-43740000D01*
X158729161Y-43797852D01*
X158482599Y-43962599D01*
X151759381Y-50685817D01*
X151729100Y-50673243D01*
X151173339Y-50672758D01*
X150659697Y-50884990D01*
X150266371Y-51277630D01*
X150180051Y-51485512D01*
X150095010Y-51279697D01*
X149702370Y-50886371D01*
X149189100Y-50673243D01*
X148633339Y-50672758D01*
X148119697Y-50884990D01*
X147726371Y-51277630D01*
X147640051Y-51485512D01*
X147555010Y-51279697D01*
X147162370Y-50886371D01*
X146649100Y-50673243D01*
X146093339Y-50672758D01*
X145579697Y-50884990D01*
X145186371Y-51277630D01*
X145100051Y-51485512D01*
X145015010Y-51279697D01*
X144622370Y-50886371D01*
X144109100Y-50673243D01*
X143553339Y-50672758D01*
X143039697Y-50884990D01*
X142646371Y-51277630D01*
X142560051Y-51485512D01*
X142475010Y-51279697D01*
X142082370Y-50886371D01*
X141569100Y-50673243D01*
X141013339Y-50672758D01*
X140499697Y-50884990D01*
X140106371Y-51277630D01*
X140020051Y-51485512D01*
X139935010Y-51279697D01*
X139542370Y-50886371D01*
X139029100Y-50673243D01*
X138473339Y-50672758D01*
X137959697Y-50884990D01*
X137566371Y-51277630D01*
X137480051Y-51485512D01*
X137395010Y-51279697D01*
X137002370Y-50886371D01*
X136489100Y-50673243D01*
X135933339Y-50672758D01*
X135419697Y-50884990D01*
X135026371Y-51277630D01*
X134940051Y-51485512D01*
X134855010Y-51279697D01*
X134462370Y-50886371D01*
X133949100Y-50673243D01*
X133393339Y-50672758D01*
X132879697Y-50884990D01*
X132486371Y-51277630D01*
X132400051Y-51485512D01*
X132315010Y-51279697D01*
X131922370Y-50886371D01*
X131409100Y-50673243D01*
X130853339Y-50672758D01*
X130339697Y-50884990D01*
X129946371Y-51277630D01*
X129860051Y-51485512D01*
X129775010Y-51279697D01*
X129382370Y-50886371D01*
X128869100Y-50673243D01*
X128313339Y-50672758D01*
X127799697Y-50884990D01*
X127406371Y-51277630D01*
X127320051Y-51485512D01*
X127235010Y-51279697D01*
X126842370Y-50886371D01*
X126329100Y-50673243D01*
X125773339Y-50672758D01*
X125259697Y-50884990D01*
X124866371Y-51277630D01*
X124780051Y-51485512D01*
X124695010Y-51279697D01*
X124302370Y-50886371D01*
X123789100Y-50673243D01*
X123233339Y-50672758D01*
X122719697Y-50884990D01*
X122326371Y-51277630D01*
X122240051Y-51485512D01*
X122155010Y-51279697D01*
X121762370Y-50886371D01*
X121249100Y-50673243D01*
X120693339Y-50672758D01*
X120179697Y-50884990D01*
X119786371Y-51277630D01*
X119700051Y-51485512D01*
X119615010Y-51279697D01*
X119222370Y-50886371D01*
X119190000Y-50872930D01*
X119190000Y-49424802D01*
X121173592Y-47441210D01*
X121540000Y-47514093D01*
X122108285Y-47401054D01*
X122590054Y-47079147D01*
X122911961Y-46597378D01*
X122973947Y-46285750D01*
X137915000Y-46285750D01*
X137915000Y-46976309D01*
X138011673Y-47209698D01*
X138190301Y-47388327D01*
X138423690Y-47485000D01*
X139114250Y-47485000D01*
X139273000Y-47326250D01*
X139273000Y-46127000D01*
X138073750Y-46127000D01*
X137915000Y-46285750D01*
X122973947Y-46285750D01*
X123025000Y-46029093D01*
X123025000Y-45970907D01*
X122911961Y-45402622D01*
X122658768Y-45023691D01*
X137915000Y-45023691D01*
X137915000Y-45714250D01*
X138073750Y-45873000D01*
X139273000Y-45873000D01*
X139273000Y-44673750D01*
X139527000Y-44673750D01*
X139527000Y-45873000D01*
X139547000Y-45873000D01*
X139547000Y-46127000D01*
X139527000Y-46127000D01*
X139527000Y-47326250D01*
X139685750Y-47485000D01*
X140376310Y-47485000D01*
X140609699Y-47388327D01*
X140788327Y-47209698D01*
X140860597Y-47035223D01*
X140889946Y-47079147D01*
X141371715Y-47401054D01*
X141940000Y-47514093D01*
X142508285Y-47401054D01*
X142990054Y-47079147D01*
X143210000Y-46749974D01*
X143429946Y-47079147D01*
X143911715Y-47401054D01*
X144480000Y-47514093D01*
X145048285Y-47401054D01*
X145530054Y-47079147D01*
X145851961Y-46597378D01*
X145965000Y-46029093D01*
X145965000Y-45970907D01*
X145851961Y-45402622D01*
X145530054Y-44920853D01*
X145048285Y-44598946D01*
X144480000Y-44485907D01*
X143911715Y-44598946D01*
X143429946Y-44920853D01*
X143210000Y-45250026D01*
X142990054Y-44920853D01*
X142508285Y-44598946D01*
X141940000Y-44485907D01*
X141371715Y-44598946D01*
X140889946Y-44920853D01*
X140860597Y-44964777D01*
X140788327Y-44790302D01*
X140609699Y-44611673D01*
X140376310Y-44515000D01*
X139685750Y-44515000D01*
X139527000Y-44673750D01*
X139273000Y-44673750D01*
X139114250Y-44515000D01*
X138423690Y-44515000D01*
X138190301Y-44611673D01*
X138011673Y-44790302D01*
X137915000Y-45023691D01*
X122658768Y-45023691D01*
X122590054Y-44920853D01*
X122108285Y-44598946D01*
X121540000Y-44485907D01*
X120971715Y-44598946D01*
X120489946Y-44920853D01*
X120270000Y-45250026D01*
X120050054Y-44920853D01*
X119568285Y-44598946D01*
X119000000Y-44485907D01*
X118431715Y-44598946D01*
X117949946Y-44920853D01*
X117722298Y-45261553D01*
X117655183Y-45118642D01*
X117226924Y-44728355D01*
X116816890Y-44558524D01*
X116587000Y-44679845D01*
X116587000Y-45873000D01*
X116607000Y-45873000D01*
X116607000Y-46127000D01*
X116587000Y-46127000D01*
X116587000Y-47320155D01*
X116816890Y-47441476D01*
X117226924Y-47271645D01*
X117655183Y-46881358D01*
X117722298Y-46738447D01*
X117949946Y-47079147D01*
X118431715Y-47401054D01*
X118959217Y-47505981D01*
X117892599Y-48572599D01*
X117727852Y-48819161D01*
X117670000Y-49110000D01*
X117670000Y-50872469D01*
X117639697Y-50884990D01*
X117246371Y-51277630D01*
X117160051Y-51485512D01*
X117075010Y-51279697D01*
X116682370Y-50886371D01*
X116169100Y-50673243D01*
X115613339Y-50672758D01*
X115099697Y-50884990D01*
X114706371Y-51277630D01*
X114620051Y-51485512D01*
X114535010Y-51279697D01*
X114142370Y-50886371D01*
X113629100Y-50673243D01*
X113073339Y-50672758D01*
X112559697Y-50884990D01*
X112166371Y-51277630D01*
X112086605Y-51469727D01*
X112032397Y-51338857D01*
X111790213Y-51269392D01*
X110989605Y-52070000D01*
X111790213Y-52870608D01*
X112032397Y-52801143D01*
X112082509Y-52660682D01*
X112164990Y-52860303D01*
X112557630Y-53253629D01*
X113070900Y-53466757D01*
X113626661Y-53467242D01*
X114140303Y-53255010D01*
X114533629Y-52862370D01*
X114619949Y-52654488D01*
X114704990Y-52860303D01*
X115097630Y-53253629D01*
X115610900Y-53466757D01*
X116166661Y-53467242D01*
X116680303Y-53255010D01*
X117073629Y-52862370D01*
X117159949Y-52654488D01*
X117244990Y-52860303D01*
X117637630Y-53253629D01*
X118150900Y-53466757D01*
X118458173Y-53467025D01*
X107584922Y-64340276D01*
X107585231Y-63985617D01*
X107382418Y-63494771D01*
X107007204Y-63118902D01*
X106516713Y-62915232D01*
X105985617Y-62914769D01*
X105494771Y-63117582D01*
X105118902Y-63492796D01*
X104915232Y-63983287D01*
X104914769Y-64514383D01*
X101040000Y-64514383D01*
X101040000Y-53050213D01*
X107469392Y-53050213D01*
X107538857Y-53292397D01*
X108062302Y-53479144D01*
X108617368Y-53451362D01*
X109001143Y-53292397D01*
X109070608Y-53050213D01*
X110009392Y-53050213D01*
X110078857Y-53292397D01*
X110602302Y-53479144D01*
X111157368Y-53451362D01*
X111541143Y-53292397D01*
X111610608Y-53050213D01*
X110810000Y-52249605D01*
X110009392Y-53050213D01*
X109070608Y-53050213D01*
X108270000Y-52249605D01*
X107469392Y-53050213D01*
X101040000Y-53050213D01*
X101040000Y-51862302D01*
X106860856Y-51862302D01*
X106888638Y-52417368D01*
X107047603Y-52801143D01*
X107289787Y-52870608D01*
X108090395Y-52070000D01*
X108449605Y-52070000D01*
X109250213Y-52870608D01*
X109492397Y-52801143D01*
X109536453Y-52677656D01*
X109587603Y-52801143D01*
X109829787Y-52870608D01*
X110630395Y-52070000D01*
X109829787Y-51269392D01*
X109587603Y-51338857D01*
X109543547Y-51462344D01*
X109492397Y-51338857D01*
X109250213Y-51269392D01*
X108449605Y-52070000D01*
X108090395Y-52070000D01*
X107289787Y-51269392D01*
X107047603Y-51338857D01*
X106860856Y-51862302D01*
X101040000Y-51862302D01*
X101040000Y-51089787D01*
X107469392Y-51089787D01*
X108270000Y-51890395D01*
X109070608Y-51089787D01*
X110009392Y-51089787D01*
X110810000Y-51890395D01*
X111610608Y-51089787D01*
X111541143Y-50847603D01*
X111017698Y-50660856D01*
X110462632Y-50688638D01*
X110078857Y-50847603D01*
X110009392Y-51089787D01*
X109070608Y-51089787D01*
X109001143Y-50847603D01*
X108477698Y-50660856D01*
X107922632Y-50688638D01*
X107538857Y-50847603D01*
X107469392Y-51089787D01*
X101040000Y-51089787D01*
X101040000Y-45150000D01*
X112422560Y-45150000D01*
X112422560Y-46850000D01*
X112466838Y-47085317D01*
X112605910Y-47301441D01*
X112818110Y-47446431D01*
X113070000Y-47497440D01*
X114770000Y-47497440D01*
X115005317Y-47453162D01*
X115221441Y-47314090D01*
X115366431Y-47101890D01*
X115388301Y-46993893D01*
X115693076Y-47271645D01*
X116103110Y-47441476D01*
X116333000Y-47320155D01*
X116333000Y-46127000D01*
X116313000Y-46127000D01*
X116313000Y-45873000D01*
X116333000Y-45873000D01*
X116333000Y-44679845D01*
X116103110Y-44558524D01*
X115693076Y-44728355D01*
X115390063Y-45004501D01*
X115373162Y-44914683D01*
X115234090Y-44698559D01*
X115021890Y-44553569D01*
X114770000Y-44502560D01*
X113070000Y-44502560D01*
X112834683Y-44546838D01*
X112618559Y-44685910D01*
X112473569Y-44898110D01*
X112422560Y-45150000D01*
X101040000Y-45150000D01*
X101040000Y-39942619D01*
X101764613Y-39942619D01*
X102104155Y-40764372D01*
X102732321Y-41393636D01*
X103553481Y-41734611D01*
X104442619Y-41735387D01*
X105264372Y-41395845D01*
X105893636Y-40767679D01*
X106028612Y-40442619D01*
X181764613Y-40442619D01*
X182104155Y-41264372D01*
X182732321Y-41893636D01*
X183553481Y-42234611D01*
X184442619Y-42235387D01*
X185264372Y-41895845D01*
X185893636Y-41267679D01*
X186234611Y-40446519D01*
X186235387Y-39557381D01*
X185895845Y-38735628D01*
X185267679Y-38106364D01*
X184446519Y-37765389D01*
X183557381Y-37764613D01*
X182735628Y-38104155D01*
X182106364Y-38732321D01*
X181765389Y-39553481D01*
X181764613Y-40442619D01*
X106028612Y-40442619D01*
X106234611Y-39946519D01*
X106235387Y-39057381D01*
X105895845Y-38235628D01*
X105267679Y-37606364D01*
X104446519Y-37265389D01*
X103557381Y-37264613D01*
X102735628Y-37604155D01*
X102106364Y-38232321D01*
X101765389Y-39053481D01*
X101764613Y-39942619D01*
X101040000Y-39942619D01*
X101040000Y-36270000D01*
X187250000Y-36270000D01*
X187250000Y-83110000D01*
X187250000Y-83110000D01*
G37*
X187250000Y-83110000D02*
X180813571Y-83110000D01*
X180813571Y-80442619D01*
X181764613Y-80442619D01*
X182104155Y-81264372D01*
X182732321Y-81893636D01*
X183553481Y-82234611D01*
X184442619Y-82235387D01*
X185264372Y-81895845D01*
X185893636Y-81267679D01*
X186234611Y-80446519D01*
X186235387Y-79557381D01*
X185895845Y-78735628D01*
X185267679Y-78106364D01*
X184446519Y-77765389D01*
X183557381Y-77764613D01*
X182735628Y-78104155D01*
X182106364Y-78732321D01*
X181765389Y-79553481D01*
X181764613Y-80442619D01*
X180813571Y-80442619D01*
X180813571Y-76890000D01*
X173691219Y-76890000D01*
X173693995Y-76887272D01*
X173697144Y-76882648D01*
X173701769Y-76879501D01*
X173810457Y-76768978D01*
X173814449Y-76762894D01*
X173820373Y-76758667D01*
X173907591Y-76665918D01*
X173913920Y-76655785D01*
X173923380Y-76648496D01*
X173984736Y-76578249D01*
X173999565Y-76552444D01*
X174021372Y-76532190D01*
X174052470Y-76489173D01*
X174090145Y-76406936D01*
X174128642Y-76349031D01*
X174131398Y-76335003D01*
X174139429Y-76321158D01*
X174142412Y-76312427D01*
X174146108Y-76284783D01*
X174156478Y-76262148D01*
X174158968Y-76194697D01*
X174176789Y-76104000D01*
X174172877Y-76084567D01*
X174175504Y-76064915D01*
X174165190Y-76026112D01*
X174165689Y-76012602D01*
X174155966Y-75986439D01*
X174149431Y-75966821D01*
X174148357Y-75962781D01*
X174127502Y-75859197D01*
X174113657Y-75825991D01*
X174091544Y-75793062D01*
X174079006Y-75755428D01*
X174040747Y-75688287D01*
X174032893Y-75679229D01*
X174028687Y-75668001D01*
X173970258Y-75573722D01*
X173965666Y-75568804D01*
X173963174Y-75562550D01*
X173888818Y-75447932D01*
X173885240Y-75444256D01*
X173883269Y-75439526D01*
X173797232Y-75311364D01*
X173795103Y-75309244D01*
X173793922Y-75306482D01*
X173769455Y-75270752D01*
X173769181Y-75270484D01*
X173769030Y-75270132D01*
X173680206Y-75140747D01*
X173632649Y-75071229D01*
X173671094Y-74968967D01*
X173717300Y-74850544D01*
X173733516Y-74810566D01*
X173743135Y-74808677D01*
X173895617Y-74780042D01*
X174093118Y-74743773D01*
X174135662Y-74736014D01*
X174138836Y-74734758D01*
X174142248Y-74734777D01*
X174269939Y-74710106D01*
X174276765Y-74707322D01*
X174284133Y-74707196D01*
X174395450Y-74683062D01*
X174404815Y-74678993D01*
X174415014Y-74678498D01*
X174500122Y-74657229D01*
X174521150Y-74647298D01*
X174544236Y-74644507D01*
X174593298Y-74628431D01*
X174643057Y-74600402D01*
X174690451Y-74587098D01*
X174699239Y-74580188D01*
X174710853Y-74576319D01*
X174717431Y-74572570D01*
X174763742Y-74532421D01*
X174810870Y-74505874D01*
X174838432Y-74470733D01*
X174886746Y-74432741D01*
X174894362Y-74419181D01*
X174906112Y-74408994D01*
X174940024Y-74341204D01*
X174964980Y-74309385D01*
X174968158Y-74298007D01*
X174969738Y-74296159D01*
X174978384Y-74269577D01*
X175009028Y-74215014D01*
X175019869Y-74181787D01*
X175027389Y-74118910D01*
X175046976Y-74058689D01*
X175055787Y-73984436D01*
X175054401Y-73966753D01*
X175058958Y-73949609D01*
X175065735Y-73842965D01*
X175064564Y-73834202D01*
X175066601Y-73825603D01*
X175071337Y-73695194D01*
X175070412Y-73689466D01*
X175071650Y-73683794D01*
X175074340Y-73538254D01*
X175073516Y-73533669D01*
X175074443Y-73529108D01*
X175075080Y-73377068D01*
X175074230Y-73372697D01*
X175075057Y-73368320D01*
X175073636Y-73218410D01*
X175072599Y-73213445D01*
X175073464Y-73208448D01*
X175069978Y-73069299D01*
X175068454Y-73062529D01*
X175069491Y-73055668D01*
X175063935Y-72935912D01*
X175061071Y-72924346D01*
X175062419Y-72912508D01*
X175054787Y-72820776D01*
X175046617Y-72792296D01*
X175047262Y-72762675D01*
X175037548Y-72707600D01*
X175002327Y-72617041D01*
X174985527Y-72559218D01*
X174977753Y-72529210D01*
X174976217Y-72527173D01*
X174975218Y-72523736D01*
X174969363Y-72512464D01*
X174954379Y-72493762D01*
X174947031Y-72474868D01*
X174899298Y-72425011D01*
X174897041Y-72422193D01*
X174827388Y-72329840D01*
X174819181Y-72325010D01*
X174813228Y-72317580D01*
X174777798Y-72298103D01*
X174774340Y-72294491D01*
X174758758Y-72287636D01*
X174751084Y-72283417D01*
X174749436Y-72281603D01*
X174737836Y-72276134D01*
X174711875Y-72261862D01*
X174612173Y-72203189D01*
X174579571Y-72191819D01*
X174550300Y-72187717D01*
X174523565Y-72175113D01*
X174449327Y-72156614D01*
X174440783Y-72156205D01*
X174432954Y-72152762D01*
X174324476Y-72128740D01*
X174319811Y-72128639D01*
X174315515Y-72126823D01*
X174180194Y-72098883D01*
X174176753Y-72098858D01*
X174173565Y-72097550D01*
X174018797Y-72067296D01*
X174016461Y-72067304D01*
X174014295Y-72066433D01*
X173929973Y-72050576D01*
X173929620Y-72050580D01*
X173929291Y-72050448D01*
X173770364Y-72020740D01*
X173696362Y-72006686D01*
X173654596Y-71908867D01*
X173605196Y-71791945D01*
X173690097Y-71666827D01*
X173739928Y-71594264D01*
X173740300Y-71593397D01*
X173740975Y-71592735D01*
X173833713Y-71456851D01*
X173835013Y-71453798D01*
X173837358Y-71451451D01*
X173919726Y-71328083D01*
X173921275Y-71324339D01*
X173924104Y-71321437D01*
X173992084Y-71216825D01*
X173994419Y-71210977D01*
X173998726Y-71206384D01*
X174048299Y-71126771D01*
X174053521Y-71112921D01*
X174063142Y-71101676D01*
X174090288Y-71053300D01*
X174106679Y-71003000D01*
X174134027Y-70957713D01*
X174137948Y-70946868D01*
X174145207Y-70899028D01*
X174163739Y-70854329D01*
X174163748Y-70827866D01*
X174167656Y-70815872D01*
X174164322Y-70773043D01*
X174175408Y-70699978D01*
X174163806Y-70653001D01*
X174163822Y-70604613D01*
X174148289Y-70567078D01*
X174148276Y-70566910D01*
X174147973Y-70566314D01*
X174134143Y-70532894D01*
X174126746Y-70502945D01*
X174126704Y-70502605D01*
X174126630Y-70502475D01*
X174115534Y-70457546D01*
X174086840Y-70418587D01*
X174068337Y-70373875D01*
X174051483Y-70348632D01*
X174023166Y-70320296D01*
X174003384Y-70285464D01*
X173956791Y-70231568D01*
X173948877Y-70225406D01*
X173943658Y-70216842D01*
X173873278Y-70140331D01*
X173869373Y-70137479D01*
X173866795Y-70133387D01*
X173778578Y-70040297D01*
X173776035Y-70038497D01*
X173774350Y-70035878D01*
X173674250Y-69932250D01*
X173672237Y-69930854D01*
X173670894Y-69928801D01*
X173564861Y-69820670D01*
X173562957Y-69819371D01*
X173561684Y-69817454D01*
X173455671Y-69710860D01*
X173453544Y-69709431D01*
X173452109Y-69707306D01*
X173352068Y-69608286D01*
X173349216Y-69606401D01*
X173347273Y-69603590D01*
X173259155Y-69518182D01*
X173254407Y-69515116D01*
X173251112Y-69510520D01*
X173180869Y-69444763D01*
X173169752Y-69437854D01*
X173161703Y-69427532D01*
X173115288Y-69387463D01*
X173094441Y-69375643D01*
X173088576Y-69368466D01*
X173061990Y-69354185D01*
X173032679Y-69326969D01*
X173017151Y-69317406D01*
X172943449Y-69290030D01*
X172898061Y-69264295D01*
X172893630Y-69263747D01*
X172868590Y-69250296D01*
X172824552Y-69245867D01*
X172783063Y-69230456D01*
X172701422Y-69233483D01*
X172620127Y-69225306D01*
X172577743Y-69238068D01*
X172533518Y-69239707D01*
X172459251Y-69273745D01*
X172381016Y-69297301D01*
X172355732Y-69310749D01*
X172338276Y-69325015D01*
X172317190Y-69333000D01*
X172256718Y-69370775D01*
X172252624Y-69374625D01*
X172247406Y-69376705D01*
X172157625Y-69434964D01*
X172155553Y-69436981D01*
X172152878Y-69438075D01*
X172039667Y-69512974D01*
X172038217Y-69514411D01*
X172036333Y-69515195D01*
X171905572Y-69602886D01*
X171904512Y-69603949D01*
X171903130Y-69604532D01*
X171804494Y-69671340D01*
X171804075Y-69671765D01*
X171803524Y-69671998D01*
X171590240Y-69817029D01*
X171493546Y-69777169D01*
X171398868Y-69738140D01*
X171350555Y-69481863D01*
X171350555Y-69481862D01*
X171237972Y-68884670D01*
X171213249Y-68823251D01*
X171200333Y-68758318D01*
X171167077Y-68708547D01*
X171144725Y-68653018D01*
X171098380Y-68605736D01*
X171061598Y-68550687D01*
X171011827Y-68517431D01*
X170969927Y-68474683D01*
X170909017Y-68448735D01*
X170853967Y-68411952D01*
X170795259Y-68400274D01*
X170740188Y-68376814D01*
X170673983Y-68376151D01*
X170609050Y-68363235D01*
X169366047Y-68363235D01*
X169301109Y-68376152D01*
X169234909Y-68376815D01*
X169179841Y-68400274D01*
X169121130Y-68411952D01*
X169066079Y-68448736D01*
X169005170Y-68474683D01*
X168963270Y-68517431D01*
X168913499Y-68550687D01*
X168876717Y-68605736D01*
X168830372Y-68653018D01*
X168808020Y-68708547D01*
X168774764Y-68758318D01*
X168761848Y-68823252D01*
X168737125Y-68884671D01*
X168624542Y-69481862D01*
X168624542Y-69481863D01*
X168576229Y-69738140D01*
X168481556Y-69777167D01*
X168481553Y-69777168D01*
X168384857Y-69817029D01*
X168171574Y-69671998D01*
X168170766Y-69671655D01*
X168170148Y-69671031D01*
X168030581Y-69576675D01*
X168028865Y-69575953D01*
X168027549Y-69574638D01*
X167901389Y-69490391D01*
X167899289Y-69489522D01*
X167897672Y-69487928D01*
X167790805Y-69417636D01*
X167787587Y-69416330D01*
X167785086Y-69413917D01*
X167703399Y-69361427D01*
X167696157Y-69358578D01*
X167690430Y-69353311D01*
X167639812Y-69322468D01*
X167610142Y-69311608D01*
X167584908Y-69292588D01*
X167571123Y-69285937D01*
X167488399Y-69264533D01*
X167409006Y-69232952D01*
X167368546Y-69233523D01*
X167329368Y-69223386D01*
X167244751Y-69235269D01*
X167159315Y-69236474D01*
X167122151Y-69252486D01*
X167082079Y-69258113D01*
X167008454Y-69301470D01*
X166929979Y-69335280D01*
X166905145Y-69352385D01*
X166882578Y-69375597D01*
X166866902Y-69384829D01*
X166863653Y-69389139D01*
X166842411Y-69401628D01*
X166789343Y-69448914D01*
X166783303Y-69456916D01*
X166774818Y-69462263D01*
X166699466Y-69533691D01*
X166696679Y-69537629D01*
X166692639Y-69540260D01*
X166600950Y-69629788D01*
X166599195Y-69632348D01*
X166596610Y-69634066D01*
X166494532Y-69735655D01*
X166493170Y-69737683D01*
X166491146Y-69739050D01*
X166384627Y-69846659D01*
X166383361Y-69848575D01*
X166381468Y-69849873D01*
X166276459Y-69957461D01*
X166275068Y-69959598D01*
X166272975Y-69961058D01*
X166175420Y-70062586D01*
X166173588Y-70065450D01*
X166170822Y-70067422D01*
X166086671Y-70156848D01*
X166083692Y-70161614D01*
X166079173Y-70164955D01*
X166014376Y-70236239D01*
X166007682Y-70247371D01*
X165997556Y-70255503D01*
X165958059Y-70302604D01*
X165933596Y-70347229D01*
X165899430Y-70384945D01*
X165889987Y-70400709D01*
X165869262Y-70458679D01*
X165837384Y-70511339D01*
X165827639Y-70575105D01*
X165805922Y-70635849D01*
X165808959Y-70697333D01*
X165799658Y-70758189D01*
X165815058Y-70820835D01*
X165818240Y-70885261D01*
X165844574Y-70940902D01*
X165859270Y-71000684D01*
X165872859Y-71029745D01*
X165892354Y-71056273D01*
X165903422Y-71087278D01*
X165941520Y-71150946D01*
X165947566Y-71157627D01*
X165950830Y-71166027D01*
X166009430Y-71258073D01*
X166012758Y-71261551D01*
X166014567Y-71266012D01*
X166089663Y-71380209D01*
X166092126Y-71382709D01*
X166093481Y-71385948D01*
X166181071Y-71516068D01*
X166182768Y-71517754D01*
X166183708Y-71519955D01*
X166234156Y-71593725D01*
X166325387Y-71727374D01*
X166369499Y-71792998D01*
X166328224Y-71890698D01*
X166278697Y-72006742D01*
X166133706Y-72034072D01*
X166046188Y-72050377D01*
X166044989Y-72050857D01*
X166043701Y-72050846D01*
X165881841Y-72081664D01*
X165878878Y-72082863D01*
X165875679Y-72082868D01*
X165729482Y-72112193D01*
X165725902Y-72113683D01*
X165722028Y-72113735D01*
X165598890Y-72139962D01*
X165593402Y-72142323D01*
X165587428Y-72142513D01*
X165494746Y-72164038D01*
X165482151Y-72169732D01*
X165468364Y-72170759D01*
X165413532Y-72185978D01*
X165372639Y-72206601D01*
X165327912Y-72216439D01*
X165316890Y-72221267D01*
X165302645Y-72231207D01*
X165285904Y-72235840D01*
X165233387Y-72276828D01*
X165190566Y-72298423D01*
X165166856Y-72325952D01*
X165112098Y-72364159D01*
X165102742Y-72378792D01*
X165089047Y-72389480D01*
X165044679Y-72467808D01*
X165027603Y-72487634D01*
X165021707Y-72505526D01*
X165017080Y-72512763D01*
X165004379Y-72527644D01*
X165001095Y-72537763D01*
X164977577Y-72574544D01*
X164974532Y-72591645D01*
X164965971Y-72606759D01*
X164955176Y-72639440D01*
X164947260Y-72703638D01*
X164927292Y-72765164D01*
X164918581Y-72838974D01*
X164919992Y-72856826D01*
X164915411Y-72874141D01*
X164908780Y-72980449D01*
X164909967Y-72989252D01*
X164907931Y-72997896D01*
X164903373Y-73128072D01*
X164904308Y-73133817D01*
X164903075Y-73139505D01*
X164900584Y-73284914D01*
X164901415Y-73289501D01*
X164900493Y-73294069D01*
X164900064Y-73446084D01*
X164900920Y-73450454D01*
X164900099Y-73454832D01*
X164901726Y-73604819D01*
X164902767Y-73609770D01*
X164901911Y-73614757D01*
X164905587Y-73754085D01*
X164907114Y-73760827D01*
X164906089Y-73767668D01*
X164911809Y-73887707D01*
X164914668Y-73899194D01*
X164913342Y-73910953D01*
X164921100Y-74003073D01*
X164929190Y-74031169D01*
X164928548Y-74060401D01*
X164938337Y-74115969D01*
X164972493Y-74203840D01*
X164973812Y-74208547D01*
X164987334Y-74271121D01*
X164994096Y-74280889D01*
X164997945Y-74294616D01*
X165003817Y-74306184D01*
X165020550Y-74327476D01*
X165028807Y-74348719D01*
X165073074Y-74394976D01*
X165129469Y-74476440D01*
X165145980Y-74487083D01*
X165158115Y-74502525D01*
X165196810Y-74524273D01*
X165201460Y-74529132D01*
X165219169Y-74536928D01*
X165220660Y-74538623D01*
X165234069Y-74545214D01*
X165250381Y-74554382D01*
X165339356Y-74611736D01*
X165374453Y-74625601D01*
X165411224Y-74632288D01*
X165444768Y-74648775D01*
X165519139Y-74668598D01*
X165531565Y-74669396D01*
X165542940Y-74674456D01*
X165646745Y-74697907D01*
X165654631Y-74698111D01*
X165661914Y-74701141D01*
X165785318Y-74725893D01*
X165789936Y-74725900D01*
X165794225Y-74727614D01*
X165837303Y-74735621D01*
X165838155Y-74735610D01*
X165838949Y-74735925D01*
X166045703Y-74773796D01*
X166206238Y-74803775D01*
X166241655Y-74810656D01*
X166252982Y-74838453D01*
X166299219Y-74956504D01*
X166342497Y-75071161D01*
X166317575Y-75107631D01*
X166231074Y-75233750D01*
X166206267Y-75269843D01*
X166205273Y-75272156D01*
X166203482Y-75273928D01*
X166115029Y-75404778D01*
X166112923Y-75409786D01*
X166109123Y-75413673D01*
X166031287Y-75533061D01*
X166028801Y-75539261D01*
X166024230Y-75544132D01*
X165961252Y-75645203D01*
X165957457Y-75655259D01*
X165950366Y-75663335D01*
X165906487Y-75739231D01*
X165897494Y-75765673D01*
X165880943Y-75788171D01*
X165860403Y-75832040D01*
X165843366Y-75901194D01*
X165817092Y-75957800D01*
X165816471Y-75972619D01*
X165810648Y-75987245D01*
X165809653Y-75992635D01*
X165810246Y-76035626D01*
X165800668Y-76074505D01*
X165809715Y-76133906D01*
X165806641Y-76207297D01*
X165812851Y-76224264D01*
X165813100Y-76242327D01*
X165833417Y-76289523D01*
X165838268Y-76321374D01*
X165863913Y-76363786D01*
X165892465Y-76441801D01*
X165909723Y-76470128D01*
X165943969Y-76507369D01*
X165968582Y-76551576D01*
X166016269Y-76607693D01*
X166026902Y-76616118D01*
X166033989Y-76627684D01*
X166105974Y-76705561D01*
X166111378Y-76709488D01*
X166114985Y-76715111D01*
X166205138Y-76808714D01*
X166208718Y-76811204D01*
X166211118Y-76814839D01*
X166285471Y-76890000D01*
X159186430Y-76890000D01*
X159186430Y-83110000D01*
X101040000Y-83110000D01*
X101040000Y-80442619D01*
X101764613Y-80442619D01*
X102104155Y-81264372D01*
X102732321Y-81893636D01*
X103553481Y-82234611D01*
X104442619Y-82235387D01*
X105264372Y-81895845D01*
X105875533Y-81285750D01*
X108175000Y-81285750D01*
X108175000Y-81726309D01*
X108271673Y-81959698D01*
X108450301Y-82138327D01*
X108683690Y-82235000D01*
X109124250Y-82235000D01*
X109283000Y-82076250D01*
X109283000Y-81127000D01*
X109537000Y-81127000D01*
X109537000Y-82076250D01*
X109695750Y-82235000D01*
X110136310Y-82235000D01*
X110369699Y-82138327D01*
X110548327Y-81959698D01*
X110645000Y-81726309D01*
X110645000Y-81285750D01*
X111915000Y-81285750D01*
X111915000Y-81726309D01*
X112011673Y-81959698D01*
X112190301Y-82138327D01*
X112423690Y-82235000D01*
X112864250Y-82235000D01*
X113023000Y-82076250D01*
X113023000Y-81127000D01*
X113277000Y-81127000D01*
X113277000Y-82076250D01*
X113435750Y-82235000D01*
X113876310Y-82235000D01*
X114109699Y-82138327D01*
X114288327Y-81959698D01*
X114385000Y-81726309D01*
X114385000Y-81285750D01*
X115665000Y-81285750D01*
X115665000Y-81726309D01*
X115761673Y-81959698D01*
X115940301Y-82138327D01*
X116173690Y-82235000D01*
X116614250Y-82235000D01*
X116773000Y-82076250D01*
X116773000Y-81127000D01*
X117027000Y-81127000D01*
X117027000Y-82076250D01*
X117185750Y-82235000D01*
X117626310Y-82235000D01*
X117859699Y-82138327D01*
X118038327Y-81959698D01*
X118135000Y-81726309D01*
X118135000Y-81285750D01*
X119665000Y-81285750D01*
X119665000Y-81726309D01*
X119761673Y-81959698D01*
X119940301Y-82138327D01*
X120173690Y-82235000D01*
X120614250Y-82235000D01*
X120773000Y-82076250D01*
X120773000Y-81127000D01*
X121027000Y-81127000D01*
X121027000Y-82076250D01*
X121185750Y-82235000D01*
X121626310Y-82235000D01*
X121859699Y-82138327D01*
X122038327Y-81959698D01*
X122135000Y-81726309D01*
X122135000Y-81285750D01*
X129165000Y-81285750D01*
X129165000Y-81726309D01*
X129261673Y-81959698D01*
X129440301Y-82138327D01*
X129673690Y-82235000D01*
X130114250Y-82235000D01*
X130273000Y-82076250D01*
X130273000Y-81127000D01*
X130527000Y-81127000D01*
X130527000Y-82076250D01*
X130685750Y-82235000D01*
X131126310Y-82235000D01*
X131359699Y-82138327D01*
X131538327Y-81959698D01*
X131635000Y-81726309D01*
X131635000Y-81285750D01*
X131665000Y-81285750D01*
X131665000Y-81726309D01*
X131761673Y-81959698D01*
X131940301Y-82138327D01*
X132173690Y-82235000D01*
X132614250Y-82235000D01*
X132773000Y-82076250D01*
X132773000Y-81127000D01*
X133027000Y-81127000D01*
X133027000Y-82076250D01*
X133185750Y-82235000D01*
X133626310Y-82235000D01*
X133859699Y-82138327D01*
X134038327Y-81959698D01*
X134135000Y-81726309D01*
X134135000Y-81285750D01*
X134085000Y-81235750D01*
X149065000Y-81235750D01*
X149065000Y-81676309D01*
X149161673Y-81909698D01*
X149340301Y-82088327D01*
X149573690Y-82185000D01*
X150014250Y-82185000D01*
X150173000Y-82026250D01*
X150173000Y-81077000D01*
X150427000Y-81077000D01*
X150427000Y-82026250D01*
X150585750Y-82185000D01*
X151026310Y-82185000D01*
X151259699Y-82088327D01*
X151438327Y-81909698D01*
X151535000Y-81676309D01*
X151535000Y-81235750D01*
X151376250Y-81077000D01*
X150427000Y-81077000D01*
X150173000Y-81077000D01*
X149223750Y-81077000D01*
X149065000Y-81235750D01*
X134085000Y-81235750D01*
X133976250Y-81127000D01*
X133027000Y-81127000D01*
X132773000Y-81127000D01*
X131823750Y-81127000D01*
X131665000Y-81285750D01*
X131635000Y-81285750D01*
X131476250Y-81127000D01*
X130527000Y-81127000D01*
X130273000Y-81127000D01*
X129323750Y-81127000D01*
X129165000Y-81285750D01*
X122135000Y-81285750D01*
X121976250Y-81127000D01*
X121027000Y-81127000D01*
X120773000Y-81127000D01*
X119823750Y-81127000D01*
X119665000Y-81285750D01*
X118135000Y-81285750D01*
X117976250Y-81127000D01*
X117027000Y-81127000D01*
X116773000Y-81127000D01*
X115823750Y-81127000D01*
X115665000Y-81285750D01*
X114385000Y-81285750D01*
X114226250Y-81127000D01*
X113277000Y-81127000D01*
X113023000Y-81127000D01*
X112073750Y-81127000D01*
X111915000Y-81285750D01*
X110645000Y-81285750D01*
X110486250Y-81127000D01*
X109537000Y-81127000D01*
X109283000Y-81127000D01*
X108333750Y-81127000D01*
X108175000Y-81285750D01*
X105875533Y-81285750D01*
X105893636Y-81267679D01*
X106234611Y-80446519D01*
X106235387Y-79557381D01*
X105895845Y-78735628D01*
X105267679Y-78106364D01*
X104446519Y-77765389D01*
X103557381Y-77764613D01*
X102735628Y-78104155D01*
X102106364Y-78732321D01*
X101765389Y-79553481D01*
X101764613Y-80442619D01*
X101040000Y-80442619D01*
X101040000Y-64514383D01*
X104914769Y-64514383D01*
X105117582Y-65005229D01*
X105490000Y-65378297D01*
X105490000Y-71640000D01*
X105547852Y-71930839D01*
X105712599Y-72177401D01*
X108112560Y-74577362D01*
X108112560Y-74850000D01*
X108156838Y-75085317D01*
X108295910Y-75301441D01*
X108508110Y-75446431D01*
X108521197Y-75449081D01*
X108308559Y-75585910D01*
X108163569Y-75798110D01*
X108112560Y-76050000D01*
X108112560Y-76750000D01*
X108156838Y-76985317D01*
X108295910Y-77201441D01*
X108508110Y-77346431D01*
X108650000Y-77375164D01*
X108650000Y-77582666D01*
X108574683Y-77596838D01*
X108358559Y-77735910D01*
X108213569Y-77948110D01*
X108162560Y-78200000D01*
X108162560Y-79400000D01*
X108206838Y-79635317D01*
X108345910Y-79851441D01*
X108414006Y-79897969D01*
X108271673Y-80040302D01*
X108175000Y-80273691D01*
X108175000Y-80714250D01*
X108333750Y-80873000D01*
X109283000Y-80873000D01*
X109283000Y-80853000D01*
X109537000Y-80853000D01*
X109537000Y-80873000D01*
X110486250Y-80873000D01*
X110645000Y-80714250D01*
X110645000Y-80273691D01*
X110548327Y-80040302D01*
X110407090Y-79899064D01*
X110461441Y-79864090D01*
X110606431Y-79651890D01*
X110657440Y-79400000D01*
X110657440Y-78200000D01*
X110613162Y-77964683D01*
X110474090Y-77748559D01*
X110261890Y-77603569D01*
X110170000Y-77584961D01*
X110170000Y-77376742D01*
X110295317Y-77353162D01*
X110511441Y-77214090D01*
X110656431Y-77001890D01*
X110707440Y-76750000D01*
X110707440Y-76050000D01*
X110663162Y-75814683D01*
X110524090Y-75598559D01*
X110311890Y-75453569D01*
X110298803Y-75450919D01*
X110511441Y-75314090D01*
X110656431Y-75101890D01*
X110707440Y-74850000D01*
X110707440Y-74150000D01*
X110663162Y-73914683D01*
X110524090Y-73698559D01*
X110311890Y-73553569D01*
X110060000Y-73502560D01*
X109187362Y-73502560D01*
X107010000Y-71325198D01*
X107010000Y-69334802D01*
X111857559Y-74182361D01*
X111857559Y-74850000D01*
X111901837Y-75085317D01*
X112040909Y-75301441D01*
X112253109Y-75446431D01*
X112266196Y-75449081D01*
X112053558Y-75585910D01*
X111908568Y-75798110D01*
X111857559Y-76050000D01*
X111857559Y-76750000D01*
X111901837Y-76985317D01*
X112040909Y-77201441D01*
X112253109Y-77346431D01*
X112390000Y-77374152D01*
X112390000Y-77582666D01*
X112314683Y-77596838D01*
X112098559Y-77735910D01*
X111953569Y-77948110D01*
X111902560Y-78200000D01*
X111902560Y-79400000D01*
X111946838Y-79635317D01*
X112085910Y-79851441D01*
X112154006Y-79897969D01*
X112011673Y-80040302D01*
X111915000Y-80273691D01*
X111915000Y-80714250D01*
X112073750Y-80873000D01*
X113023000Y-80873000D01*
X113023000Y-80853000D01*
X113277000Y-80853000D01*
X113277000Y-80873000D01*
X114226250Y-80873000D01*
X114385000Y-80714250D01*
X114385000Y-80273691D01*
X114288327Y-80040302D01*
X114147090Y-79899064D01*
X114201441Y-79864090D01*
X114346431Y-79651890D01*
X114397440Y-79400000D01*
X114397440Y-78200000D01*
X114353162Y-77964683D01*
X114214090Y-77748559D01*
X114001890Y-77603569D01*
X113910000Y-77584961D01*
X113910000Y-77377683D01*
X114040316Y-77353162D01*
X114256440Y-77214090D01*
X114401430Y-77001890D01*
X114452439Y-76750000D01*
X114452439Y-76050000D01*
X114408161Y-75814683D01*
X114269089Y-75598559D01*
X114056889Y-75453569D01*
X114043802Y-75450919D01*
X114256440Y-75314090D01*
X114401430Y-75101890D01*
X114452439Y-74850000D01*
X114452439Y-74567241D01*
X114922599Y-75037401D01*
X115169161Y-75202148D01*
X115460000Y-75260000D01*
X115759243Y-75260000D01*
X115785910Y-75301441D01*
X115998110Y-75446431D01*
X116011197Y-75449081D01*
X115798559Y-75585910D01*
X115653569Y-75798110D01*
X115602560Y-76050000D01*
X115602560Y-76750000D01*
X115646838Y-76985317D01*
X115785910Y-77201441D01*
X115998110Y-77346431D01*
X116140000Y-77375164D01*
X116140000Y-77582666D01*
X116064683Y-77596838D01*
X115848559Y-77735910D01*
X115703569Y-77948110D01*
X115652560Y-78200000D01*
X115652560Y-79400000D01*
X115696838Y-79635317D01*
X115835910Y-79851441D01*
X115904006Y-79897969D01*
X115761673Y-80040302D01*
X115665000Y-80273691D01*
X115665000Y-80714250D01*
X115823750Y-80873000D01*
X116773000Y-80873000D01*
X116773000Y-80853000D01*
X117027000Y-80853000D01*
X117027000Y-80873000D01*
X117976250Y-80873000D01*
X118135000Y-80714250D01*
X118135000Y-80273691D01*
X118038327Y-80040302D01*
X117897090Y-79899064D01*
X117951441Y-79864090D01*
X118096431Y-79651890D01*
X118147440Y-79400000D01*
X118147440Y-78200000D01*
X118103162Y-77964683D01*
X117964090Y-77748559D01*
X117751890Y-77603569D01*
X117660000Y-77584961D01*
X117660000Y-77376742D01*
X117785317Y-77353162D01*
X118001441Y-77214090D01*
X118146431Y-77001890D01*
X118197440Y-76750000D01*
X118197440Y-76050000D01*
X118153162Y-75814683D01*
X118014090Y-75598559D01*
X117801890Y-75453569D01*
X117788803Y-75450919D01*
X118001441Y-75314090D01*
X118146431Y-75101890D01*
X118197440Y-74850000D01*
X118197440Y-74150000D01*
X118153162Y-73914683D01*
X118014090Y-73698559D01*
X117801890Y-73553569D01*
X117550000Y-73502560D01*
X116250000Y-73502560D01*
X116014683Y-73546838D01*
X115798559Y-73685910D01*
X115766959Y-73732157D01*
X110741743Y-68706941D01*
X111086661Y-68707242D01*
X111472864Y-68547666D01*
X115462599Y-72537401D01*
X115709160Y-72702148D01*
X116000000Y-72760000D01*
X118935198Y-72760000D01*
X119836618Y-73661420D01*
X119798559Y-73685910D01*
X119653569Y-73898110D01*
X119602560Y-74150000D01*
X119602560Y-74850000D01*
X119646838Y-75085317D01*
X119785910Y-75301441D01*
X119998110Y-75446431D01*
X120011197Y-75449081D01*
X119798559Y-75585910D01*
X119653569Y-75798110D01*
X119602560Y-76050000D01*
X119602560Y-76750000D01*
X119646838Y-76985317D01*
X119785910Y-77201441D01*
X119998110Y-77346431D01*
X120140000Y-77375164D01*
X120140000Y-77582666D01*
X120064683Y-77596838D01*
X119848559Y-77735910D01*
X119703569Y-77948110D01*
X119652560Y-78200000D01*
X119652560Y-79400000D01*
X119696838Y-79635317D01*
X119835910Y-79851441D01*
X119904006Y-79897969D01*
X119761673Y-80040302D01*
X119665000Y-80273691D01*
X119665000Y-80714250D01*
X119823750Y-80873000D01*
X120773000Y-80873000D01*
X120773000Y-80853000D01*
X121027000Y-80853000D01*
X121027000Y-80873000D01*
X121976250Y-80873000D01*
X122135000Y-80714250D01*
X122135000Y-80273691D01*
X122038327Y-80040302D01*
X121897090Y-79899064D01*
X121951441Y-79864090D01*
X122096431Y-79651890D01*
X122147440Y-79400000D01*
X122147440Y-78200000D01*
X122103162Y-77964683D01*
X121964090Y-77748559D01*
X121751890Y-77603569D01*
X121660000Y-77584961D01*
X121660000Y-77376742D01*
X121785317Y-77353162D01*
X122001441Y-77214090D01*
X122146431Y-77001890D01*
X122197440Y-76750000D01*
X122197440Y-76050000D01*
X122153162Y-75814683D01*
X122014090Y-75598559D01*
X121801890Y-75453569D01*
X121788803Y-75450919D01*
X122001441Y-75314090D01*
X122146431Y-75101890D01*
X122197440Y-74850000D01*
X122197440Y-74150000D01*
X122153162Y-73914683D01*
X122014090Y-73698559D01*
X121801890Y-73553569D01*
X121634058Y-73519582D01*
X121602148Y-73359160D01*
X121437401Y-73112599D01*
X120584802Y-72260000D01*
X127085198Y-72260000D01*
X129102560Y-74277362D01*
X129102560Y-74850000D01*
X129146838Y-75085317D01*
X129285910Y-75301441D01*
X129498110Y-75446431D01*
X129511197Y-75449081D01*
X129298559Y-75585910D01*
X129153569Y-75798110D01*
X129102560Y-76050000D01*
X129102560Y-76750000D01*
X129146838Y-76985317D01*
X129285910Y-77201441D01*
X129498110Y-77346431D01*
X129640000Y-77375164D01*
X129640000Y-77582666D01*
X129564683Y-77596838D01*
X129348559Y-77735910D01*
X129203569Y-77948110D01*
X129152560Y-78200000D01*
X129152560Y-79400000D01*
X129196838Y-79635317D01*
X129335910Y-79851441D01*
X129404006Y-79897969D01*
X129261673Y-80040302D01*
X129165000Y-80273691D01*
X129165000Y-80714250D01*
X129323750Y-80873000D01*
X130273000Y-80873000D01*
X130273000Y-80853000D01*
X130527000Y-80853000D01*
X130527000Y-80873000D01*
X131476250Y-80873000D01*
X131635000Y-80714250D01*
X131635000Y-80273691D01*
X131538327Y-80040302D01*
X131397090Y-79899064D01*
X131451441Y-79864090D01*
X131596431Y-79651890D01*
X131647440Y-79400000D01*
X131647440Y-78200000D01*
X131603162Y-77964683D01*
X131464090Y-77748559D01*
X131251890Y-77603569D01*
X131160000Y-77584961D01*
X131160000Y-77376742D01*
X131285317Y-77353162D01*
X131501441Y-77214090D01*
X131646431Y-77001890D01*
X131649081Y-76988803D01*
X131785910Y-77201441D01*
X131998110Y-77346431D01*
X132140000Y-77375164D01*
X132140000Y-77582666D01*
X132064683Y-77596838D01*
X131848559Y-77735910D01*
X131703569Y-77948110D01*
X131652560Y-78200000D01*
X131652560Y-79400000D01*
X131696838Y-79635317D01*
X131835910Y-79851441D01*
X131904006Y-79897969D01*
X131761673Y-80040302D01*
X131665000Y-80273691D01*
X131665000Y-80714250D01*
X131823750Y-80873000D01*
X132773000Y-80873000D01*
X132773000Y-80853000D01*
X133027000Y-80853000D01*
X133027000Y-80873000D01*
X133976250Y-80873000D01*
X134135000Y-80714250D01*
X134135000Y-80273691D01*
X134038327Y-80040302D01*
X133897090Y-79899064D01*
X133951441Y-79864090D01*
X134096431Y-79651890D01*
X134147440Y-79400000D01*
X134147440Y-78200000D01*
X134103162Y-77964683D01*
X133964090Y-77748559D01*
X133751890Y-77603569D01*
X133660000Y-77584961D01*
X133660000Y-77376742D01*
X133785317Y-77353162D01*
X134001441Y-77214090D01*
X134146431Y-77001890D01*
X134197440Y-76750000D01*
X134197440Y-76260000D01*
X139372345Y-76260000D01*
X139742796Y-76631098D01*
X140233287Y-76834768D01*
X140764383Y-76835231D01*
X141255229Y-76632418D01*
X141631098Y-76257204D01*
X141834768Y-75766713D01*
X141835231Y-75235617D01*
X141632418Y-74744771D01*
X141500282Y-74612404D01*
X141550054Y-74579147D01*
X141777702Y-74238447D01*
X141844817Y-74381358D01*
X142273076Y-74771645D01*
X142683110Y-74941476D01*
X142913000Y-74820155D01*
X142913000Y-73627000D01*
X142893000Y-73627000D01*
X142893000Y-73373000D01*
X142913000Y-73373000D01*
X142913000Y-72179845D01*
X143167000Y-72179845D01*
X143167000Y-73373000D01*
X143187000Y-73373000D01*
X143187000Y-73627000D01*
X143167000Y-73627000D01*
X143167000Y-74820155D01*
X143396890Y-74941476D01*
X143806924Y-74771645D01*
X144109937Y-74495499D01*
X144126838Y-74585317D01*
X144265910Y-74801441D01*
X144478110Y-74946431D01*
X144730000Y-74997440D01*
X146430000Y-74997440D01*
X146665317Y-74953162D01*
X146881441Y-74814090D01*
X147026431Y-74601890D01*
X147077440Y-74350000D01*
X147077440Y-74260000D01*
X149002560Y-74260000D01*
X149002560Y-74850000D01*
X149046838Y-75085317D01*
X149185910Y-75301441D01*
X149398110Y-75446431D01*
X149411197Y-75449081D01*
X149198559Y-75585910D01*
X149053569Y-75798110D01*
X149002560Y-76050000D01*
X149002560Y-76750000D01*
X149046838Y-76985317D01*
X149185910Y-77201441D01*
X149398110Y-77346431D01*
X149540000Y-77375164D01*
X149540000Y-77532666D01*
X149464683Y-77546838D01*
X149248559Y-77685910D01*
X149103569Y-77898110D01*
X149052560Y-78150000D01*
X149052560Y-79350000D01*
X149096838Y-79585317D01*
X149235910Y-79801441D01*
X149304006Y-79847969D01*
X149161673Y-79990302D01*
X149065000Y-80223691D01*
X149065000Y-80664250D01*
X149223750Y-80823000D01*
X150173000Y-80823000D01*
X150173000Y-80803000D01*
X150427000Y-80803000D01*
X150427000Y-80823000D01*
X151376250Y-80823000D01*
X151535000Y-80664250D01*
X151535000Y-80223691D01*
X151438327Y-79990302D01*
X151297090Y-79849064D01*
X151351441Y-79814090D01*
X151496431Y-79601890D01*
X151547440Y-79350000D01*
X151547440Y-78150000D01*
X151503162Y-77914683D01*
X151364090Y-77698559D01*
X151151890Y-77553569D01*
X151060000Y-77534961D01*
X151060000Y-77376742D01*
X151185317Y-77353162D01*
X151401441Y-77214090D01*
X151546431Y-77001890D01*
X151597440Y-76750000D01*
X151597440Y-76050000D01*
X151553162Y-75814683D01*
X151414090Y-75598559D01*
X151201890Y-75453569D01*
X151188803Y-75450919D01*
X151401441Y-75314090D01*
X151546431Y-75101890D01*
X151597440Y-74850000D01*
X151597440Y-74150000D01*
X151553162Y-73914683D01*
X151414090Y-73698559D01*
X151201890Y-73553569D01*
X150950000Y-73502560D01*
X150930920Y-73502560D01*
X150837401Y-73362599D01*
X150437401Y-72962599D01*
X150190839Y-72797852D01*
X149900000Y-72740000D01*
X147077440Y-72740000D01*
X147077440Y-72650000D01*
X147033162Y-72414683D01*
X146894090Y-72198559D01*
X146681890Y-72053569D01*
X146430000Y-72002560D01*
X144730000Y-72002560D01*
X144494683Y-72046838D01*
X144278559Y-72185910D01*
X144133569Y-72398110D01*
X144111699Y-72506107D01*
X143806924Y-72228355D01*
X143396890Y-72058524D01*
X143167000Y-72179845D01*
X142913000Y-72179845D01*
X142683110Y-72058524D01*
X142273076Y-72228355D01*
X141844817Y-72618642D01*
X141777702Y-72761553D01*
X141550054Y-72420853D01*
X141068285Y-72098946D01*
X140500000Y-71985907D01*
X140133592Y-72058790D01*
X137637401Y-69562599D01*
X137390839Y-69397852D01*
X137100000Y-69340000D01*
X126614802Y-69340000D01*
X125981743Y-68706941D01*
X126326661Y-68707242D01*
X126840303Y-68495010D01*
X127233629Y-68102370D01*
X127319949Y-67894488D01*
X127404990Y-68100303D01*
X127797630Y-68493629D01*
X128310900Y-68706757D01*
X128866661Y-68707242D01*
X129380303Y-68495010D01*
X129773629Y-68102370D01*
X129859949Y-67894488D01*
X129944990Y-68100303D01*
X130337630Y-68493629D01*
X130850900Y-68706757D01*
X131406661Y-68707242D01*
X131920303Y-68495010D01*
X132313629Y-68102370D01*
X132399949Y-67894488D01*
X132484990Y-68100303D01*
X132877630Y-68493629D01*
X133390900Y-68706757D01*
X133946661Y-68707242D01*
X134460303Y-68495010D01*
X134853629Y-68102370D01*
X134939949Y-67894488D01*
X135024990Y-68100303D01*
X135417630Y-68493629D01*
X135930900Y-68706757D01*
X136486661Y-68707242D01*
X137000303Y-68495010D01*
X137393629Y-68102370D01*
X137479949Y-67894488D01*
X137564990Y-68100303D01*
X137957630Y-68493629D01*
X138470900Y-68706757D01*
X139026661Y-68707242D01*
X139540303Y-68495010D01*
X139933629Y-68102370D01*
X140019949Y-67894488D01*
X140104990Y-68100303D01*
X140497630Y-68493629D01*
X141010900Y-68706757D01*
X141566661Y-68707242D01*
X142080303Y-68495010D01*
X142473629Y-68102370D01*
X142559949Y-67894488D01*
X142644990Y-68100303D01*
X143037630Y-68493629D01*
X143550900Y-68706757D01*
X144106661Y-68707242D01*
X144620303Y-68495010D01*
X145013629Y-68102370D01*
X145099949Y-67894488D01*
X145184990Y-68100303D01*
X145577630Y-68493629D01*
X146090900Y-68706757D01*
X146646661Y-68707242D01*
X147160303Y-68495010D01*
X147553629Y-68102370D01*
X147639949Y-67894488D01*
X147724990Y-68100303D01*
X148117630Y-68493629D01*
X148630900Y-68706757D01*
X149186661Y-68707242D01*
X149700303Y-68495010D01*
X150093629Y-68102370D01*
X150179949Y-67894488D01*
X150264990Y-68100303D01*
X150657630Y-68493629D01*
X151170900Y-68706757D01*
X151726661Y-68707242D01*
X152240303Y-68495010D01*
X152445457Y-68290213D01*
X153189392Y-68290213D01*
X153258857Y-68532397D01*
X153782302Y-68719144D01*
X154337368Y-68691362D01*
X154721143Y-68532397D01*
X154790608Y-68290213D01*
X153990000Y-67489605D01*
X153189392Y-68290213D01*
X152445457Y-68290213D01*
X152633629Y-68102370D01*
X152713395Y-67910273D01*
X152767603Y-68041143D01*
X153009787Y-68110608D01*
X153810395Y-67310000D01*
X153796253Y-67295858D01*
X153975858Y-67116253D01*
X153990000Y-67130395D01*
X154004143Y-67116253D01*
X154183748Y-67295858D01*
X154169605Y-67310000D01*
X154970213Y-68110608D01*
X155212397Y-68041143D01*
X155262509Y-67900682D01*
X155344990Y-68100303D01*
X155737630Y-68493629D01*
X156250900Y-68706757D01*
X156806661Y-68707242D01*
X157320303Y-68495010D01*
X157713629Y-68102370D01*
X157727070Y-68070000D01*
X169190000Y-68070000D01*
X169480839Y-68012148D01*
X169727401Y-67847401D01*
X185437401Y-52137401D01*
X185602148Y-51890839D01*
X185660000Y-51600000D01*
X185660000Y-47910000D01*
X185602148Y-47619161D01*
X185602148Y-47619160D01*
X185437401Y-47372599D01*
X184517401Y-46452599D01*
X184377440Y-46359080D01*
X184377440Y-46140000D01*
X184333162Y-45904683D01*
X184194090Y-45688559D01*
X183981890Y-45543569D01*
X183730000Y-45492560D01*
X182030000Y-45492560D01*
X181794683Y-45536838D01*
X181578559Y-45675910D01*
X181433569Y-45888110D01*
X181419914Y-45955541D01*
X181390054Y-45910853D01*
X180908285Y-45588946D01*
X180340000Y-45475907D01*
X179973592Y-45548790D01*
X178387401Y-43962599D01*
X178140839Y-43797852D01*
X177850000Y-43740000D01*
X159020000Y-43740000D01*
X158729161Y-43797852D01*
X158482599Y-43962599D01*
X151759381Y-50685817D01*
X151729100Y-50673243D01*
X151173339Y-50672758D01*
X150659697Y-50884990D01*
X150266371Y-51277630D01*
X150180051Y-51485512D01*
X150095010Y-51279697D01*
X149702370Y-50886371D01*
X149189100Y-50673243D01*
X148633339Y-50672758D01*
X148119697Y-50884990D01*
X147726371Y-51277630D01*
X147640051Y-51485512D01*
X147555010Y-51279697D01*
X147162370Y-50886371D01*
X146649100Y-50673243D01*
X146093339Y-50672758D01*
X145579697Y-50884990D01*
X145186371Y-51277630D01*
X145100051Y-51485512D01*
X145015010Y-51279697D01*
X144622370Y-50886371D01*
X144109100Y-50673243D01*
X143553339Y-50672758D01*
X143039697Y-50884990D01*
X142646371Y-51277630D01*
X142560051Y-51485512D01*
X142475010Y-51279697D01*
X142082370Y-50886371D01*
X141569100Y-50673243D01*
X141013339Y-50672758D01*
X140499697Y-50884990D01*
X140106371Y-51277630D01*
X140020051Y-51485512D01*
X139935010Y-51279697D01*
X139542370Y-50886371D01*
X139029100Y-50673243D01*
X138473339Y-50672758D01*
X137959697Y-50884990D01*
X137566371Y-51277630D01*
X137480051Y-51485512D01*
X137395010Y-51279697D01*
X137002370Y-50886371D01*
X136489100Y-50673243D01*
X135933339Y-50672758D01*
X135419697Y-50884990D01*
X135026371Y-51277630D01*
X134940051Y-51485512D01*
X134855010Y-51279697D01*
X134462370Y-50886371D01*
X133949100Y-50673243D01*
X133393339Y-50672758D01*
X132879697Y-50884990D01*
X132486371Y-51277630D01*
X132400051Y-51485512D01*
X132315010Y-51279697D01*
X131922370Y-50886371D01*
X131409100Y-50673243D01*
X130853339Y-50672758D01*
X130339697Y-50884990D01*
X129946371Y-51277630D01*
X129860051Y-51485512D01*
X129775010Y-51279697D01*
X129382370Y-50886371D01*
X128869100Y-50673243D01*
X128313339Y-50672758D01*
X127799697Y-50884990D01*
X127406371Y-51277630D01*
X127320051Y-51485512D01*
X127235010Y-51279697D01*
X126842370Y-50886371D01*
X126329100Y-50673243D01*
X125773339Y-50672758D01*
X125259697Y-50884990D01*
X124866371Y-51277630D01*
X124780051Y-51485512D01*
X124695010Y-51279697D01*
X124302370Y-50886371D01*
X123789100Y-50673243D01*
X123233339Y-50672758D01*
X122719697Y-50884990D01*
X122326371Y-51277630D01*
X122240051Y-51485512D01*
X122155010Y-51279697D01*
X121762370Y-50886371D01*
X121249100Y-50673243D01*
X120693339Y-50672758D01*
X120179697Y-50884990D01*
X119786371Y-51277630D01*
X119700051Y-51485512D01*
X119615010Y-51279697D01*
X119222370Y-50886371D01*
X119190000Y-50872930D01*
X119190000Y-49424802D01*
X121173592Y-47441210D01*
X121540000Y-47514093D01*
X122108285Y-47401054D01*
X122590054Y-47079147D01*
X122911961Y-46597378D01*
X122973947Y-46285750D01*
X137915000Y-46285750D01*
X137915000Y-46976309D01*
X138011673Y-47209698D01*
X138190301Y-47388327D01*
X138423690Y-47485000D01*
X139114250Y-47485000D01*
X139273000Y-47326250D01*
X139273000Y-46127000D01*
X138073750Y-46127000D01*
X137915000Y-46285750D01*
X122973947Y-46285750D01*
X123025000Y-46029093D01*
X123025000Y-45970907D01*
X122911961Y-45402622D01*
X122658768Y-45023691D01*
X137915000Y-45023691D01*
X137915000Y-45714250D01*
X138073750Y-45873000D01*
X139273000Y-45873000D01*
X139273000Y-44673750D01*
X139527000Y-44673750D01*
X139527000Y-45873000D01*
X139547000Y-45873000D01*
X139547000Y-46127000D01*
X139527000Y-46127000D01*
X139527000Y-47326250D01*
X139685750Y-47485000D01*
X140376310Y-47485000D01*
X140609699Y-47388327D01*
X140788327Y-47209698D01*
X140860597Y-47035223D01*
X140889946Y-47079147D01*
X141371715Y-47401054D01*
X141940000Y-47514093D01*
X142508285Y-47401054D01*
X142990054Y-47079147D01*
X143210000Y-46749974D01*
X143429946Y-47079147D01*
X143911715Y-47401054D01*
X144480000Y-47514093D01*
X145048285Y-47401054D01*
X145530054Y-47079147D01*
X145851961Y-46597378D01*
X145965000Y-46029093D01*
X145965000Y-45970907D01*
X145851961Y-45402622D01*
X145530054Y-44920853D01*
X145048285Y-44598946D01*
X144480000Y-44485907D01*
X143911715Y-44598946D01*
X143429946Y-44920853D01*
X143210000Y-45250026D01*
X142990054Y-44920853D01*
X142508285Y-44598946D01*
X141940000Y-44485907D01*
X141371715Y-44598946D01*
X140889946Y-44920853D01*
X140860597Y-44964777D01*
X140788327Y-44790302D01*
X140609699Y-44611673D01*
X140376310Y-44515000D01*
X139685750Y-44515000D01*
X139527000Y-44673750D01*
X139273000Y-44673750D01*
X139114250Y-44515000D01*
X138423690Y-44515000D01*
X138190301Y-44611673D01*
X138011673Y-44790302D01*
X137915000Y-45023691D01*
X122658768Y-45023691D01*
X122590054Y-44920853D01*
X122108285Y-44598946D01*
X121540000Y-44485907D01*
X120971715Y-44598946D01*
X120489946Y-44920853D01*
X120270000Y-45250026D01*
X120050054Y-44920853D01*
X119568285Y-44598946D01*
X119000000Y-44485907D01*
X118431715Y-44598946D01*
X117949946Y-44920853D01*
X117722298Y-45261553D01*
X117655183Y-45118642D01*
X117226924Y-44728355D01*
X116816890Y-44558524D01*
X116587000Y-44679845D01*
X116587000Y-45873000D01*
X116607000Y-45873000D01*
X116607000Y-46127000D01*
X116587000Y-46127000D01*
X116587000Y-47320155D01*
X116816890Y-47441476D01*
X117226924Y-47271645D01*
X117655183Y-46881358D01*
X117722298Y-46738447D01*
X117949946Y-47079147D01*
X118431715Y-47401054D01*
X118959217Y-47505981D01*
X117892599Y-48572599D01*
X117727852Y-48819161D01*
X117670000Y-49110000D01*
X117670000Y-50872469D01*
X117639697Y-50884990D01*
X117246371Y-51277630D01*
X117160051Y-51485512D01*
X117075010Y-51279697D01*
X116682370Y-50886371D01*
X116169100Y-50673243D01*
X115613339Y-50672758D01*
X115099697Y-50884990D01*
X114706371Y-51277630D01*
X114620051Y-51485512D01*
X114535010Y-51279697D01*
X114142370Y-50886371D01*
X113629100Y-50673243D01*
X113073339Y-50672758D01*
X112559697Y-50884990D01*
X112166371Y-51277630D01*
X112086605Y-51469727D01*
X112032397Y-51338857D01*
X111790213Y-51269392D01*
X110989605Y-52070000D01*
X111790213Y-52870608D01*
X112032397Y-52801143D01*
X112082509Y-52660682D01*
X112164990Y-52860303D01*
X112557630Y-53253629D01*
X113070900Y-53466757D01*
X113626661Y-53467242D01*
X114140303Y-53255010D01*
X114533629Y-52862370D01*
X114619949Y-52654488D01*
X114704990Y-52860303D01*
X115097630Y-53253629D01*
X115610900Y-53466757D01*
X116166661Y-53467242D01*
X116680303Y-53255010D01*
X117073629Y-52862370D01*
X117159949Y-52654488D01*
X117244990Y-52860303D01*
X117637630Y-53253629D01*
X118150900Y-53466757D01*
X118458173Y-53467025D01*
X107584922Y-64340276D01*
X107585231Y-63985617D01*
X107382418Y-63494771D01*
X107007204Y-63118902D01*
X106516713Y-62915232D01*
X105985617Y-62914769D01*
X105494771Y-63117582D01*
X105118902Y-63492796D01*
X104915232Y-63983287D01*
X104914769Y-64514383D01*
X101040000Y-64514383D01*
X101040000Y-53050213D01*
X107469392Y-53050213D01*
X107538857Y-53292397D01*
X108062302Y-53479144D01*
X108617368Y-53451362D01*
X109001143Y-53292397D01*
X109070608Y-53050213D01*
X110009392Y-53050213D01*
X110078857Y-53292397D01*
X110602302Y-53479144D01*
X111157368Y-53451362D01*
X111541143Y-53292397D01*
X111610608Y-53050213D01*
X110810000Y-52249605D01*
X110009392Y-53050213D01*
X109070608Y-53050213D01*
X108270000Y-52249605D01*
X107469392Y-53050213D01*
X101040000Y-53050213D01*
X101040000Y-51862302D01*
X106860856Y-51862302D01*
X106888638Y-52417368D01*
X107047603Y-52801143D01*
X107289787Y-52870608D01*
X108090395Y-52070000D01*
X108449605Y-52070000D01*
X109250213Y-52870608D01*
X109492397Y-52801143D01*
X109536453Y-52677656D01*
X109587603Y-52801143D01*
X109829787Y-52870608D01*
X110630395Y-52070000D01*
X109829787Y-51269392D01*
X109587603Y-51338857D01*
X109543547Y-51462344D01*
X109492397Y-51338857D01*
X109250213Y-51269392D01*
X108449605Y-52070000D01*
X108090395Y-52070000D01*
X107289787Y-51269392D01*
X107047603Y-51338857D01*
X106860856Y-51862302D01*
X101040000Y-51862302D01*
X101040000Y-51089787D01*
X107469392Y-51089787D01*
X108270000Y-51890395D01*
X109070608Y-51089787D01*
X110009392Y-51089787D01*
X110810000Y-51890395D01*
X111610608Y-51089787D01*
X111541143Y-50847603D01*
X111017698Y-50660856D01*
X110462632Y-50688638D01*
X110078857Y-50847603D01*
X110009392Y-51089787D01*
X109070608Y-51089787D01*
X109001143Y-50847603D01*
X108477698Y-50660856D01*
X107922632Y-50688638D01*
X107538857Y-50847603D01*
X107469392Y-51089787D01*
X101040000Y-51089787D01*
X101040000Y-45150000D01*
X112422560Y-45150000D01*
X112422560Y-46850000D01*
X112466838Y-47085317D01*
X112605910Y-47301441D01*
X112818110Y-47446431D01*
X113070000Y-47497440D01*
X114770000Y-47497440D01*
X115005317Y-47453162D01*
X115221441Y-47314090D01*
X115366431Y-47101890D01*
X115388301Y-46993893D01*
X115693076Y-47271645D01*
X116103110Y-47441476D01*
X116333000Y-47320155D01*
X116333000Y-46127000D01*
X116313000Y-46127000D01*
X116313000Y-45873000D01*
X116333000Y-45873000D01*
X116333000Y-44679845D01*
X116103110Y-44558524D01*
X115693076Y-44728355D01*
X115390063Y-45004501D01*
X115373162Y-44914683D01*
X115234090Y-44698559D01*
X115021890Y-44553569D01*
X114770000Y-44502560D01*
X113070000Y-44502560D01*
X112834683Y-44546838D01*
X112618559Y-44685910D01*
X112473569Y-44898110D01*
X112422560Y-45150000D01*
X101040000Y-45150000D01*
X101040000Y-39942619D01*
X101764613Y-39942619D01*
X102104155Y-40764372D01*
X102732321Y-41393636D01*
X103553481Y-41734611D01*
X104442619Y-41735387D01*
X105264372Y-41395845D01*
X105893636Y-40767679D01*
X106028612Y-40442619D01*
X181764613Y-40442619D01*
X182104155Y-41264372D01*
X182732321Y-41893636D01*
X183553481Y-42234611D01*
X184442619Y-42235387D01*
X185264372Y-41895845D01*
X185893636Y-41267679D01*
X186234611Y-40446519D01*
X186235387Y-39557381D01*
X185895845Y-38735628D01*
X185267679Y-38106364D01*
X184446519Y-37765389D01*
X183557381Y-37764613D01*
X182735628Y-38104155D01*
X182106364Y-38732321D01*
X181765389Y-39553481D01*
X181764613Y-40442619D01*
X106028612Y-40442619D01*
X106234611Y-39946519D01*
X106235387Y-39057381D01*
X105895845Y-38235628D01*
X105267679Y-37606364D01*
X104446519Y-37265389D01*
X103557381Y-37264613D01*
X102735628Y-37604155D01*
X102106364Y-38232321D01*
X101765389Y-39053481D01*
X101764613Y-39942619D01*
X101040000Y-39942619D01*
X101040000Y-36270000D01*
X187250000Y-36270000D01*
X187250000Y-83110000D01*
G36*
X177759217Y-45484019D02*
X177231715Y-45588946D01*
X176749946Y-45910853D01*
X176530000Y-46240026D01*
X176310054Y-45910853D01*
X175828285Y-45588946D01*
X175260000Y-45475907D01*
X174691715Y-45588946D01*
X174209946Y-45910853D01*
X173990000Y-46240026D01*
X173770054Y-45910853D01*
X173288285Y-45588946D01*
X172720000Y-45475907D01*
X172151715Y-45588946D01*
X171669946Y-45910853D01*
X171450000Y-46240026D01*
X171230054Y-45910853D01*
X170748285Y-45588946D01*
X170180000Y-45475907D01*
X169611715Y-45588946D01*
X169129946Y-45910853D01*
X168902298Y-46251553D01*
X168835183Y-46108642D01*
X168406924Y-45718355D01*
X167996890Y-45548524D01*
X167767000Y-45669845D01*
X167767000Y-46863000D01*
X167787000Y-46863000D01*
X167787000Y-47117000D01*
X167767000Y-47117000D01*
X167767000Y-49403000D01*
X167787000Y-49403000D01*
X167787000Y-49657000D01*
X167767000Y-49657000D01*
X167767000Y-50850155D01*
X167996890Y-50971476D01*
X168406924Y-50801645D01*
X168835183Y-50411358D01*
X168902298Y-50268447D01*
X169129946Y-50609147D01*
X169611715Y-50931054D01*
X170180000Y-51044093D01*
X170748285Y-50931054D01*
X171230054Y-50609147D01*
X171450000Y-50279974D01*
X171669946Y-50609147D01*
X172151715Y-50931054D01*
X172720000Y-51044093D01*
X173240000Y-50940658D01*
X173240000Y-59185198D01*
X168835208Y-63589990D01*
X134090010Y-63589990D01*
X133799171Y-63647842D01*
X133552609Y-63812589D01*
X131439381Y-65925817D01*
X131409100Y-65913243D01*
X130853339Y-65912758D01*
X130339697Y-66124990D01*
X129946371Y-66517630D01*
X129860051Y-66725512D01*
X129775010Y-66519697D01*
X129382370Y-66126371D01*
X128869100Y-65913243D01*
X128313339Y-65912758D01*
X127799697Y-66124990D01*
X127406371Y-66517630D01*
X127320051Y-66725512D01*
X127235010Y-66519697D01*
X126842370Y-66126371D01*
X126329100Y-65913243D01*
X125773339Y-65912758D01*
X125259697Y-66124990D01*
X124866371Y-66517630D01*
X124780051Y-66725512D01*
X124695010Y-66519697D01*
X124302370Y-66126371D01*
X123789100Y-65913243D01*
X123233339Y-65912758D01*
X122719697Y-66124990D01*
X122326371Y-66517630D01*
X122240051Y-66725512D01*
X122155010Y-66519697D01*
X121762370Y-66126371D01*
X121249100Y-65913243D01*
X120693339Y-65912758D01*
X120179697Y-66124990D01*
X119786371Y-66517630D01*
X119700051Y-66725512D01*
X119615010Y-66519697D01*
X119222370Y-66126371D01*
X118709100Y-65913243D01*
X118153339Y-65912758D01*
X117639697Y-66124990D01*
X117246371Y-66517630D01*
X117160051Y-66725512D01*
X117075010Y-66519697D01*
X116682370Y-66126371D01*
X116169100Y-65913243D01*
X115613339Y-65912758D01*
X115099697Y-66124990D01*
X114706371Y-66517630D01*
X114620051Y-66725512D01*
X114535010Y-66519697D01*
X114142370Y-66126371D01*
X113629100Y-65913243D01*
X113281862Y-65912940D01*
X125740619Y-53454183D01*
X125770900Y-53466757D01*
X126326661Y-53467242D01*
X126840303Y-53255010D01*
X127233629Y-52862370D01*
X127319949Y-52654488D01*
X127404990Y-52860303D01*
X127797630Y-53253629D01*
X128310900Y-53466757D01*
X128866661Y-53467242D01*
X129380303Y-53255010D01*
X129773629Y-52862370D01*
X129859949Y-52654488D01*
X129944990Y-52860303D01*
X130337630Y-53253629D01*
X130850900Y-53466757D01*
X131406661Y-53467242D01*
X131920303Y-53255010D01*
X132313629Y-52862370D01*
X132399949Y-52654488D01*
X132484990Y-52860303D01*
X132877630Y-53253629D01*
X133390900Y-53466757D01*
X133946661Y-53467242D01*
X134460303Y-53255010D01*
X134853629Y-52862370D01*
X134939949Y-52654488D01*
X135024990Y-52860303D01*
X135417630Y-53253629D01*
X135930900Y-53466757D01*
X136486661Y-53467242D01*
X137000303Y-53255010D01*
X137393629Y-52862370D01*
X137479949Y-52654488D01*
X137564990Y-52860303D01*
X137957630Y-53253629D01*
X138470900Y-53466757D01*
X139026661Y-53467242D01*
X139540303Y-53255010D01*
X139933629Y-52862370D01*
X140019949Y-52654488D01*
X140104990Y-52860303D01*
X140497630Y-53253629D01*
X141010900Y-53466757D01*
X141566661Y-53467242D01*
X142080303Y-53255010D01*
X142473629Y-52862370D01*
X142559949Y-52654488D01*
X142644990Y-52860303D01*
X143037630Y-53253629D01*
X143550900Y-53466757D01*
X144106661Y-53467242D01*
X144620303Y-53255010D01*
X145013629Y-52862370D01*
X145099949Y-52654488D01*
X145184990Y-52860303D01*
X145577630Y-53253629D01*
X146090900Y-53466757D01*
X146646661Y-53467242D01*
X147160303Y-53255010D01*
X147553629Y-52862370D01*
X147639949Y-52654488D01*
X147724990Y-52860303D01*
X148117630Y-53253629D01*
X148630900Y-53466757D01*
X149186661Y-53467242D01*
X149700303Y-53255010D01*
X150093629Y-52862370D01*
X150179949Y-52654488D01*
X150264990Y-52860303D01*
X150657630Y-53253629D01*
X151170900Y-53466757D01*
X151726661Y-53467242D01*
X152240303Y-53255010D01*
X152633629Y-52862370D01*
X152719949Y-52654488D01*
X152804990Y-52860303D01*
X153197630Y-53253629D01*
X153710900Y-53466757D01*
X154266661Y-53467242D01*
X154780303Y-53255010D01*
X155173629Y-52862370D01*
X155259949Y-52654488D01*
X155344990Y-52860303D01*
X155737630Y-53253629D01*
X156250900Y-53466757D01*
X156806661Y-53467242D01*
X157320303Y-53255010D01*
X157713629Y-52862370D01*
X157926757Y-52349100D01*
X157927242Y-51793339D01*
X157715010Y-51279697D01*
X157322370Y-50886371D01*
X156809100Y-50673243D01*
X156253339Y-50672758D01*
X155739697Y-50884990D01*
X155346371Y-51277630D01*
X155260051Y-51485512D01*
X155175010Y-51279697D01*
X154782370Y-50886371D01*
X154269100Y-50673243D01*
X153921862Y-50672940D01*
X154707910Y-49886892D01*
X166198514Y-49886892D01*
X166444817Y-50411358D01*
X166873076Y-50801645D01*
X167283110Y-50971476D01*
X167513000Y-50850155D01*
X167513000Y-49657000D01*
X166319181Y-49657000D01*
X166198514Y-49886892D01*
X154707910Y-49886892D01*
X157247910Y-47346892D01*
X166198514Y-47346892D01*
X166444817Y-47871358D01*
X166871271Y-48260000D01*
X166444817Y-48648642D01*
X166198514Y-49173108D01*
X166319181Y-49403000D01*
X167513000Y-49403000D01*
X167513000Y-47117000D01*
X166319181Y-47117000D01*
X166198514Y-47346892D01*
X157247910Y-47346892D01*
X157961694Y-46633108D01*
X166198514Y-46633108D01*
X166319181Y-46863000D01*
X167513000Y-46863000D01*
X167513000Y-45669845D01*
X167283110Y-45548524D01*
X166873076Y-45718355D01*
X166444817Y-46108642D01*
X166198514Y-46633108D01*
X157961694Y-46633108D01*
X159334802Y-45260000D01*
X177535198Y-45260000D01*
X177759217Y-45484019D01*
X177759217Y-45484019D01*
G37*
X177759217Y-45484019D02*
X177231715Y-45588946D01*
X176749946Y-45910853D01*
X176530000Y-46240026D01*
X176310054Y-45910853D01*
X175828285Y-45588946D01*
X175260000Y-45475907D01*
X174691715Y-45588946D01*
X174209946Y-45910853D01*
X173990000Y-46240026D01*
X173770054Y-45910853D01*
X173288285Y-45588946D01*
X172720000Y-45475907D01*
X172151715Y-45588946D01*
X171669946Y-45910853D01*
X171450000Y-46240026D01*
X171230054Y-45910853D01*
X170748285Y-45588946D01*
X170180000Y-45475907D01*
X169611715Y-45588946D01*
X169129946Y-45910853D01*
X168902298Y-46251553D01*
X168835183Y-46108642D01*
X168406924Y-45718355D01*
X167996890Y-45548524D01*
X167767000Y-45669845D01*
X167767000Y-46863000D01*
X167787000Y-46863000D01*
X167787000Y-47117000D01*
X167767000Y-47117000D01*
X167767000Y-49403000D01*
X167787000Y-49403000D01*
X167787000Y-49657000D01*
X167767000Y-49657000D01*
X167767000Y-50850155D01*
X167996890Y-50971476D01*
X168406924Y-50801645D01*
X168835183Y-50411358D01*
X168902298Y-50268447D01*
X169129946Y-50609147D01*
X169611715Y-50931054D01*
X170180000Y-51044093D01*
X170748285Y-50931054D01*
X171230054Y-50609147D01*
X171450000Y-50279974D01*
X171669946Y-50609147D01*
X172151715Y-50931054D01*
X172720000Y-51044093D01*
X173240000Y-50940658D01*
X173240000Y-59185198D01*
X168835208Y-63589990D01*
X134090010Y-63589990D01*
X133799171Y-63647842D01*
X133552609Y-63812589D01*
X131439381Y-65925817D01*
X131409100Y-65913243D01*
X130853339Y-65912758D01*
X130339697Y-66124990D01*
X129946371Y-66517630D01*
X129860051Y-66725512D01*
X129775010Y-66519697D01*
X129382370Y-66126371D01*
X128869100Y-65913243D01*
X128313339Y-65912758D01*
X127799697Y-66124990D01*
X127406371Y-66517630D01*
X127320051Y-66725512D01*
X127235010Y-66519697D01*
X126842370Y-66126371D01*
X126329100Y-65913243D01*
X125773339Y-65912758D01*
X125259697Y-66124990D01*
X124866371Y-66517630D01*
X124780051Y-66725512D01*
X124695010Y-66519697D01*
X124302370Y-66126371D01*
X123789100Y-65913243D01*
X123233339Y-65912758D01*
X122719697Y-66124990D01*
X122326371Y-66517630D01*
X122240051Y-66725512D01*
X122155010Y-66519697D01*
X121762370Y-66126371D01*
X121249100Y-65913243D01*
X120693339Y-65912758D01*
X120179697Y-66124990D01*
X119786371Y-66517630D01*
X119700051Y-66725512D01*
X119615010Y-66519697D01*
X119222370Y-66126371D01*
X118709100Y-65913243D01*
X118153339Y-65912758D01*
X117639697Y-66124990D01*
X117246371Y-66517630D01*
X117160051Y-66725512D01*
X117075010Y-66519697D01*
X116682370Y-66126371D01*
X116169100Y-65913243D01*
X115613339Y-65912758D01*
X115099697Y-66124990D01*
X114706371Y-66517630D01*
X114620051Y-66725512D01*
X114535010Y-66519697D01*
X114142370Y-66126371D01*
X113629100Y-65913243D01*
X113281862Y-65912940D01*
X125740619Y-53454183D01*
X125770900Y-53466757D01*
X126326661Y-53467242D01*
X126840303Y-53255010D01*
X127233629Y-52862370D01*
X127319949Y-52654488D01*
X127404990Y-52860303D01*
X127797630Y-53253629D01*
X128310900Y-53466757D01*
X128866661Y-53467242D01*
X129380303Y-53255010D01*
X129773629Y-52862370D01*
X129859949Y-52654488D01*
X129944990Y-52860303D01*
X130337630Y-53253629D01*
X130850900Y-53466757D01*
X131406661Y-53467242D01*
X131920303Y-53255010D01*
X132313629Y-52862370D01*
X132399949Y-52654488D01*
X132484990Y-52860303D01*
X132877630Y-53253629D01*
X133390900Y-53466757D01*
X133946661Y-53467242D01*
X134460303Y-53255010D01*
X134853629Y-52862370D01*
X134939949Y-52654488D01*
X135024990Y-52860303D01*
X135417630Y-53253629D01*
X135930900Y-53466757D01*
X136486661Y-53467242D01*
X137000303Y-53255010D01*
X137393629Y-52862370D01*
X137479949Y-52654488D01*
X137564990Y-52860303D01*
X137957630Y-53253629D01*
X138470900Y-53466757D01*
X139026661Y-53467242D01*
X139540303Y-53255010D01*
X139933629Y-52862370D01*
X140019949Y-52654488D01*
X140104990Y-52860303D01*
X140497630Y-53253629D01*
X141010900Y-53466757D01*
X141566661Y-53467242D01*
X142080303Y-53255010D01*
X142473629Y-52862370D01*
X142559949Y-52654488D01*
X142644990Y-52860303D01*
X143037630Y-53253629D01*
X143550900Y-53466757D01*
X144106661Y-53467242D01*
X144620303Y-53255010D01*
X145013629Y-52862370D01*
X145099949Y-52654488D01*
X145184990Y-52860303D01*
X145577630Y-53253629D01*
X146090900Y-53466757D01*
X146646661Y-53467242D01*
X147160303Y-53255010D01*
X147553629Y-52862370D01*
X147639949Y-52654488D01*
X147724990Y-52860303D01*
X148117630Y-53253629D01*
X148630900Y-53466757D01*
X149186661Y-53467242D01*
X149700303Y-53255010D01*
X150093629Y-52862370D01*
X150179949Y-52654488D01*
X150264990Y-52860303D01*
X150657630Y-53253629D01*
X151170900Y-53466757D01*
X151726661Y-53467242D01*
X152240303Y-53255010D01*
X152633629Y-52862370D01*
X152719949Y-52654488D01*
X152804990Y-52860303D01*
X153197630Y-53253629D01*
X153710900Y-53466757D01*
X154266661Y-53467242D01*
X154780303Y-53255010D01*
X155173629Y-52862370D01*
X155259949Y-52654488D01*
X155344990Y-52860303D01*
X155737630Y-53253629D01*
X156250900Y-53466757D01*
X156806661Y-53467242D01*
X157320303Y-53255010D01*
X157713629Y-52862370D01*
X157926757Y-52349100D01*
X157927242Y-51793339D01*
X157715010Y-51279697D01*
X157322370Y-50886371D01*
X156809100Y-50673243D01*
X156253339Y-50672758D01*
X155739697Y-50884990D01*
X155346371Y-51277630D01*
X155260051Y-51485512D01*
X155175010Y-51279697D01*
X154782370Y-50886371D01*
X154269100Y-50673243D01*
X153921862Y-50672940D01*
X154707910Y-49886892D01*
X166198514Y-49886892D01*
X166444817Y-50411358D01*
X166873076Y-50801645D01*
X167283110Y-50971476D01*
X167513000Y-50850155D01*
X167513000Y-49657000D01*
X166319181Y-49657000D01*
X166198514Y-49886892D01*
X154707910Y-49886892D01*
X157247910Y-47346892D01*
X166198514Y-47346892D01*
X166444817Y-47871358D01*
X166871271Y-48260000D01*
X166444817Y-48648642D01*
X166198514Y-49173108D01*
X166319181Y-49403000D01*
X167513000Y-49403000D01*
X167513000Y-47117000D01*
X166319181Y-47117000D01*
X166198514Y-47346892D01*
X157247910Y-47346892D01*
X157961694Y-46633108D01*
X166198514Y-46633108D01*
X166319181Y-46863000D01*
X167513000Y-46863000D01*
X167513000Y-45669845D01*
X167283110Y-45548524D01*
X166873076Y-45718355D01*
X166444817Y-46108642D01*
X166198514Y-46633108D01*
X157961694Y-46633108D01*
X159334802Y-45260000D01*
X177535198Y-45260000D01*
X177759217Y-45484019D01*
M02*
