G04 #@! TF.FileFunction,Other,Fab,Top*
%FSLAX46Y46*%
G04 Gerber Fmt 4.6, Leading zero omitted, Abs format (unit mm)*
G04 Created by KiCad (PCBNEW 4.0.6) date Thursday, 29 June 2017 'AMt' 11:53:14*
%MOMM*%
%LPD*%
G01*
G04 APERTURE LIST*
%ADD10C,0.100000*%
%ADD11C,0.150000*%
G04 APERTURE END LIST*
D10*
X112650000Y-44600000D02*
X115190000Y-44600000D01*
X115190000Y-44600000D02*
X115190000Y-42100000D01*
X115190000Y-42100000D02*
X112650000Y-42100000D01*
X112650000Y-42100000D02*
X112650000Y-44600000D01*
X113600000Y-46000000D02*
X114240000Y-46000000D01*
X114240000Y-46000000D02*
X114240000Y-36100000D01*
X114240000Y-36100000D02*
X113600000Y-36100000D01*
X113600000Y-36100000D02*
X113600000Y-46000000D01*
X115190000Y-44600000D02*
X117730000Y-44600000D01*
X117730000Y-44600000D02*
X117730000Y-42100000D01*
X117730000Y-42100000D02*
X115190000Y-42100000D01*
X115190000Y-42100000D02*
X115190000Y-44600000D01*
X116140000Y-46000000D02*
X116780000Y-46000000D01*
X116780000Y-46000000D02*
X116780000Y-36100000D01*
X116780000Y-36100000D02*
X116140000Y-36100000D01*
X116140000Y-36100000D02*
X116140000Y-46000000D01*
X117730000Y-44600000D02*
X120270000Y-44600000D01*
X120270000Y-44600000D02*
X120270000Y-42100000D01*
X120270000Y-42100000D02*
X117730000Y-42100000D01*
X117730000Y-42100000D02*
X117730000Y-44600000D01*
X118680000Y-46000000D02*
X119320000Y-46000000D01*
X119320000Y-46000000D02*
X119320000Y-36100000D01*
X119320000Y-36100000D02*
X118680000Y-36100000D01*
X118680000Y-36100000D02*
X118680000Y-46000000D01*
X120270000Y-44600000D02*
X122810000Y-44600000D01*
X122810000Y-44600000D02*
X122810000Y-42100000D01*
X122810000Y-42100000D02*
X120270000Y-42100000D01*
X120270000Y-42100000D02*
X120270000Y-44600000D01*
X121220000Y-46000000D02*
X121860000Y-46000000D01*
X121860000Y-46000000D02*
X121860000Y-36100000D01*
X121860000Y-36100000D02*
X121220000Y-36100000D01*
X121220000Y-36100000D02*
X121220000Y-46000000D01*
X184150000Y-45720000D02*
X166370000Y-45720000D01*
X166370000Y-45720000D02*
X166370000Y-50800000D01*
X166370000Y-50800000D02*
X184150000Y-50800000D01*
X184150000Y-50800000D02*
X184150000Y-45720000D01*
X138130000Y-44600000D02*
X140670000Y-44600000D01*
X140670000Y-44600000D02*
X140670000Y-42100000D01*
X140670000Y-42100000D02*
X138130000Y-42100000D01*
X138130000Y-42100000D02*
X138130000Y-44600000D01*
X139080000Y-46000000D02*
X139720000Y-46000000D01*
X139720000Y-46000000D02*
X139720000Y-36100000D01*
X139720000Y-36100000D02*
X139080000Y-36100000D01*
X139080000Y-36100000D02*
X139080000Y-46000000D01*
X140670000Y-44600000D02*
X143210000Y-44600000D01*
X143210000Y-44600000D02*
X143210000Y-42100000D01*
X143210000Y-42100000D02*
X140670000Y-42100000D01*
X140670000Y-42100000D02*
X140670000Y-44600000D01*
X141620000Y-46000000D02*
X142260000Y-46000000D01*
X142260000Y-46000000D02*
X142260000Y-36100000D01*
X142260000Y-36100000D02*
X141620000Y-36100000D01*
X141620000Y-36100000D02*
X141620000Y-46000000D01*
X143210000Y-44600000D02*
X145750000Y-44600000D01*
X145750000Y-44600000D02*
X145750000Y-42100000D01*
X145750000Y-42100000D02*
X143210000Y-42100000D01*
X143210000Y-42100000D02*
X143210000Y-44600000D01*
X144160000Y-46000000D02*
X144800000Y-46000000D01*
X144800000Y-46000000D02*
X144800000Y-36100000D01*
X144800000Y-36100000D02*
X144160000Y-36100000D01*
X144160000Y-36100000D02*
X144160000Y-46000000D01*
X146850000Y-74900000D02*
X144310000Y-74900000D01*
X144310000Y-74900000D02*
X144310000Y-77400000D01*
X144310000Y-77400000D02*
X146850000Y-77400000D01*
X146850000Y-77400000D02*
X146850000Y-74900000D01*
X145900000Y-73500000D02*
X145260000Y-73500000D01*
X145260000Y-73500000D02*
X145260000Y-83400000D01*
X145260000Y-83400000D02*
X145900000Y-83400000D01*
X145900000Y-83400000D02*
X145900000Y-73500000D01*
X144310000Y-74900000D02*
X141770000Y-74900000D01*
X141770000Y-74900000D02*
X141770000Y-77400000D01*
X141770000Y-77400000D02*
X144310000Y-77400000D01*
X144310000Y-77400000D02*
X144310000Y-74900000D01*
X143360000Y-73500000D02*
X142720000Y-73500000D01*
X142720000Y-73500000D02*
X142720000Y-83400000D01*
X142720000Y-83400000D02*
X143360000Y-83400000D01*
X143360000Y-83400000D02*
X143360000Y-73500000D01*
X141770000Y-74900000D02*
X139230000Y-74900000D01*
X139230000Y-74900000D02*
X139230000Y-77400000D01*
X139230000Y-77400000D02*
X141770000Y-77400000D01*
X141770000Y-77400000D02*
X141770000Y-74900000D01*
X140820000Y-73500000D02*
X140180000Y-73500000D01*
X140180000Y-73500000D02*
X140180000Y-83400000D01*
X140180000Y-83400000D02*
X140820000Y-83400000D01*
X140820000Y-83400000D02*
X140820000Y-73500000D01*
X139230000Y-74900000D02*
X136690000Y-74900000D01*
X136690000Y-74900000D02*
X136690000Y-77400000D01*
X136690000Y-77400000D02*
X139230000Y-77400000D01*
X139230000Y-77400000D02*
X139230000Y-74900000D01*
X138280000Y-73500000D02*
X137640000Y-73500000D01*
X137640000Y-73500000D02*
X137640000Y-83400000D01*
X137640000Y-83400000D02*
X138280000Y-83400000D01*
X138280000Y-83400000D02*
X138280000Y-73500000D01*
D11*
X124262381Y-44756428D02*
X123262381Y-44756428D01*
X123262381Y-44518333D01*
X123310000Y-44375475D01*
X123405238Y-44280237D01*
X123500476Y-44232618D01*
X123690952Y-44184999D01*
X123833810Y-44184999D01*
X124024286Y-44232618D01*
X124119524Y-44280237D01*
X124214762Y-44375475D01*
X124262381Y-44518333D01*
X124262381Y-44756428D01*
X124262381Y-43756428D02*
X123262381Y-43756428D01*
X124214762Y-43327857D02*
X124262381Y-43185000D01*
X124262381Y-42946904D01*
X124214762Y-42851666D01*
X124167143Y-42804047D01*
X124071905Y-42756428D01*
X123976667Y-42756428D01*
X123881429Y-42804047D01*
X123833810Y-42851666D01*
X123786190Y-42946904D01*
X123738571Y-43137381D01*
X123690952Y-43232619D01*
X123643333Y-43280238D01*
X123548095Y-43327857D01*
X123452857Y-43327857D01*
X123357619Y-43280238D01*
X123310000Y-43232619D01*
X123262381Y-43137381D01*
X123262381Y-42899285D01*
X123310000Y-42756428D01*
X124262381Y-42327857D02*
X123262381Y-42327857D01*
X123262381Y-41946904D01*
X123310000Y-41851666D01*
X123357619Y-41804047D01*
X123452857Y-41756428D01*
X123595714Y-41756428D01*
X123690952Y-41804047D01*
X123738571Y-41851666D01*
X123786190Y-41946904D01*
X123786190Y-42327857D01*
X124357619Y-41565952D02*
X124357619Y-40804047D01*
X124262381Y-40565952D02*
X123262381Y-40565952D01*
X123357619Y-40137381D02*
X123310000Y-40089762D01*
X123262381Y-39994524D01*
X123262381Y-39756428D01*
X123310000Y-39661190D01*
X123357619Y-39613571D01*
X123452857Y-39565952D01*
X123548095Y-39565952D01*
X123690952Y-39613571D01*
X124262381Y-40185000D01*
X124262381Y-39565952D01*
X124167143Y-38565952D02*
X124214762Y-38613571D01*
X124262381Y-38756428D01*
X124262381Y-38851666D01*
X124214762Y-38994524D01*
X124119524Y-39089762D01*
X124024286Y-39137381D01*
X123833810Y-39185000D01*
X123690952Y-39185000D01*
X123500476Y-39137381D01*
X123405238Y-39089762D01*
X123310000Y-38994524D01*
X123262381Y-38851666D01*
X123262381Y-38756428D01*
X123310000Y-38613571D01*
X123357619Y-38565952D01*
X112102381Y-42423095D02*
X111102381Y-42423095D01*
X111102381Y-42042142D01*
X111150000Y-41946904D01*
X111197619Y-41899285D01*
X111292857Y-41851666D01*
X111435714Y-41851666D01*
X111530952Y-41899285D01*
X111578571Y-41946904D01*
X111626190Y-42042142D01*
X111626190Y-42423095D01*
X111197619Y-41470714D02*
X111150000Y-41423095D01*
X111102381Y-41327857D01*
X111102381Y-41089761D01*
X111150000Y-40994523D01*
X111197619Y-40946904D01*
X111292857Y-40899285D01*
X111388095Y-40899285D01*
X111530952Y-40946904D01*
X112102381Y-41518333D01*
X112102381Y-40899285D01*
X165762381Y-51212381D02*
X165286190Y-51545715D01*
X165762381Y-51783810D02*
X164762381Y-51783810D01*
X164762381Y-51402857D01*
X164810000Y-51307619D01*
X164857619Y-51260000D01*
X164952857Y-51212381D01*
X165095714Y-51212381D01*
X165190952Y-51260000D01*
X165238571Y-51307619D01*
X165286190Y-51402857D01*
X165286190Y-51783810D01*
X165238571Y-50450476D02*
X165238571Y-50783810D01*
X165762381Y-50783810D02*
X164762381Y-50783810D01*
X164762381Y-50307619D01*
X164762381Y-50021905D02*
X164762381Y-49355238D01*
X165762381Y-49783810D01*
X164762381Y-48783810D02*
X164762381Y-48688571D01*
X164810000Y-48593333D01*
X164857619Y-48545714D01*
X164952857Y-48498095D01*
X165143333Y-48450476D01*
X165381429Y-48450476D01*
X165571905Y-48498095D01*
X165667143Y-48545714D01*
X165714762Y-48593333D01*
X165762381Y-48688571D01*
X165762381Y-48783810D01*
X165714762Y-48879048D01*
X165667143Y-48926667D01*
X165571905Y-48974286D01*
X165381429Y-49021905D01*
X165143333Y-49021905D01*
X164952857Y-48974286D01*
X164857619Y-48926667D01*
X164810000Y-48879048D01*
X164762381Y-48783810D01*
X164857619Y-48069524D02*
X164810000Y-48021905D01*
X164762381Y-47926667D01*
X164762381Y-47688571D01*
X164810000Y-47593333D01*
X164857619Y-47545714D01*
X164952857Y-47498095D01*
X165048095Y-47498095D01*
X165190952Y-47545714D01*
X165762381Y-48117143D01*
X165762381Y-47498095D01*
X165762381Y-46545714D02*
X165762381Y-47117143D01*
X165762381Y-46831429D02*
X164762381Y-46831429D01*
X164905238Y-46926667D01*
X165000476Y-47021905D01*
X165048095Y-47117143D01*
X165714762Y-46164762D02*
X165762381Y-46021905D01*
X165762381Y-45783809D01*
X165714762Y-45688571D01*
X165667143Y-45640952D01*
X165571905Y-45593333D01*
X165476667Y-45593333D01*
X165381429Y-45640952D01*
X165333810Y-45688571D01*
X165286190Y-45783809D01*
X165238571Y-45974286D01*
X165190952Y-46069524D01*
X165143333Y-46117143D01*
X165048095Y-46164762D01*
X164952857Y-46164762D01*
X164857619Y-46117143D01*
X164810000Y-46069524D01*
X164762381Y-45974286D01*
X164762381Y-45736190D01*
X164810000Y-45593333D01*
X165238571Y-45164762D02*
X165238571Y-44831428D01*
X165762381Y-44688571D02*
X165762381Y-45164762D01*
X164762381Y-45164762D01*
X164762381Y-44688571D01*
X185662381Y-48998095D02*
X184662381Y-48998095D01*
X184662381Y-48617142D01*
X184710000Y-48521904D01*
X184757619Y-48474285D01*
X184852857Y-48426666D01*
X184995714Y-48426666D01*
X185090952Y-48474285D01*
X185138571Y-48521904D01*
X185186190Y-48617142D01*
X185186190Y-48998095D01*
X185662381Y-47474285D02*
X185662381Y-48045714D01*
X185662381Y-47760000D02*
X184662381Y-47760000D01*
X184805238Y-47855238D01*
X184900476Y-47950476D01*
X184948095Y-48045714D01*
X147202381Y-44970714D02*
X146202381Y-44970714D01*
X146202381Y-44732619D01*
X146250000Y-44589761D01*
X146345238Y-44494523D01*
X146440476Y-44446904D01*
X146630952Y-44399285D01*
X146773810Y-44399285D01*
X146964286Y-44446904D01*
X147059524Y-44494523D01*
X147154762Y-44589761D01*
X147202381Y-44732619D01*
X147202381Y-44970714D01*
X147202381Y-43970714D02*
X146202381Y-43970714D01*
X147154762Y-43542143D02*
X147202381Y-43399286D01*
X147202381Y-43161190D01*
X147154762Y-43065952D01*
X147107143Y-43018333D01*
X147011905Y-42970714D01*
X146916667Y-42970714D01*
X146821429Y-43018333D01*
X146773810Y-43065952D01*
X146726190Y-43161190D01*
X146678571Y-43351667D01*
X146630952Y-43446905D01*
X146583333Y-43494524D01*
X146488095Y-43542143D01*
X146392857Y-43542143D01*
X146297619Y-43494524D01*
X146250000Y-43446905D01*
X146202381Y-43351667D01*
X146202381Y-43113571D01*
X146250000Y-42970714D01*
X147202381Y-42542143D02*
X146202381Y-42542143D01*
X146202381Y-42161190D01*
X146250000Y-42065952D01*
X146297619Y-42018333D01*
X146392857Y-41970714D01*
X146535714Y-41970714D01*
X146630952Y-42018333D01*
X146678571Y-42065952D01*
X146726190Y-42161190D01*
X146726190Y-42542143D01*
X147297619Y-41780238D02*
X147297619Y-41018333D01*
X147154762Y-40827857D02*
X147202381Y-40685000D01*
X147202381Y-40446904D01*
X147154762Y-40351666D01*
X147107143Y-40304047D01*
X147011905Y-40256428D01*
X146916667Y-40256428D01*
X146821429Y-40304047D01*
X146773810Y-40351666D01*
X146726190Y-40446904D01*
X146678571Y-40637381D01*
X146630952Y-40732619D01*
X146583333Y-40780238D01*
X146488095Y-40827857D01*
X146392857Y-40827857D01*
X146297619Y-40780238D01*
X146250000Y-40732619D01*
X146202381Y-40637381D01*
X146202381Y-40399285D01*
X146250000Y-40256428D01*
X146678571Y-39827857D02*
X146678571Y-39494523D01*
X147202381Y-39351666D02*
X147202381Y-39827857D01*
X146202381Y-39827857D01*
X146202381Y-39351666D01*
X147202381Y-38351666D02*
X146726190Y-38685000D01*
X147202381Y-38923095D02*
X146202381Y-38923095D01*
X146202381Y-38542142D01*
X146250000Y-38446904D01*
X146297619Y-38399285D01*
X146392857Y-38351666D01*
X146535714Y-38351666D01*
X146630952Y-38399285D01*
X146678571Y-38446904D01*
X146726190Y-38542142D01*
X146726190Y-38923095D01*
X137582381Y-42423095D02*
X136582381Y-42423095D01*
X136582381Y-42042142D01*
X136630000Y-41946904D01*
X136677619Y-41899285D01*
X136772857Y-41851666D01*
X136915714Y-41851666D01*
X137010952Y-41899285D01*
X137058571Y-41946904D01*
X137106190Y-42042142D01*
X137106190Y-42423095D01*
X136582381Y-41518333D02*
X136582381Y-40899285D01*
X136963333Y-41232619D01*
X136963333Y-41089761D01*
X137010952Y-40994523D01*
X137058571Y-40946904D01*
X137153810Y-40899285D01*
X137391905Y-40899285D01*
X137487143Y-40946904D01*
X137534762Y-40994523D01*
X137582381Y-41089761D01*
X137582381Y-41375476D01*
X137534762Y-41470714D01*
X137487143Y-41518333D01*
X136142381Y-81291191D02*
X135142381Y-81291191D01*
X135618571Y-81291191D02*
X135618571Y-80719762D01*
X136142381Y-80719762D02*
X135142381Y-80719762D01*
X135142381Y-80053096D02*
X135142381Y-79862619D01*
X135190000Y-79767381D01*
X135285238Y-79672143D01*
X135475714Y-79624524D01*
X135809048Y-79624524D01*
X135999524Y-79672143D01*
X136094762Y-79767381D01*
X136142381Y-79862619D01*
X136142381Y-80053096D01*
X136094762Y-80148334D01*
X135999524Y-80243572D01*
X135809048Y-80291191D01*
X135475714Y-80291191D01*
X135285238Y-80243572D01*
X135190000Y-80148334D01*
X135142381Y-80053096D01*
X136094762Y-79243572D02*
X136142381Y-79100715D01*
X136142381Y-78862619D01*
X136094762Y-78767381D01*
X136047143Y-78719762D01*
X135951905Y-78672143D01*
X135856667Y-78672143D01*
X135761429Y-78719762D01*
X135713810Y-78767381D01*
X135666190Y-78862619D01*
X135618571Y-79053096D01*
X135570952Y-79148334D01*
X135523333Y-79195953D01*
X135428095Y-79243572D01*
X135332857Y-79243572D01*
X135237619Y-79195953D01*
X135190000Y-79148334D01*
X135142381Y-79053096D01*
X135142381Y-78815000D01*
X135190000Y-78672143D01*
X135142381Y-78386429D02*
X135142381Y-77815000D01*
X136142381Y-78100715D02*
X135142381Y-78100715D01*
X136237619Y-77719762D02*
X136237619Y-76957857D01*
X136094762Y-76767381D02*
X136142381Y-76624524D01*
X136142381Y-76386428D01*
X136094762Y-76291190D01*
X136047143Y-76243571D01*
X135951905Y-76195952D01*
X135856667Y-76195952D01*
X135761429Y-76243571D01*
X135713810Y-76291190D01*
X135666190Y-76386428D01*
X135618571Y-76576905D01*
X135570952Y-76672143D01*
X135523333Y-76719762D01*
X135428095Y-76767381D01*
X135332857Y-76767381D01*
X135237619Y-76719762D01*
X135190000Y-76672143D01*
X135142381Y-76576905D01*
X135142381Y-76338809D01*
X135190000Y-76195952D01*
X135618571Y-75767381D02*
X135618571Y-75434047D01*
X136142381Y-75291190D02*
X136142381Y-75767381D01*
X135142381Y-75767381D01*
X135142381Y-75291190D01*
X136142381Y-74291190D02*
X135666190Y-74624524D01*
X136142381Y-74862619D02*
X135142381Y-74862619D01*
X135142381Y-74481666D01*
X135190000Y-74386428D01*
X135237619Y-74338809D01*
X135332857Y-74291190D01*
X135475714Y-74291190D01*
X135570952Y-74338809D01*
X135618571Y-74386428D01*
X135666190Y-74481666D01*
X135666190Y-74862619D01*
X148302381Y-78553095D02*
X147302381Y-78553095D01*
X147302381Y-78172142D01*
X147350000Y-78076904D01*
X147397619Y-78029285D01*
X147492857Y-77981666D01*
X147635714Y-77981666D01*
X147730952Y-78029285D01*
X147778571Y-78076904D01*
X147826190Y-78172142D01*
X147826190Y-78553095D01*
X147635714Y-77124523D02*
X148302381Y-77124523D01*
X147254762Y-77362619D02*
X147969048Y-77600714D01*
X147969048Y-76981666D01*
X94880952Y-44152381D02*
X94880952Y-43152381D01*
X95214286Y-43866667D01*
X95547619Y-43152381D01*
X95547619Y-44152381D01*
X96166666Y-44152381D02*
X96071428Y-44104762D01*
X96023809Y-44057143D01*
X95976190Y-43961905D01*
X95976190Y-43676190D01*
X96023809Y-43580952D01*
X96071428Y-43533333D01*
X96166666Y-43485714D01*
X96309524Y-43485714D01*
X96404762Y-43533333D01*
X96452381Y-43580952D01*
X96500000Y-43676190D01*
X96500000Y-43961905D01*
X96452381Y-44057143D01*
X96404762Y-44104762D01*
X96309524Y-44152381D01*
X96166666Y-44152381D01*
X97357143Y-43485714D02*
X97357143Y-44152381D01*
X96928571Y-43485714D02*
X96928571Y-44009524D01*
X96976190Y-44104762D01*
X97071428Y-44152381D01*
X97214286Y-44152381D01*
X97309524Y-44104762D01*
X97357143Y-44057143D01*
X97833333Y-43485714D02*
X97833333Y-44152381D01*
X97833333Y-43580952D02*
X97880952Y-43533333D01*
X97976190Y-43485714D01*
X98119048Y-43485714D01*
X98214286Y-43533333D01*
X98261905Y-43628571D01*
X98261905Y-44152381D01*
X98595238Y-43485714D02*
X98976190Y-43485714D01*
X98738095Y-43152381D02*
X98738095Y-44009524D01*
X98785714Y-44104762D01*
X98880952Y-44152381D01*
X98976190Y-44152381D01*
X99309524Y-44152381D02*
X99309524Y-43485714D01*
X99309524Y-43152381D02*
X99261905Y-43200000D01*
X99309524Y-43247619D01*
X99357143Y-43200000D01*
X99309524Y-43152381D01*
X99309524Y-43247619D01*
X99785714Y-43485714D02*
X99785714Y-44152381D01*
X99785714Y-43580952D02*
X99833333Y-43533333D01*
X99928571Y-43485714D01*
X100071429Y-43485714D01*
X100166667Y-43533333D01*
X100214286Y-43628571D01*
X100214286Y-44152381D01*
X101119048Y-43485714D02*
X101119048Y-44295238D01*
X101071429Y-44390476D01*
X101023810Y-44438095D01*
X100928571Y-44485714D01*
X100785714Y-44485714D01*
X100690476Y-44438095D01*
X101119048Y-44104762D02*
X101023810Y-44152381D01*
X100833333Y-44152381D01*
X100738095Y-44104762D01*
X100690476Y-44057143D01*
X100642857Y-43961905D01*
X100642857Y-43676190D01*
X100690476Y-43580952D01*
X100738095Y-43533333D01*
X100833333Y-43485714D01*
X101023810Y-43485714D01*
X101119048Y-43533333D01*
X101595238Y-44152381D02*
X101595238Y-43152381D01*
X101595238Y-43628571D02*
X102166667Y-43628571D01*
X102166667Y-44152381D02*
X102166667Y-43152381D01*
X102785714Y-44152381D02*
X102690476Y-44104762D01*
X102642857Y-44057143D01*
X102595238Y-43961905D01*
X102595238Y-43676190D01*
X102642857Y-43580952D01*
X102690476Y-43533333D01*
X102785714Y-43485714D01*
X102928572Y-43485714D01*
X103023810Y-43533333D01*
X103071429Y-43580952D01*
X103119048Y-43676190D01*
X103119048Y-43961905D01*
X103071429Y-44057143D01*
X103023810Y-44104762D01*
X102928572Y-44152381D01*
X102785714Y-44152381D01*
X103690476Y-44152381D02*
X103595238Y-44104762D01*
X103547619Y-44009524D01*
X103547619Y-43152381D01*
X104452382Y-44104762D02*
X104357144Y-44152381D01*
X104166667Y-44152381D01*
X104071429Y-44104762D01*
X104023810Y-44009524D01*
X104023810Y-43628571D01*
X104071429Y-43533333D01*
X104166667Y-43485714D01*
X104357144Y-43485714D01*
X104452382Y-43533333D01*
X104500001Y-43628571D01*
X104500001Y-43723810D01*
X104023810Y-43819048D01*
X104690477Y-44247619D02*
X105452382Y-44247619D01*
X105595239Y-43152381D02*
X106214287Y-43152381D01*
X105880953Y-43533333D01*
X106023811Y-43533333D01*
X106119049Y-43580952D01*
X106166668Y-43628571D01*
X106214287Y-43723810D01*
X106214287Y-43961905D01*
X106166668Y-44057143D01*
X106119049Y-44104762D01*
X106023811Y-44152381D01*
X105738096Y-44152381D01*
X105642858Y-44104762D01*
X105595239Y-44057143D01*
X106642858Y-44057143D02*
X106690477Y-44104762D01*
X106642858Y-44152381D01*
X106595239Y-44104762D01*
X106642858Y-44057143D01*
X106642858Y-44152381D01*
X107071429Y-43247619D02*
X107119048Y-43200000D01*
X107214286Y-43152381D01*
X107452382Y-43152381D01*
X107547620Y-43200000D01*
X107595239Y-43247619D01*
X107642858Y-43342857D01*
X107642858Y-43438095D01*
X107595239Y-43580952D01*
X107023810Y-44152381D01*
X107642858Y-44152381D01*
X108071429Y-44152381D02*
X108071429Y-43485714D01*
X108071429Y-43580952D02*
X108119048Y-43533333D01*
X108214286Y-43485714D01*
X108357144Y-43485714D01*
X108452382Y-43533333D01*
X108500001Y-43628571D01*
X108500001Y-44152381D01*
X108500001Y-43628571D02*
X108547620Y-43533333D01*
X108642858Y-43485714D01*
X108785715Y-43485714D01*
X108880953Y-43533333D01*
X108928572Y-43628571D01*
X108928572Y-44152381D01*
X109404762Y-44152381D02*
X109404762Y-43485714D01*
X109404762Y-43580952D02*
X109452381Y-43533333D01*
X109547619Y-43485714D01*
X109690477Y-43485714D01*
X109785715Y-43533333D01*
X109833334Y-43628571D01*
X109833334Y-44152381D01*
X109833334Y-43628571D02*
X109880953Y-43533333D01*
X109976191Y-43485714D01*
X110119048Y-43485714D01*
X110214286Y-43533333D01*
X110261905Y-43628571D01*
X110261905Y-44152381D01*
X110500000Y-44247619D02*
X111261905Y-44247619D01*
X111500000Y-44152381D02*
X111500000Y-43152381D01*
X111833334Y-43866667D01*
X112166667Y-43152381D01*
X112166667Y-44152381D01*
X112547619Y-43152381D02*
X113166667Y-43152381D01*
X112833333Y-43533333D01*
X112976191Y-43533333D01*
X113071429Y-43580952D01*
X113119048Y-43628571D01*
X113166667Y-43723810D01*
X113166667Y-43961905D01*
X113119048Y-44057143D01*
X113071429Y-44104762D01*
X112976191Y-44152381D01*
X112690476Y-44152381D01*
X112595238Y-44104762D01*
X112547619Y-44057143D01*
X94880952Y-84652381D02*
X94880952Y-83652381D01*
X95214286Y-84366667D01*
X95547619Y-83652381D01*
X95547619Y-84652381D01*
X96166666Y-84652381D02*
X96071428Y-84604762D01*
X96023809Y-84557143D01*
X95976190Y-84461905D01*
X95976190Y-84176190D01*
X96023809Y-84080952D01*
X96071428Y-84033333D01*
X96166666Y-83985714D01*
X96309524Y-83985714D01*
X96404762Y-84033333D01*
X96452381Y-84080952D01*
X96500000Y-84176190D01*
X96500000Y-84461905D01*
X96452381Y-84557143D01*
X96404762Y-84604762D01*
X96309524Y-84652381D01*
X96166666Y-84652381D01*
X97357143Y-83985714D02*
X97357143Y-84652381D01*
X96928571Y-83985714D02*
X96928571Y-84509524D01*
X96976190Y-84604762D01*
X97071428Y-84652381D01*
X97214286Y-84652381D01*
X97309524Y-84604762D01*
X97357143Y-84557143D01*
X97833333Y-83985714D02*
X97833333Y-84652381D01*
X97833333Y-84080952D02*
X97880952Y-84033333D01*
X97976190Y-83985714D01*
X98119048Y-83985714D01*
X98214286Y-84033333D01*
X98261905Y-84128571D01*
X98261905Y-84652381D01*
X98595238Y-83985714D02*
X98976190Y-83985714D01*
X98738095Y-83652381D02*
X98738095Y-84509524D01*
X98785714Y-84604762D01*
X98880952Y-84652381D01*
X98976190Y-84652381D01*
X99309524Y-84652381D02*
X99309524Y-83985714D01*
X99309524Y-83652381D02*
X99261905Y-83700000D01*
X99309524Y-83747619D01*
X99357143Y-83700000D01*
X99309524Y-83652381D01*
X99309524Y-83747619D01*
X99785714Y-83985714D02*
X99785714Y-84652381D01*
X99785714Y-84080952D02*
X99833333Y-84033333D01*
X99928571Y-83985714D01*
X100071429Y-83985714D01*
X100166667Y-84033333D01*
X100214286Y-84128571D01*
X100214286Y-84652381D01*
X101119048Y-83985714D02*
X101119048Y-84795238D01*
X101071429Y-84890476D01*
X101023810Y-84938095D01*
X100928571Y-84985714D01*
X100785714Y-84985714D01*
X100690476Y-84938095D01*
X101119048Y-84604762D02*
X101023810Y-84652381D01*
X100833333Y-84652381D01*
X100738095Y-84604762D01*
X100690476Y-84557143D01*
X100642857Y-84461905D01*
X100642857Y-84176190D01*
X100690476Y-84080952D01*
X100738095Y-84033333D01*
X100833333Y-83985714D01*
X101023810Y-83985714D01*
X101119048Y-84033333D01*
X101595238Y-84652381D02*
X101595238Y-83652381D01*
X101595238Y-84128571D02*
X102166667Y-84128571D01*
X102166667Y-84652381D02*
X102166667Y-83652381D01*
X102785714Y-84652381D02*
X102690476Y-84604762D01*
X102642857Y-84557143D01*
X102595238Y-84461905D01*
X102595238Y-84176190D01*
X102642857Y-84080952D01*
X102690476Y-84033333D01*
X102785714Y-83985714D01*
X102928572Y-83985714D01*
X103023810Y-84033333D01*
X103071429Y-84080952D01*
X103119048Y-84176190D01*
X103119048Y-84461905D01*
X103071429Y-84557143D01*
X103023810Y-84604762D01*
X102928572Y-84652381D01*
X102785714Y-84652381D01*
X103690476Y-84652381D02*
X103595238Y-84604762D01*
X103547619Y-84509524D01*
X103547619Y-83652381D01*
X104452382Y-84604762D02*
X104357144Y-84652381D01*
X104166667Y-84652381D01*
X104071429Y-84604762D01*
X104023810Y-84509524D01*
X104023810Y-84128571D01*
X104071429Y-84033333D01*
X104166667Y-83985714D01*
X104357144Y-83985714D01*
X104452382Y-84033333D01*
X104500001Y-84128571D01*
X104500001Y-84223810D01*
X104023810Y-84319048D01*
X104690477Y-84747619D02*
X105452382Y-84747619D01*
X105595239Y-83652381D02*
X106214287Y-83652381D01*
X105880953Y-84033333D01*
X106023811Y-84033333D01*
X106119049Y-84080952D01*
X106166668Y-84128571D01*
X106214287Y-84223810D01*
X106214287Y-84461905D01*
X106166668Y-84557143D01*
X106119049Y-84604762D01*
X106023811Y-84652381D01*
X105738096Y-84652381D01*
X105642858Y-84604762D01*
X105595239Y-84557143D01*
X106642858Y-84557143D02*
X106690477Y-84604762D01*
X106642858Y-84652381D01*
X106595239Y-84604762D01*
X106642858Y-84557143D01*
X106642858Y-84652381D01*
X107071429Y-83747619D02*
X107119048Y-83700000D01*
X107214286Y-83652381D01*
X107452382Y-83652381D01*
X107547620Y-83700000D01*
X107595239Y-83747619D01*
X107642858Y-83842857D01*
X107642858Y-83938095D01*
X107595239Y-84080952D01*
X107023810Y-84652381D01*
X107642858Y-84652381D01*
X108071429Y-84652381D02*
X108071429Y-83985714D01*
X108071429Y-84080952D02*
X108119048Y-84033333D01*
X108214286Y-83985714D01*
X108357144Y-83985714D01*
X108452382Y-84033333D01*
X108500001Y-84128571D01*
X108500001Y-84652381D01*
X108500001Y-84128571D02*
X108547620Y-84033333D01*
X108642858Y-83985714D01*
X108785715Y-83985714D01*
X108880953Y-84033333D01*
X108928572Y-84128571D01*
X108928572Y-84652381D01*
X109404762Y-84652381D02*
X109404762Y-83985714D01*
X109404762Y-84080952D02*
X109452381Y-84033333D01*
X109547619Y-83985714D01*
X109690477Y-83985714D01*
X109785715Y-84033333D01*
X109833334Y-84128571D01*
X109833334Y-84652381D01*
X109833334Y-84128571D02*
X109880953Y-84033333D01*
X109976191Y-83985714D01*
X110119048Y-83985714D01*
X110214286Y-84033333D01*
X110261905Y-84128571D01*
X110261905Y-84652381D01*
X110500000Y-84747619D02*
X111261905Y-84747619D01*
X111500000Y-84652381D02*
X111500000Y-83652381D01*
X111833334Y-84366667D01*
X112166667Y-83652381D01*
X112166667Y-84652381D01*
X112547619Y-83652381D02*
X113166667Y-83652381D01*
X112833333Y-84033333D01*
X112976191Y-84033333D01*
X113071429Y-84080952D01*
X113119048Y-84128571D01*
X113166667Y-84223810D01*
X113166667Y-84461905D01*
X113119048Y-84557143D01*
X113071429Y-84604762D01*
X112976191Y-84652381D01*
X112690476Y-84652381D01*
X112595238Y-84604762D01*
X112547619Y-84557143D01*
X174880952Y-84652381D02*
X174880952Y-83652381D01*
X175214286Y-84366667D01*
X175547619Y-83652381D01*
X175547619Y-84652381D01*
X176166666Y-84652381D02*
X176071428Y-84604762D01*
X176023809Y-84557143D01*
X175976190Y-84461905D01*
X175976190Y-84176190D01*
X176023809Y-84080952D01*
X176071428Y-84033333D01*
X176166666Y-83985714D01*
X176309524Y-83985714D01*
X176404762Y-84033333D01*
X176452381Y-84080952D01*
X176500000Y-84176190D01*
X176500000Y-84461905D01*
X176452381Y-84557143D01*
X176404762Y-84604762D01*
X176309524Y-84652381D01*
X176166666Y-84652381D01*
X177357143Y-83985714D02*
X177357143Y-84652381D01*
X176928571Y-83985714D02*
X176928571Y-84509524D01*
X176976190Y-84604762D01*
X177071428Y-84652381D01*
X177214286Y-84652381D01*
X177309524Y-84604762D01*
X177357143Y-84557143D01*
X177833333Y-83985714D02*
X177833333Y-84652381D01*
X177833333Y-84080952D02*
X177880952Y-84033333D01*
X177976190Y-83985714D01*
X178119048Y-83985714D01*
X178214286Y-84033333D01*
X178261905Y-84128571D01*
X178261905Y-84652381D01*
X178595238Y-83985714D02*
X178976190Y-83985714D01*
X178738095Y-83652381D02*
X178738095Y-84509524D01*
X178785714Y-84604762D01*
X178880952Y-84652381D01*
X178976190Y-84652381D01*
X179309524Y-84652381D02*
X179309524Y-83985714D01*
X179309524Y-83652381D02*
X179261905Y-83700000D01*
X179309524Y-83747619D01*
X179357143Y-83700000D01*
X179309524Y-83652381D01*
X179309524Y-83747619D01*
X179785714Y-83985714D02*
X179785714Y-84652381D01*
X179785714Y-84080952D02*
X179833333Y-84033333D01*
X179928571Y-83985714D01*
X180071429Y-83985714D01*
X180166667Y-84033333D01*
X180214286Y-84128571D01*
X180214286Y-84652381D01*
X181119048Y-83985714D02*
X181119048Y-84795238D01*
X181071429Y-84890476D01*
X181023810Y-84938095D01*
X180928571Y-84985714D01*
X180785714Y-84985714D01*
X180690476Y-84938095D01*
X181119048Y-84604762D02*
X181023810Y-84652381D01*
X180833333Y-84652381D01*
X180738095Y-84604762D01*
X180690476Y-84557143D01*
X180642857Y-84461905D01*
X180642857Y-84176190D01*
X180690476Y-84080952D01*
X180738095Y-84033333D01*
X180833333Y-83985714D01*
X181023810Y-83985714D01*
X181119048Y-84033333D01*
X181595238Y-84652381D02*
X181595238Y-83652381D01*
X181595238Y-84128571D02*
X182166667Y-84128571D01*
X182166667Y-84652381D02*
X182166667Y-83652381D01*
X182785714Y-84652381D02*
X182690476Y-84604762D01*
X182642857Y-84557143D01*
X182595238Y-84461905D01*
X182595238Y-84176190D01*
X182642857Y-84080952D01*
X182690476Y-84033333D01*
X182785714Y-83985714D01*
X182928572Y-83985714D01*
X183023810Y-84033333D01*
X183071429Y-84080952D01*
X183119048Y-84176190D01*
X183119048Y-84461905D01*
X183071429Y-84557143D01*
X183023810Y-84604762D01*
X182928572Y-84652381D01*
X182785714Y-84652381D01*
X183690476Y-84652381D02*
X183595238Y-84604762D01*
X183547619Y-84509524D01*
X183547619Y-83652381D01*
X184452382Y-84604762D02*
X184357144Y-84652381D01*
X184166667Y-84652381D01*
X184071429Y-84604762D01*
X184023810Y-84509524D01*
X184023810Y-84128571D01*
X184071429Y-84033333D01*
X184166667Y-83985714D01*
X184357144Y-83985714D01*
X184452382Y-84033333D01*
X184500001Y-84128571D01*
X184500001Y-84223810D01*
X184023810Y-84319048D01*
X184690477Y-84747619D02*
X185452382Y-84747619D01*
X185595239Y-83652381D02*
X186214287Y-83652381D01*
X185880953Y-84033333D01*
X186023811Y-84033333D01*
X186119049Y-84080952D01*
X186166668Y-84128571D01*
X186214287Y-84223810D01*
X186214287Y-84461905D01*
X186166668Y-84557143D01*
X186119049Y-84604762D01*
X186023811Y-84652381D01*
X185738096Y-84652381D01*
X185642858Y-84604762D01*
X185595239Y-84557143D01*
X186642858Y-84557143D02*
X186690477Y-84604762D01*
X186642858Y-84652381D01*
X186595239Y-84604762D01*
X186642858Y-84557143D01*
X186642858Y-84652381D01*
X187071429Y-83747619D02*
X187119048Y-83700000D01*
X187214286Y-83652381D01*
X187452382Y-83652381D01*
X187547620Y-83700000D01*
X187595239Y-83747619D01*
X187642858Y-83842857D01*
X187642858Y-83938095D01*
X187595239Y-84080952D01*
X187023810Y-84652381D01*
X187642858Y-84652381D01*
X188071429Y-84652381D02*
X188071429Y-83985714D01*
X188071429Y-84080952D02*
X188119048Y-84033333D01*
X188214286Y-83985714D01*
X188357144Y-83985714D01*
X188452382Y-84033333D01*
X188500001Y-84128571D01*
X188500001Y-84652381D01*
X188500001Y-84128571D02*
X188547620Y-84033333D01*
X188642858Y-83985714D01*
X188785715Y-83985714D01*
X188880953Y-84033333D01*
X188928572Y-84128571D01*
X188928572Y-84652381D01*
X189404762Y-84652381D02*
X189404762Y-83985714D01*
X189404762Y-84080952D02*
X189452381Y-84033333D01*
X189547619Y-83985714D01*
X189690477Y-83985714D01*
X189785715Y-84033333D01*
X189833334Y-84128571D01*
X189833334Y-84652381D01*
X189833334Y-84128571D02*
X189880953Y-84033333D01*
X189976191Y-83985714D01*
X190119048Y-83985714D01*
X190214286Y-84033333D01*
X190261905Y-84128571D01*
X190261905Y-84652381D01*
X190500000Y-84747619D02*
X191261905Y-84747619D01*
X191500000Y-84652381D02*
X191500000Y-83652381D01*
X191833334Y-84366667D01*
X192166667Y-83652381D01*
X192166667Y-84652381D01*
X192547619Y-83652381D02*
X193166667Y-83652381D01*
X192833333Y-84033333D01*
X192976191Y-84033333D01*
X193071429Y-84080952D01*
X193119048Y-84128571D01*
X193166667Y-84223810D01*
X193166667Y-84461905D01*
X193119048Y-84557143D01*
X193071429Y-84604762D01*
X192976191Y-84652381D01*
X192690476Y-84652381D01*
X192595238Y-84604762D01*
X192547619Y-84557143D01*
X174880952Y-44652381D02*
X174880952Y-43652381D01*
X175214286Y-44366667D01*
X175547619Y-43652381D01*
X175547619Y-44652381D01*
X176166666Y-44652381D02*
X176071428Y-44604762D01*
X176023809Y-44557143D01*
X175976190Y-44461905D01*
X175976190Y-44176190D01*
X176023809Y-44080952D01*
X176071428Y-44033333D01*
X176166666Y-43985714D01*
X176309524Y-43985714D01*
X176404762Y-44033333D01*
X176452381Y-44080952D01*
X176500000Y-44176190D01*
X176500000Y-44461905D01*
X176452381Y-44557143D01*
X176404762Y-44604762D01*
X176309524Y-44652381D01*
X176166666Y-44652381D01*
X177357143Y-43985714D02*
X177357143Y-44652381D01*
X176928571Y-43985714D02*
X176928571Y-44509524D01*
X176976190Y-44604762D01*
X177071428Y-44652381D01*
X177214286Y-44652381D01*
X177309524Y-44604762D01*
X177357143Y-44557143D01*
X177833333Y-43985714D02*
X177833333Y-44652381D01*
X177833333Y-44080952D02*
X177880952Y-44033333D01*
X177976190Y-43985714D01*
X178119048Y-43985714D01*
X178214286Y-44033333D01*
X178261905Y-44128571D01*
X178261905Y-44652381D01*
X178595238Y-43985714D02*
X178976190Y-43985714D01*
X178738095Y-43652381D02*
X178738095Y-44509524D01*
X178785714Y-44604762D01*
X178880952Y-44652381D01*
X178976190Y-44652381D01*
X179309524Y-44652381D02*
X179309524Y-43985714D01*
X179309524Y-43652381D02*
X179261905Y-43700000D01*
X179309524Y-43747619D01*
X179357143Y-43700000D01*
X179309524Y-43652381D01*
X179309524Y-43747619D01*
X179785714Y-43985714D02*
X179785714Y-44652381D01*
X179785714Y-44080952D02*
X179833333Y-44033333D01*
X179928571Y-43985714D01*
X180071429Y-43985714D01*
X180166667Y-44033333D01*
X180214286Y-44128571D01*
X180214286Y-44652381D01*
X181119048Y-43985714D02*
X181119048Y-44795238D01*
X181071429Y-44890476D01*
X181023810Y-44938095D01*
X180928571Y-44985714D01*
X180785714Y-44985714D01*
X180690476Y-44938095D01*
X181119048Y-44604762D02*
X181023810Y-44652381D01*
X180833333Y-44652381D01*
X180738095Y-44604762D01*
X180690476Y-44557143D01*
X180642857Y-44461905D01*
X180642857Y-44176190D01*
X180690476Y-44080952D01*
X180738095Y-44033333D01*
X180833333Y-43985714D01*
X181023810Y-43985714D01*
X181119048Y-44033333D01*
X181595238Y-44652381D02*
X181595238Y-43652381D01*
X181595238Y-44128571D02*
X182166667Y-44128571D01*
X182166667Y-44652381D02*
X182166667Y-43652381D01*
X182785714Y-44652381D02*
X182690476Y-44604762D01*
X182642857Y-44557143D01*
X182595238Y-44461905D01*
X182595238Y-44176190D01*
X182642857Y-44080952D01*
X182690476Y-44033333D01*
X182785714Y-43985714D01*
X182928572Y-43985714D01*
X183023810Y-44033333D01*
X183071429Y-44080952D01*
X183119048Y-44176190D01*
X183119048Y-44461905D01*
X183071429Y-44557143D01*
X183023810Y-44604762D01*
X182928572Y-44652381D01*
X182785714Y-44652381D01*
X183690476Y-44652381D02*
X183595238Y-44604762D01*
X183547619Y-44509524D01*
X183547619Y-43652381D01*
X184452382Y-44604762D02*
X184357144Y-44652381D01*
X184166667Y-44652381D01*
X184071429Y-44604762D01*
X184023810Y-44509524D01*
X184023810Y-44128571D01*
X184071429Y-44033333D01*
X184166667Y-43985714D01*
X184357144Y-43985714D01*
X184452382Y-44033333D01*
X184500001Y-44128571D01*
X184500001Y-44223810D01*
X184023810Y-44319048D01*
X184690477Y-44747619D02*
X185452382Y-44747619D01*
X185595239Y-43652381D02*
X186214287Y-43652381D01*
X185880953Y-44033333D01*
X186023811Y-44033333D01*
X186119049Y-44080952D01*
X186166668Y-44128571D01*
X186214287Y-44223810D01*
X186214287Y-44461905D01*
X186166668Y-44557143D01*
X186119049Y-44604762D01*
X186023811Y-44652381D01*
X185738096Y-44652381D01*
X185642858Y-44604762D01*
X185595239Y-44557143D01*
X186642858Y-44557143D02*
X186690477Y-44604762D01*
X186642858Y-44652381D01*
X186595239Y-44604762D01*
X186642858Y-44557143D01*
X186642858Y-44652381D01*
X187071429Y-43747619D02*
X187119048Y-43700000D01*
X187214286Y-43652381D01*
X187452382Y-43652381D01*
X187547620Y-43700000D01*
X187595239Y-43747619D01*
X187642858Y-43842857D01*
X187642858Y-43938095D01*
X187595239Y-44080952D01*
X187023810Y-44652381D01*
X187642858Y-44652381D01*
X188071429Y-44652381D02*
X188071429Y-43985714D01*
X188071429Y-44080952D02*
X188119048Y-44033333D01*
X188214286Y-43985714D01*
X188357144Y-43985714D01*
X188452382Y-44033333D01*
X188500001Y-44128571D01*
X188500001Y-44652381D01*
X188500001Y-44128571D02*
X188547620Y-44033333D01*
X188642858Y-43985714D01*
X188785715Y-43985714D01*
X188880953Y-44033333D01*
X188928572Y-44128571D01*
X188928572Y-44652381D01*
X189404762Y-44652381D02*
X189404762Y-43985714D01*
X189404762Y-44080952D02*
X189452381Y-44033333D01*
X189547619Y-43985714D01*
X189690477Y-43985714D01*
X189785715Y-44033333D01*
X189833334Y-44128571D01*
X189833334Y-44652381D01*
X189833334Y-44128571D02*
X189880953Y-44033333D01*
X189976191Y-43985714D01*
X190119048Y-43985714D01*
X190214286Y-44033333D01*
X190261905Y-44128571D01*
X190261905Y-44652381D01*
X190500000Y-44747619D02*
X191261905Y-44747619D01*
X191500000Y-44652381D02*
X191500000Y-43652381D01*
X191833334Y-44366667D01*
X192166667Y-43652381D01*
X192166667Y-44652381D01*
X192547619Y-43652381D02*
X193166667Y-43652381D01*
X192833333Y-44033333D01*
X192976191Y-44033333D01*
X193071429Y-44080952D01*
X193119048Y-44128571D01*
X193166667Y-44223810D01*
X193166667Y-44461905D01*
X193119048Y-44557143D01*
X193071429Y-44604762D01*
X192976191Y-44652381D01*
X192690476Y-44652381D01*
X192595238Y-44604762D01*
X192547619Y-44557143D01*
M02*
