G04 #@! TF.FileFunction,Drawing*
%FSLAX46Y46*%
G04 Gerber Fmt 4.6, Leading zero omitted, Abs format (unit mm)*
G04 Created by KiCad (PCBNEW 4.0.6) date Thursday, 29 June 2017 'AMt' 11:53:14*
%MOMM*%
%LPD*%
G01*
G04 APERTURE LIST*
%ADD10C,0.100000*%
%ADD11C,0.300000*%
G04 APERTURE END LIST*
D10*
D11*
X121571430Y-95778571D02*
X120857144Y-95778571D01*
X120785715Y-96492857D01*
X120857144Y-96421429D01*
X121000001Y-96350000D01*
X121357144Y-96350000D01*
X121500001Y-96421429D01*
X121571430Y-96492857D01*
X121642858Y-96635714D01*
X121642858Y-96992857D01*
X121571430Y-97135714D01*
X121500001Y-97207143D01*
X121357144Y-97278571D01*
X121000001Y-97278571D01*
X120857144Y-97207143D01*
X120785715Y-97135714D01*
X122142858Y-95778571D02*
X123071429Y-95778571D01*
X122571429Y-96350000D01*
X122785715Y-96350000D01*
X122928572Y-96421429D01*
X123000001Y-96492857D01*
X123071429Y-96635714D01*
X123071429Y-96992857D01*
X123000001Y-97135714D01*
X122928572Y-97207143D01*
X122785715Y-97278571D01*
X122357143Y-97278571D01*
X122214286Y-97207143D01*
X122142858Y-97135714D01*
X123785714Y-97207143D02*
X123785714Y-97278571D01*
X123714286Y-97421429D01*
X123642857Y-97492857D01*
X124285715Y-95778571D02*
X125214286Y-95778571D01*
X124714286Y-96350000D01*
X124928572Y-96350000D01*
X125071429Y-96421429D01*
X125142858Y-96492857D01*
X125214286Y-96635714D01*
X125214286Y-96992857D01*
X125142858Y-97135714D01*
X125071429Y-97207143D01*
X124928572Y-97278571D01*
X124500000Y-97278571D01*
X124357143Y-97207143D01*
X124285715Y-97135714D01*
X126500000Y-96278571D02*
X126500000Y-97278571D01*
X126142857Y-95707143D02*
X125785714Y-96778571D01*
X126714286Y-96778571D01*
X127571428Y-95778571D02*
X127714285Y-95778571D01*
X127857142Y-95850000D01*
X127928571Y-95921429D01*
X128000000Y-96064286D01*
X128071428Y-96350000D01*
X128071428Y-96707143D01*
X128000000Y-96992857D01*
X127928571Y-97135714D01*
X127857142Y-97207143D01*
X127714285Y-97278571D01*
X127571428Y-97278571D01*
X127428571Y-97207143D01*
X127357142Y-97135714D01*
X127285714Y-96992857D01*
X127214285Y-96707143D01*
X127214285Y-96350000D01*
X127285714Y-96064286D01*
X127357142Y-95921429D01*
X127428571Y-95850000D01*
X127571428Y-95778571D01*
X129857142Y-97278571D02*
X129857142Y-96278571D01*
X129857142Y-96421429D02*
X129928570Y-96350000D01*
X130071428Y-96278571D01*
X130285713Y-96278571D01*
X130428570Y-96350000D01*
X130499999Y-96492857D01*
X130499999Y-97278571D01*
X130499999Y-96492857D02*
X130571428Y-96350000D01*
X130714285Y-96278571D01*
X130928570Y-96278571D01*
X131071428Y-96350000D01*
X131142856Y-96492857D01*
X131142856Y-97278571D01*
X131857142Y-97278571D02*
X131857142Y-96278571D01*
X131857142Y-96421429D02*
X131928570Y-96350000D01*
X132071428Y-96278571D01*
X132285713Y-96278571D01*
X132428570Y-96350000D01*
X132499999Y-96492857D01*
X132499999Y-97278571D01*
X132499999Y-96492857D02*
X132571428Y-96350000D01*
X132714285Y-96278571D01*
X132928570Y-96278571D01*
X133071428Y-96350000D01*
X133142856Y-96492857D01*
X133142856Y-97278571D01*
X100330000Y-95250000D02*
X153670000Y-95250000D01*
X100330000Y-92710000D02*
X100330000Y-97950000D01*
X153670000Y-92710000D02*
X153670000Y-97950000D01*
X153670000Y-95250000D02*
X152543496Y-95836421D01*
X153670000Y-95250000D02*
X152543496Y-94663579D01*
X100330000Y-95250000D02*
X101456504Y-95836421D01*
X100330000Y-95250000D02*
X101456504Y-94663579D01*
X81878571Y-53475715D02*
X81950000Y-53547144D01*
X82021429Y-53690001D01*
X82021429Y-54047144D01*
X81950000Y-54190001D01*
X81878571Y-54261430D01*
X81735714Y-54332858D01*
X81592857Y-54332858D01*
X81378571Y-54261430D01*
X80521429Y-53404287D01*
X80521429Y-54332858D01*
X81878571Y-54904286D02*
X81950000Y-54975715D01*
X82021429Y-55118572D01*
X82021429Y-55475715D01*
X81950000Y-55618572D01*
X81878571Y-55690001D01*
X81735714Y-55761429D01*
X81592857Y-55761429D01*
X81378571Y-55690001D01*
X80521429Y-54832858D01*
X80521429Y-55761429D01*
X80592857Y-56475714D02*
X80521429Y-56475714D01*
X80378571Y-56404286D01*
X80307143Y-56332857D01*
X81378571Y-57332858D02*
X81450000Y-57190000D01*
X81521429Y-57118572D01*
X81664286Y-57047143D01*
X81735714Y-57047143D01*
X81878571Y-57118572D01*
X81950000Y-57190000D01*
X82021429Y-57332858D01*
X82021429Y-57618572D01*
X81950000Y-57761429D01*
X81878571Y-57832858D01*
X81735714Y-57904286D01*
X81664286Y-57904286D01*
X81521429Y-57832858D01*
X81450000Y-57761429D01*
X81378571Y-57618572D01*
X81378571Y-57332858D01*
X81307143Y-57190000D01*
X81235714Y-57118572D01*
X81092857Y-57047143D01*
X80807143Y-57047143D01*
X80664286Y-57118572D01*
X80592857Y-57190000D01*
X80521429Y-57332858D01*
X80521429Y-57618572D01*
X80592857Y-57761429D01*
X80664286Y-57832858D01*
X80807143Y-57904286D01*
X81092857Y-57904286D01*
X81235714Y-57832858D01*
X81307143Y-57761429D01*
X81378571Y-57618572D01*
X82021429Y-59190000D02*
X82021429Y-58904286D01*
X81950000Y-58761429D01*
X81878571Y-58690000D01*
X81664286Y-58547143D01*
X81378571Y-58475714D01*
X80807143Y-58475714D01*
X80664286Y-58547143D01*
X80592857Y-58618571D01*
X80521429Y-58761429D01*
X80521429Y-59047143D01*
X80592857Y-59190000D01*
X80664286Y-59261429D01*
X80807143Y-59332857D01*
X81164286Y-59332857D01*
X81307143Y-59261429D01*
X81378571Y-59190000D01*
X81450000Y-59047143D01*
X81450000Y-58761429D01*
X81378571Y-58618571D01*
X81307143Y-58547143D01*
X81164286Y-58475714D01*
X82021429Y-60261428D02*
X82021429Y-60404285D01*
X81950000Y-60547142D01*
X81878571Y-60618571D01*
X81735714Y-60690000D01*
X81450000Y-60761428D01*
X81092857Y-60761428D01*
X80807143Y-60690000D01*
X80664286Y-60618571D01*
X80592857Y-60547142D01*
X80521429Y-60404285D01*
X80521429Y-60261428D01*
X80592857Y-60118571D01*
X80664286Y-60047142D01*
X80807143Y-59975714D01*
X81092857Y-59904285D01*
X81450000Y-59904285D01*
X81735714Y-59975714D01*
X81878571Y-60047142D01*
X81950000Y-60118571D01*
X82021429Y-60261428D01*
X80521429Y-62547142D02*
X81521429Y-62547142D01*
X81378571Y-62547142D02*
X81450000Y-62618570D01*
X81521429Y-62761428D01*
X81521429Y-62975713D01*
X81450000Y-63118570D01*
X81307143Y-63189999D01*
X80521429Y-63189999D01*
X81307143Y-63189999D02*
X81450000Y-63261428D01*
X81521429Y-63404285D01*
X81521429Y-63618570D01*
X81450000Y-63761428D01*
X81307143Y-63832856D01*
X80521429Y-63832856D01*
X80521429Y-64547142D02*
X81521429Y-64547142D01*
X81378571Y-64547142D02*
X81450000Y-64618570D01*
X81521429Y-64761428D01*
X81521429Y-64975713D01*
X81450000Y-65118570D01*
X81307143Y-65189999D01*
X80521429Y-65189999D01*
X81307143Y-65189999D02*
X81450000Y-65261428D01*
X81521429Y-65404285D01*
X81521429Y-65618570D01*
X81450000Y-65761428D01*
X81307143Y-65832856D01*
X80521429Y-65832856D01*
X82550000Y-48260000D02*
X82550000Y-71120000D01*
X91440000Y-48260000D02*
X79850000Y-48260000D01*
X91440000Y-71120000D02*
X79850000Y-71120000D01*
X82550000Y-71120000D02*
X81963579Y-69993496D01*
X82550000Y-71120000D02*
X83136421Y-69993496D01*
X82550000Y-48260000D02*
X81963579Y-49386504D01*
X82550000Y-48260000D02*
X83136421Y-49386504D01*
X176252858Y-98548571D02*
X175395715Y-98548571D01*
X175824287Y-98548571D02*
X175824287Y-97048571D01*
X175681430Y-97262857D01*
X175538572Y-97405714D01*
X175395715Y-97477143D01*
X176824286Y-97191429D02*
X176895715Y-97120000D01*
X177038572Y-97048571D01*
X177395715Y-97048571D01*
X177538572Y-97120000D01*
X177610001Y-97191429D01*
X177681429Y-97334286D01*
X177681429Y-97477143D01*
X177610001Y-97691429D01*
X176752858Y-98548571D01*
X177681429Y-98548571D01*
X178395714Y-98477143D02*
X178395714Y-98548571D01*
X178324286Y-98691429D01*
X178252857Y-98762857D01*
X178895715Y-97048571D02*
X179895715Y-97048571D01*
X179252858Y-98548571D01*
X180752857Y-97048571D02*
X180895714Y-97048571D01*
X181038571Y-97120000D01*
X181110000Y-97191429D01*
X181181429Y-97334286D01*
X181252857Y-97620000D01*
X181252857Y-97977143D01*
X181181429Y-98262857D01*
X181110000Y-98405714D01*
X181038571Y-98477143D01*
X180895714Y-98548571D01*
X180752857Y-98548571D01*
X180610000Y-98477143D01*
X180538571Y-98405714D01*
X180467143Y-98262857D01*
X180395714Y-97977143D01*
X180395714Y-97620000D01*
X180467143Y-97334286D01*
X180538571Y-97191429D01*
X180610000Y-97120000D01*
X180752857Y-97048571D01*
X182181428Y-97048571D02*
X182324285Y-97048571D01*
X182467142Y-97120000D01*
X182538571Y-97191429D01*
X182610000Y-97334286D01*
X182681428Y-97620000D01*
X182681428Y-97977143D01*
X182610000Y-98262857D01*
X182538571Y-98405714D01*
X182467142Y-98477143D01*
X182324285Y-98548571D01*
X182181428Y-98548571D01*
X182038571Y-98477143D01*
X181967142Y-98405714D01*
X181895714Y-98262857D01*
X181824285Y-97977143D01*
X181824285Y-97620000D01*
X181895714Y-97334286D01*
X181967142Y-97191429D01*
X182038571Y-97120000D01*
X182181428Y-97048571D01*
X184467142Y-98548571D02*
X184467142Y-97548571D01*
X184467142Y-97691429D02*
X184538570Y-97620000D01*
X184681428Y-97548571D01*
X184895713Y-97548571D01*
X185038570Y-97620000D01*
X185109999Y-97762857D01*
X185109999Y-98548571D01*
X185109999Y-97762857D02*
X185181428Y-97620000D01*
X185324285Y-97548571D01*
X185538570Y-97548571D01*
X185681428Y-97620000D01*
X185752856Y-97762857D01*
X185752856Y-98548571D01*
X186467142Y-98548571D02*
X186467142Y-97548571D01*
X186467142Y-97691429D02*
X186538570Y-97620000D01*
X186681428Y-97548571D01*
X186895713Y-97548571D01*
X187038570Y-97620000D01*
X187109999Y-97762857D01*
X187109999Y-98548571D01*
X187109999Y-97762857D02*
X187181428Y-97620000D01*
X187324285Y-97548571D01*
X187538570Y-97548571D01*
X187681428Y-97620000D01*
X187752856Y-97762857D01*
X187752856Y-98548571D01*
X187960000Y-96520000D02*
X175260000Y-96520000D01*
X187960000Y-93980000D02*
X187960000Y-99220000D01*
X175260000Y-93980000D02*
X175260000Y-99220000D01*
X175260000Y-96520000D02*
X176386504Y-95933579D01*
X175260000Y-96520000D02*
X176386504Y-97106421D01*
X187960000Y-96520000D02*
X186833496Y-95933579D01*
X187960000Y-96520000D02*
X186833496Y-97106421D01*
X138216430Y-90071429D02*
X138073572Y-90000000D01*
X138002144Y-89928571D01*
X137930715Y-89785714D01*
X137930715Y-89714286D01*
X138002144Y-89571429D01*
X138073572Y-89500000D01*
X138216430Y-89428571D01*
X138502144Y-89428571D01*
X138645001Y-89500000D01*
X138716430Y-89571429D01*
X138787858Y-89714286D01*
X138787858Y-89785714D01*
X138716430Y-89928571D01*
X138645001Y-90000000D01*
X138502144Y-90071429D01*
X138216430Y-90071429D01*
X138073572Y-90142857D01*
X138002144Y-90214286D01*
X137930715Y-90357143D01*
X137930715Y-90642857D01*
X138002144Y-90785714D01*
X138073572Y-90857143D01*
X138216430Y-90928571D01*
X138502144Y-90928571D01*
X138645001Y-90857143D01*
X138716430Y-90785714D01*
X138787858Y-90642857D01*
X138787858Y-90357143D01*
X138716430Y-90214286D01*
X138645001Y-90142857D01*
X138502144Y-90071429D01*
X139287858Y-89428571D02*
X140287858Y-89428571D01*
X139645001Y-90928571D01*
X140930714Y-90857143D02*
X140930714Y-90928571D01*
X140859286Y-91071429D01*
X140787857Y-91142857D01*
X142216429Y-89428571D02*
X141930715Y-89428571D01*
X141787858Y-89500000D01*
X141716429Y-89571429D01*
X141573572Y-89785714D01*
X141502143Y-90071429D01*
X141502143Y-90642857D01*
X141573572Y-90785714D01*
X141645000Y-90857143D01*
X141787858Y-90928571D01*
X142073572Y-90928571D01*
X142216429Y-90857143D01*
X142287858Y-90785714D01*
X142359286Y-90642857D01*
X142359286Y-90285714D01*
X142287858Y-90142857D01*
X142216429Y-90071429D01*
X142073572Y-90000000D01*
X141787858Y-90000000D01*
X141645000Y-90071429D01*
X141573572Y-90142857D01*
X141502143Y-90285714D01*
X142859286Y-89428571D02*
X143787857Y-89428571D01*
X143287857Y-90000000D01*
X143502143Y-90000000D01*
X143645000Y-90071429D01*
X143716429Y-90142857D01*
X143787857Y-90285714D01*
X143787857Y-90642857D01*
X143716429Y-90785714D01*
X143645000Y-90857143D01*
X143502143Y-90928571D01*
X143073571Y-90928571D01*
X142930714Y-90857143D01*
X142859286Y-90785714D01*
X144716428Y-89428571D02*
X144859285Y-89428571D01*
X145002142Y-89500000D01*
X145073571Y-89571429D01*
X145145000Y-89714286D01*
X145216428Y-90000000D01*
X145216428Y-90357143D01*
X145145000Y-90642857D01*
X145073571Y-90785714D01*
X145002142Y-90857143D01*
X144859285Y-90928571D01*
X144716428Y-90928571D01*
X144573571Y-90857143D01*
X144502142Y-90785714D01*
X144430714Y-90642857D01*
X144359285Y-90357143D01*
X144359285Y-90000000D01*
X144430714Y-89714286D01*
X144502142Y-89571429D01*
X144573571Y-89500000D01*
X144716428Y-89428571D01*
X147002142Y-90928571D02*
X147002142Y-89928571D01*
X147002142Y-90071429D02*
X147073570Y-90000000D01*
X147216428Y-89928571D01*
X147430713Y-89928571D01*
X147573570Y-90000000D01*
X147644999Y-90142857D01*
X147644999Y-90928571D01*
X147644999Y-90142857D02*
X147716428Y-90000000D01*
X147859285Y-89928571D01*
X148073570Y-89928571D01*
X148216428Y-90000000D01*
X148287856Y-90142857D01*
X148287856Y-90928571D01*
X149002142Y-90928571D02*
X149002142Y-89928571D01*
X149002142Y-90071429D02*
X149073570Y-90000000D01*
X149216428Y-89928571D01*
X149430713Y-89928571D01*
X149573570Y-90000000D01*
X149644999Y-90142857D01*
X149644999Y-90928571D01*
X149644999Y-90142857D02*
X149716428Y-90000000D01*
X149859285Y-89928571D01*
X150073570Y-89928571D01*
X150216428Y-90000000D01*
X150287856Y-90142857D01*
X150287856Y-90928571D01*
X187960000Y-88900000D02*
X100330000Y-88900000D01*
X187960000Y-86360000D02*
X187960000Y-91600000D01*
X100330000Y-86360000D02*
X100330000Y-91600000D01*
X100330000Y-88900000D02*
X101456504Y-88313579D01*
X100330000Y-88900000D02*
X101456504Y-89486421D01*
X187960000Y-88900000D02*
X186833496Y-88313579D01*
X187960000Y-88900000D02*
X186833496Y-89486421D01*
X194711429Y-54190001D02*
X193711429Y-54190001D01*
X195282857Y-53832858D02*
X194211429Y-53475715D01*
X194211429Y-54404287D01*
X194568571Y-55190001D02*
X194640000Y-55047143D01*
X194711429Y-54975715D01*
X194854286Y-54904286D01*
X194925714Y-54904286D01*
X195068571Y-54975715D01*
X195140000Y-55047143D01*
X195211429Y-55190001D01*
X195211429Y-55475715D01*
X195140000Y-55618572D01*
X195068571Y-55690001D01*
X194925714Y-55761429D01*
X194854286Y-55761429D01*
X194711429Y-55690001D01*
X194640000Y-55618572D01*
X194568571Y-55475715D01*
X194568571Y-55190001D01*
X194497143Y-55047143D01*
X194425714Y-54975715D01*
X194282857Y-54904286D01*
X193997143Y-54904286D01*
X193854286Y-54975715D01*
X193782857Y-55047143D01*
X193711429Y-55190001D01*
X193711429Y-55475715D01*
X193782857Y-55618572D01*
X193854286Y-55690001D01*
X193997143Y-55761429D01*
X194282857Y-55761429D01*
X194425714Y-55690001D01*
X194497143Y-55618572D01*
X194568571Y-55475715D01*
X193782857Y-56475714D02*
X193711429Y-56475714D01*
X193568571Y-56404286D01*
X193497143Y-56332857D01*
X195068571Y-57047143D02*
X195140000Y-57118572D01*
X195211429Y-57261429D01*
X195211429Y-57618572D01*
X195140000Y-57761429D01*
X195068571Y-57832858D01*
X194925714Y-57904286D01*
X194782857Y-57904286D01*
X194568571Y-57832858D01*
X193711429Y-56975715D01*
X193711429Y-57904286D01*
X195211429Y-59190000D02*
X195211429Y-58904286D01*
X195140000Y-58761429D01*
X195068571Y-58690000D01*
X194854286Y-58547143D01*
X194568571Y-58475714D01*
X193997143Y-58475714D01*
X193854286Y-58547143D01*
X193782857Y-58618571D01*
X193711429Y-58761429D01*
X193711429Y-59047143D01*
X193782857Y-59190000D01*
X193854286Y-59261429D01*
X193997143Y-59332857D01*
X194354286Y-59332857D01*
X194497143Y-59261429D01*
X194568571Y-59190000D01*
X194640000Y-59047143D01*
X194640000Y-58761429D01*
X194568571Y-58618571D01*
X194497143Y-58547143D01*
X194354286Y-58475714D01*
X195211429Y-60261428D02*
X195211429Y-60404285D01*
X195140000Y-60547142D01*
X195068571Y-60618571D01*
X194925714Y-60690000D01*
X194640000Y-60761428D01*
X194282857Y-60761428D01*
X193997143Y-60690000D01*
X193854286Y-60618571D01*
X193782857Y-60547142D01*
X193711429Y-60404285D01*
X193711429Y-60261428D01*
X193782857Y-60118571D01*
X193854286Y-60047142D01*
X193997143Y-59975714D01*
X194282857Y-59904285D01*
X194640000Y-59904285D01*
X194925714Y-59975714D01*
X195068571Y-60047142D01*
X195140000Y-60118571D01*
X195211429Y-60261428D01*
X193711429Y-62547142D02*
X194711429Y-62547142D01*
X194568571Y-62547142D02*
X194640000Y-62618570D01*
X194711429Y-62761428D01*
X194711429Y-62975713D01*
X194640000Y-63118570D01*
X194497143Y-63189999D01*
X193711429Y-63189999D01*
X194497143Y-63189999D02*
X194640000Y-63261428D01*
X194711429Y-63404285D01*
X194711429Y-63618570D01*
X194640000Y-63761428D01*
X194497143Y-63832856D01*
X193711429Y-63832856D01*
X193711429Y-64547142D02*
X194711429Y-64547142D01*
X194568571Y-64547142D02*
X194640000Y-64618570D01*
X194711429Y-64761428D01*
X194711429Y-64975713D01*
X194640000Y-65118570D01*
X194497143Y-65189999D01*
X193711429Y-65189999D01*
X194497143Y-65189999D02*
X194640000Y-65261428D01*
X194711429Y-65404285D01*
X194711429Y-65618570D01*
X194640000Y-65761428D01*
X194497143Y-65832856D01*
X193711429Y-65832856D01*
X193040000Y-35560000D02*
X193040000Y-83820000D01*
X190500000Y-35560000D02*
X195740000Y-35560000D01*
X190500000Y-83820000D02*
X195740000Y-83820000D01*
X193040000Y-83820000D02*
X192453579Y-82693496D01*
X193040000Y-83820000D02*
X193626421Y-82693496D01*
X193040000Y-35560000D02*
X192453579Y-36686504D01*
X193040000Y-35560000D02*
X193626421Y-36686504D01*
M02*
