M48
;DRILL file {KiCad 4.0.6} date Thursday, 29 June 2017 'AMt' 11:53:22
;FORMAT={-:-/ absolute / metric / decimal}
FMAT,2
METRIC,TZ
T1C1.000
T2C1.016
T3C3.200
%
G90
G05
M71
T1
X106.25Y64.25
X113.92Y46.
X116.46Y46.
X119.Y46.
X121.54Y46.
X137.96Y73.5
X139.4Y46.
X140.5Y73.5
X140.5Y75.5
X141.94Y46.
X143.04Y73.5
X144.48Y46.
X145.58Y73.5
X167.64Y46.99
X167.64Y49.53
X170.18Y46.99
X170.18Y49.53
X172.72Y46.99
X172.72Y49.53
X175.26Y46.99
X175.26Y49.53
X177.8Y46.99
X177.8Y49.53
X180.34Y46.99
X180.34Y49.53
X182.88Y46.99
X182.88Y49.53
T2
X108.27Y52.07
X108.27Y67.31
X110.81Y52.07
X110.81Y67.31
X113.35Y52.07
X113.35Y67.31
X115.89Y52.07
X115.89Y67.31
X118.43Y52.07
X118.43Y67.31
X120.97Y52.07
X120.97Y67.31
X123.51Y52.07
X123.51Y67.31
X126.05Y52.07
X126.05Y67.31
X128.59Y52.07
X128.59Y67.31
X131.13Y52.07
X131.13Y67.31
X133.67Y52.07
X133.67Y67.31
X136.21Y52.07
X136.21Y67.31
X138.75Y52.07
X138.75Y67.31
X141.29Y52.07
X141.29Y67.31
X143.83Y52.07
X143.83Y67.31
X146.37Y52.07
X146.37Y67.31
X148.91Y52.07
X148.91Y67.31
X151.45Y52.07
X151.45Y67.31
X153.99Y52.07
X153.99Y67.31
X156.53Y52.07
X156.53Y67.31
T3
X104.Y39.5
X104.Y80.
X184.Y40.
X184.Y80.
T0
M30
