G04 #@! TF.FileFunction,Soldermask,Bot*
%FSLAX46Y46*%
G04 Gerber Fmt 4.6, Leading zero omitted, Abs format (unit mm)*
G04 Created by KiCad (PCBNEW 4.0.6) date Thursday, 29 June 2017 'AMt' 11:53:14*
%MOMM*%
%LPD*%
G01*
G04 APERTURE LIST*
%ADD10C,0.100000*%
%ADD11R,1.700000X1.100000*%
%ADD12C,1.924000*%
%ADD13R,1.600000X1.600000*%
%ADD14R,2.100000X2.100000*%
%ADD15O,2.100000X2.100000*%
%ADD16C,3.600000*%
G04 APERTURE END LIST*
D10*
D11*
X120900000Y-74500000D03*
X120900000Y-76400000D03*
X116900000Y-74500000D03*
X116900000Y-76400000D03*
D12*
X108270000Y-67310000D03*
X110810000Y-67310000D03*
X113350000Y-67310000D03*
X115890000Y-67310000D03*
X118430000Y-67310000D03*
X120970000Y-67310000D03*
X123510000Y-67310000D03*
X126050000Y-67310000D03*
X128590000Y-67310000D03*
X131130000Y-67310000D03*
X133670000Y-67310000D03*
X136210000Y-67310000D03*
X138750000Y-67310000D03*
X141290000Y-67310000D03*
X143830000Y-67310000D03*
X146370000Y-67310000D03*
X148910000Y-67310000D03*
X151450000Y-67310000D03*
X153990000Y-67310000D03*
X156530000Y-67310000D03*
X156530000Y-52070000D03*
X153990000Y-52070000D03*
X151450000Y-52070000D03*
X148910000Y-52070000D03*
X146370000Y-52070000D03*
X143830000Y-52070000D03*
X141290000Y-52070000D03*
X138750000Y-52070000D03*
X136210000Y-52070000D03*
X133670000Y-52070000D03*
X131130000Y-52070000D03*
X128590000Y-52070000D03*
X126050000Y-52070000D03*
X123510000Y-52070000D03*
X120970000Y-52070000D03*
X118430000Y-52070000D03*
X115890000Y-52070000D03*
X113350000Y-52070000D03*
X110810000Y-52070000D03*
X108270000Y-52070000D03*
D13*
X130400000Y-78800000D03*
X130400000Y-81000000D03*
D11*
X109410000Y-74500000D03*
X109410000Y-76400000D03*
D13*
X109410000Y-78800000D03*
X109410000Y-81000000D03*
X116900000Y-78800000D03*
X116900000Y-81000000D03*
X132900000Y-78800000D03*
X132900000Y-81000000D03*
D11*
X130400000Y-74500000D03*
X130400000Y-76400000D03*
X132900000Y-74500000D03*
X132900000Y-76400000D03*
X150300000Y-74500000D03*
X150300000Y-76400000D03*
D13*
X150300000Y-78750000D03*
X150300000Y-80950000D03*
D11*
X113154999Y-74500000D03*
X113154999Y-76400000D03*
D14*
X113920000Y-46000000D03*
D15*
X116460000Y-46000000D03*
X119000000Y-46000000D03*
X121540000Y-46000000D03*
D14*
X182880000Y-46990000D03*
D15*
X182880000Y-49530000D03*
X180340000Y-46990000D03*
X180340000Y-49530000D03*
X177800000Y-46990000D03*
X177800000Y-49530000D03*
X175260000Y-46990000D03*
X175260000Y-49530000D03*
X172720000Y-46990000D03*
X172720000Y-49530000D03*
X170180000Y-46990000D03*
X170180000Y-49530000D03*
X167640000Y-46990000D03*
X167640000Y-49530000D03*
D13*
X113150000Y-78800000D03*
X113150000Y-81000000D03*
X120900000Y-78800000D03*
X120900000Y-81000000D03*
D14*
X139400000Y-46000000D03*
D15*
X141940000Y-46000000D03*
X144480000Y-46000000D03*
D14*
X145580000Y-73500000D03*
D15*
X143040000Y-73500000D03*
X140500000Y-73500000D03*
X137960000Y-73500000D03*
D16*
X104000000Y-39500000D03*
X104000000Y-80000000D03*
X184000000Y-80000000D03*
X184000000Y-40000000D03*
M02*
